<ttFont>
    <TTGlyph name="A" xMin="-48" yMin="0" xMax="526" yMax="668">
      <contour>
        <pt x="526" y="0" on="1"/>
        <pt x="384" y="0" on="1"/>
        <pt x="362" y="158" on="1"/>
        <pt x="169" y="158" on="1"/>
        <pt x="98" y="0" on="1"/>
        <pt x="-48" y="0" on="1"/>
        <pt x="269" y="668" on="1"/>
        <pt x="422" y="668" on="1"/>
      </contour>
      <contour>
        <pt x="348" y="267" on="1"/>
        <pt x="323" y="530" on="1"/>
        <pt x="217" y="267" on="1"/>
      </contour>
    </TTGlyph>
    <TTGlyph name="AE" xMin="-52" yMin="-1" xMax="826" yMax="668">
      <contour>
        <pt x="358" y="267" on="1"/>
        <pt x="406" y="571" on="1"/>
        <pt x="241" y="267" on="1"/>
      </contour>
      <contour>
        <pt x="324" y="-1" on="1"/>
        <pt x="350" y="158" on="1"/>
        <pt x="181" y="158" on="1"/>
        <pt x="93" y="0" on="1"/>
        <pt x="-52" y="0" on="1"/>
        <pt x="341" y="668" on="1"/>
        <pt x="826" y="668" on="1"/>
        <pt x="808" y="552" on="1"/>
        <pt x="531" y="552" on="1"/>
        <pt x="507" y="401" on="1"/>
        <pt x="768" y="401" on="1"/>
        <pt x="750" y="289" on="1"/>
        <pt x="489" y="289" on="1"/>
        <pt x="462" y="115" on="1"/>
        <pt x="748" y="115" on="1"/>
        <pt x="729" y="-1" on="1"/>
      </contour>
    </TTGlyph>
    <TTGlyph name="Aacute" xMin="-48" yMin="0" xMax="540" yMax="922">
      <contour>
        <pt x="526" y="0" on="1"/>
        <pt x="384" y="0" on="1"/>
        <pt x="362" y="158" on="1"/>
        <pt x="169" y="158" on="1"/>
        <pt x="98" y="0" on="1"/>
        <pt x="-48" y="0" on="1"/>
        <pt x="269" y="668" on="1"/>
        <pt x="422" y="668" on="1"/>
      </contour>
      <contour>
        <pt x="348" y="267" on="1"/>
        <pt x="323" y="530" on="1"/>
        <pt x="217" y="267" on="1"/>
      </contour>
      <contour>
        <pt x="540" y="811" on="1"/>
        <pt x="323" y="735" on="1"/>
        <pt x="302" y="813" on="1"/>
        <pt x="508" y="922" on="1"/>
      </contour>
    </TTGlyph>
    <TTGlyph name="Acircumflex" xMin="-48" yMin="0" xMax="526" yMax="882">
      <contour>
        <pt x="526" y="0" on="1"/>
        <pt x="384" y="0" on="1"/>
        <pt x="362" y="158" on="1"/>
        <pt x="169" y="158" on="1"/>
        <pt x="98" y="0" on="1"/>
        <pt x="-48" y="0" on="1"/>
        <pt x="269" y="668" on="1"/>
        <pt x="422" y="668" on="1"/>
      </contour>
      <contour>
        <pt x="348" y="267" on="1"/>
        <pt x="323" y="530" on="1"/>
        <pt x="217" y="267" on="1"/>
      </contour>
      <contour>
        <pt x="367" y="796" on="1"/>
        <pt x="269" y="711" on="1"/>
        <pt x="213" y="763" on="1"/>
        <pt x="343" y="882" on="1"/>
        <pt x="417" y="882" on="1"/>
        <pt x="509" y="763" on="1"/>
        <pt x="437" y="711" on="1"/>
      </contour>
    </TTGlyph>
    <TTGlyph name="Adieresis" xMin="-48" yMin="0" xMax="526" yMax="854">
      <contour>
        <pt x="526" y="0" on="1"/>
        <pt x="384" y="0" on="1"/>
        <pt x="362" y="158" on="1"/>
        <pt x="169" y="158" on="1"/>
        <pt x="98" y="0" on="1"/>
        <pt x="-48" y="0" on="1"/>
        <pt x="269" y="668" on="1"/>
        <pt x="422" y="668" on="1"/>
      </contour>
      <contour>
        <pt x="348" y="267" on="1"/>
        <pt x="323" y="530" on="1"/>
        <pt x="217" y="267" on="1"/>
      </contour>
      <contour>
        <pt x="253" y="854" on="0"/>
        <pt x="312" y="854" on="0"/>
        <pt x="342" y="819" on="0"/>
        <pt x="342" y="792" on="0"/>
        <pt x="341" y="786" on="1"/>
        <pt x="337" y="756" on="0"/>
        <pt x="290" y="715" on="0"/>
        <pt x="231" y="715" on="0"/>
        <pt x="202" y="751" on="0"/>
        <pt x="202" y="765" on="1"/>
        <pt x="202" y="809" on="0"/>
      </contour>
      <contour>
        <pt x="438" y="854" on="0"/>
        <pt x="496" y="854" on="0"/>
        <pt x="526" y="818" on="0"/>
        <pt x="526" y="797" on="1"/>
        <pt x="526" y="760" on="0"/>
        <pt x="474" y="715" on="0"/>
        <pt x="416" y="715" on="0"/>
        <pt x="386" y="751" on="0"/>
        <pt x="386" y="765" on="1"/>
        <pt x="386" y="809" on="0"/>
      </contour>
    </TTGlyph>
    <TTGlyph name="Agrave" xMin="-48" yMin="0" xMax="526" yMax="919">
      <contour>
        <pt x="427" y="732" on="1"/>
        <pt x="236" y="808" on="1"/>
        <pt x="302" y="919" on="1"/>
        <pt x="474" y="810" on="1"/>
      </contour>
      <contour>
        <pt x="526" y="0" on="1"/>
        <pt x="384" y="0" on="1"/>
        <pt x="362" y="158" on="1"/>
        <pt x="169" y="158" on="1"/>
        <pt x="98" y="0" on="1"/>
        <pt x="-48" y="0" on="1"/>
        <pt x="269" y="668" on="1"/>
        <pt x="422" y="668" on="1"/>
      </contour>
      <contour>
        <pt x="348" y="267" on="1"/>
        <pt x="323" y="530" on="1"/>
        <pt x="217" y="267" on="1"/>
      </contour>
    </TTGlyph>
    <TTGlyph name="Aring" xMin="-48" yMin="0" xMax="526" yMax="917">
      <contour>
        <pt x="401" y="712" on="0"/>
        <pt x="301" y="712" on="0"/>
        <pt x="263" y="765" on="0"/>
        <pt x="263" y="795" on="1"/>
        <pt x="263" y="850" on="0"/>
        <pt x="335" y="917" on="0"/>
        <pt x="435" y="917" on="0"/>
        <pt x="473" y="865" on="0"/>
        <pt x="473" y="834" on="1"/>
        <pt x="473" y="781" on="0"/>
      </contour>
      <contour>
        <pt x="405" y="825" on="1"/>
        <pt x="405" y="853" on="0"/>
        <pt x="374" y="853" on="1"/>
        <pt x="339" y="853" on="0"/>
        <pt x="333" y="814" on="1"/>
        <pt x="330" y="798" on="0"/>
        <pt x="344" y="775" on="0"/>
        <pt x="362" y="775" on="1"/>
        <pt x="398" y="775" on="0"/>
        <pt x="404" y="815" on="1"/>
        <pt x="405" y="820" on="0"/>
      </contour>
      <contour>
        <pt x="526" y="0" on="1"/>
        <pt x="384" y="0" on="1"/>
        <pt x="362" y="158" on="1"/>
        <pt x="169" y="158" on="1"/>
        <pt x="98" y="0" on="1"/>
        <pt x="-48" y="0" on="1"/>
        <pt x="269" y="668" on="1"/>
        <pt x="422" y="668" on="1"/>
      </contour>
      <contour>
        <pt x="348" y="267" on="1"/>
        <pt x="323" y="530" on="1"/>
        <pt x="217" y="267" on="1"/>
      </contour>
    </TTGlyph>
    <TTGlyph name="Atilde" xMin="-48" yMin="0" xMax="540" yMax="871">
      <contour>
        <pt x="526" y="0" on="1"/>
        <pt x="384" y="0" on="1"/>
        <pt x="362" y="158" on="1"/>
        <pt x="169" y="158" on="1"/>
        <pt x="98" y="0" on="1"/>
        <pt x="-48" y="0" on="1"/>
        <pt x="269" y="668" on="1"/>
        <pt x="422" y="668" on="1"/>
      </contour>
      <contour>
        <pt x="348" y="267" on="1"/>
        <pt x="323" y="530" on="1"/>
        <pt x="217" y="267" on="1"/>
      </contour>
      <contour>
        <pt x="336" y="871" on="0"/>
        <pt x="420" y="828" on="0"/>
        <pt x="465" y="828" on="0"/>
        <pt x="500" y="863" on="1"/>
        <pt x="540" y="809" on="1"/>
        <pt x="517" y="779" on="0"/>
        <pt x="449" y="734" on="0"/>
        <pt x="394" y="734" on="0"/>
        <pt x="313" y="777" on="0"/>
        <pt x="268" y="777" on="0"/>
        <pt x="233" y="742" on="1"/>
        <pt x="193" y="796" on="1"/>
        <pt x="216" y="826" on="0"/>
        <pt x="282" y="871" on="0"/>
      </contour>
    </TTGlyph>
    <TTGlyph name="B" xMin="18" yMin="0" xMax="512" yMax="668">
      <contour>
        <pt x="484" y="419" on="1"/>
        <pt x="465" y="389" on="0"/>
        <pt x="424" y="366" on="1"/>
        <pt x="478" y="340" on="0"/>
        <pt x="494" y="302" on="1"/>
        <pt x="505" y="278" on="0"/>
        <pt x="505" y="226" on="0"/>
        <pt x="502" y="204" on="1"/>
        <pt x="486" y="108" on="0"/>
        <pt x="355" y="0" on="0"/>
        <pt x="238" y="0" on="1"/>
        <pt x="18" y="0" on="1"/>
        <pt x="123" y="668" on="1"/>
        <pt x="269" y="668" on="1"/>
        <pt x="346" y="668" on="0"/>
        <pt x="432" y="655" on="0"/>
        <pt x="464" y="632" on="1"/>
        <pt x="512" y="597" on="0"/>
        <pt x="512" y="465" on="0"/>
      </contour>
      <contour>
        <pt x="370" y="490" on="1"/>
        <pt x="372" y="502" on="0"/>
        <pt x="372" y="512" on="1"/>
        <pt x="372" y="543" on="0"/>
        <pt x="348" y="552" on="1"/>
        <pt x="324" y="562" on="0"/>
        <pt x="271" y="562" on="1"/>
        <pt x="250" y="562" on="1"/>
        <pt x="225" y="409" on="1"/>
        <pt x="292" y="409" on="1"/>
        <pt x="358" y="414" on="0"/>
      </contour>
      <contour>
        <pt x="239" y="114" on="1"/>
        <pt x="350" y="114" on="0"/>
        <pt x="363" y="208" on="1"/>
        <pt x="365" y="221" on="0"/>
        <pt x="365" y="233" on="1"/>
        <pt x="365" y="268" on="0"/>
        <pt x="316" y="304" on="0"/>
        <pt x="257" y="304" on="1"/>
        <pt x="209" y="304" on="1"/>
        <pt x="179" y="114" on="1"/>
      </contour>
    </TTGlyph>
    <TTGlyph name="C" xMin="38" yMin="-13" xMax="547" yMax="679">
      <contour>
        <pt x="436" y="5" on="1"/>
        <pt x="356" y="-13" on="0"/>
        <pt x="219" y="-13" on="0"/>
        <pt x="126" y="21" on="0"/>
        <pt x="90" y="62" on="1"/>
        <pt x="38" y="118" on="0"/>
        <pt x="38" y="237" on="1"/>
        <pt x="38" y="281" on="0"/>
        <pt x="45" y="336" on="1"/>
        <pt x="60" y="431" on="0"/>
        <pt x="134" y="570" on="0"/>
        <pt x="184" y="608" on="1"/>
        <pt x="281" y="679" on="0"/>
        <pt x="399" y="679" on="1"/>
        <pt x="474" y="679" on="0"/>
        <pt x="547" y="657" on="1"/>
        <pt x="507" y="554" on="1"/>
        <pt x="452" y="565" on="0"/>
        <pt x="403" y="565" on="1"/>
        <pt x="322" y="565" on="0"/>
        <pt x="212" y="464" on="0"/>
        <pt x="192" y="339" on="1"/>
        <pt x="185" y="296" on="0"/>
        <pt x="185" y="261" on="1"/>
        <pt x="185" y="193" on="0"/>
        <pt x="212" y="158" on="1"/>
        <pt x="251" y="106" on="0"/>
        <pt x="336" y="106" on="1"/>
        <pt x="396" y="106" on="0"/>
        <pt x="445" y="114" on="1"/>
      </contour>
    </TTGlyph>
    <TTGlyph name="Ccedilla" xMin="38" yMin="-295" xMax="547" yMax="679">
      <contour>
        <pt x="436" y="5" on="1"/>
        <pt x="356" y="-13" on="0"/>
        <pt x="219" y="-13" on="0"/>
        <pt x="126" y="21" on="0"/>
        <pt x="90" y="62" on="1"/>
        <pt x="38" y="118" on="0"/>
        <pt x="38" y="237" on="1"/>
        <pt x="38" y="281" on="0"/>
        <pt x="45" y="336" on="1"/>
        <pt x="60" y="431" on="0"/>
        <pt x="134" y="570" on="0"/>
        <pt x="184" y="608" on="1"/>
        <pt x="281" y="679" on="0"/>
        <pt x="399" y="679" on="1"/>
        <pt x="474" y="679" on="0"/>
        <pt x="547" y="657" on="1"/>
        <pt x="507" y="554" on="1"/>
        <pt x="452" y="565" on="0"/>
        <pt x="403" y="565" on="1"/>
        <pt x="322" y="565" on="0"/>
        <pt x="212" y="464" on="0"/>
        <pt x="192" y="339" on="1"/>
        <pt x="185" y="296" on="0"/>
        <pt x="185" y="261" on="1"/>
        <pt x="185" y="193" on="0"/>
        <pt x="212" y="158" on="1"/>
        <pt x="251" y="106" on="0"/>
        <pt x="336" y="106" on="1"/>
        <pt x="396" y="106" on="0"/>
        <pt x="445" y="114" on="1"/>
      </contour>
      <contour>
        <pt x="349" y="-57" on="1"/>
        <pt x="357" y="-83" on="0"/>
        <pt x="357" y="-121" on="0"/>
        <pt x="355" y="-133" on="1"/>
        <pt x="340" y="-231" on="0"/>
        <pt x="202" y="-295" on="1"/>
        <pt x="161" y="-230" on="1"/>
        <pt x="227" y="-186" on="0"/>
        <pt x="233" y="-139" on="1"/>
        <pt x="234" y="-130" on="0"/>
        <pt x="234" y="-94" on="0"/>
        <pt x="225" y="-57" on="1"/>
      </contour>
    </TTGlyph>
    <TTGlyph name="D" xMin="18" yMin="0" xMax="576" yMax="667">
      <contour>
        <pt x="232" y="129" on="1"/>
        <pt x="331" y="129" on="0"/>
        <pt x="372" y="184" on="1"/>
        <pt x="409" y="234" on="0"/>
        <pt x="424" y="334" on="1"/>
        <pt x="431" y="378" on="0"/>
        <pt x="431" y="460" on="0"/>
        <pt x="417" y="489" on="1"/>
        <pt x="393" y="538" on="0"/>
        <pt x="297" y="538" on="1"/>
        <pt x="247" y="538" on="1"/>
        <pt x="182" y="129" on="1"/>
      </contour>
      <contour>
        <pt x="206" y="0" on="1"/>
        <pt x="18" y="0" on="1"/>
        <pt x="123" y="667" on="1"/>
        <pt x="311" y="667" on="1"/>
        <pt x="438" y="667" on="0"/>
        <pt x="483" y="641" on="1"/>
        <pt x="575" y="589" on="0"/>
        <pt x="575" y="438" on="1"/>
        <pt x="575" y="390" on="0"/>
        <pt x="566" y="333" on="1"/>
        <pt x="549" y="225" on="0"/>
        <pt x="460" y="61" on="0"/>
        <pt x="387" y="27" on="1"/>
        <pt x="328" y="0" on="0"/>
      </contour>
    </TTGlyph>
    <TTGlyph name="E" xMin="18" yMin="0" xMax="544" yMax="669">
      <contour>
        <pt x="180" y="116" on="1"/>
        <pt x="466" y="116" on="1"/>
        <pt x="448" y="0" on="1"/>
        <pt x="18" y="0" on="1"/>
        <pt x="123" y="669" on="1"/>
        <pt x="544" y="669" on="1"/>
        <pt x="526" y="553" on="1"/>
        <pt x="249" y="553" on="1"/>
        <pt x="225" y="402" on="1"/>
        <pt x="486" y="402" on="1"/>
        <pt x="468" y="290" on="1"/>
        <pt x="207" y="290" on="1"/>
      </contour>
    </TTGlyph>
    <TTGlyph name="Eacute" xMin="18" yMin="0" xMax="544" yMax="922">
      <contour>
        <pt x="180" y="116" on="1"/>
        <pt x="466" y="116" on="1"/>
        <pt x="448" y="0" on="1"/>
        <pt x="18" y="0" on="1"/>
        <pt x="123" y="669" on="1"/>
        <pt x="544" y="669" on="1"/>
        <pt x="526" y="553" on="1"/>
        <pt x="249" y="553" on="1"/>
        <pt x="225" y="402" on="1"/>
        <pt x="486" y="402" on="1"/>
        <pt x="468" y="290" on="1"/>
        <pt x="207" y="290" on="1"/>
      </contour>
      <contour>
        <pt x="464" y="811" on="1"/>
        <pt x="247" y="735" on="1"/>
        <pt x="226" y="813" on="1"/>
        <pt x="432" y="922" on="1"/>
      </contour>
    </TTGlyph>
    <TTGlyph name="Ecircumflex" xMin="18" yMin="0" xMax="544" yMax="882">
      <contour>
        <pt x="180" y="116" on="1"/>
        <pt x="466" y="116" on="1"/>
        <pt x="448" y="0" on="1"/>
        <pt x="18" y="0" on="1"/>
        <pt x="123" y="669" on="1"/>
        <pt x="544" y="669" on="1"/>
        <pt x="526" y="553" on="1"/>
        <pt x="249" y="553" on="1"/>
        <pt x="225" y="402" on="1"/>
        <pt x="486" y="402" on="1"/>
        <pt x="468" y="290" on="1"/>
        <pt x="207" y="290" on="1"/>
      </contour>
      <contour>
        <pt x="336" y="796" on="1"/>
        <pt x="238" y="711" on="1"/>
        <pt x="182" y="763" on="1"/>
        <pt x="312" y="882" on="1"/>
        <pt x="386" y="882" on="1"/>
        <pt x="478" y="763" on="1"/>
        <pt x="406" y="711" on="1"/>
      </contour>
    </TTGlyph>
    <TTGlyph name="Edieresis" xMin="18" yMin="0" xMax="544" yMax="854">
      <contour>
        <pt x="180" y="116" on="1"/>
        <pt x="466" y="116" on="1"/>
        <pt x="448" y="0" on="1"/>
        <pt x="18" y="0" on="1"/>
        <pt x="123" y="669" on="1"/>
        <pt x="544" y="669" on="1"/>
        <pt x="526" y="553" on="1"/>
        <pt x="249" y="553" on="1"/>
        <pt x="225" y="402" on="1"/>
        <pt x="486" y="402" on="1"/>
        <pt x="468" y="290" on="1"/>
        <pt x="207" y="290" on="1"/>
      </contour>
      <contour>
        <pt x="234" y="854" on="0"/>
        <pt x="293" y="854" on="0"/>
        <pt x="323" y="819" on="0"/>
        <pt x="323" y="792" on="0"/>
        <pt x="322" y="786" on="1"/>
        <pt x="318" y="756" on="0"/>
        <pt x="271" y="715" on="0"/>
        <pt x="212" y="715" on="0"/>
        <pt x="183" y="751" on="0"/>
        <pt x="183" y="765" on="1"/>
        <pt x="183" y="809" on="0"/>
      </contour>
      <contour>
        <pt x="419" y="854" on="0"/>
        <pt x="477" y="854" on="0"/>
        <pt x="507" y="818" on="0"/>
        <pt x="507" y="797" on="1"/>
        <pt x="507" y="760" on="0"/>
        <pt x="455" y="715" on="0"/>
        <pt x="397" y="715" on="0"/>
        <pt x="367" y="751" on="0"/>
        <pt x="367" y="765" on="1"/>
        <pt x="367" y="809" on="0"/>
      </contour>
    </TTGlyph>
    <TTGlyph name="Egrave" xMin="18" yMin="0" xMax="544" yMax="919">
      <contour>
        <pt x="180" y="116" on="1"/>
        <pt x="466" y="116" on="1"/>
        <pt x="448" y="0" on="1"/>
        <pt x="18" y="0" on="1"/>
        <pt x="123" y="669" on="1"/>
        <pt x="544" y="669" on="1"/>
        <pt x="526" y="553" on="1"/>
        <pt x="249" y="553" on="1"/>
        <pt x="225" y="402" on="1"/>
        <pt x="486" y="402" on="1"/>
        <pt x="468" y="290" on="1"/>
        <pt x="207" y="290" on="1"/>
      </contour>
      <contour>
        <pt x="422" y="732" on="1"/>
        <pt x="231" y="808" on="1"/>
        <pt x="297" y="919" on="1"/>
        <pt x="469" y="810" on="1"/>
      </contour>
    </TTGlyph>
    <TTGlyph name="Eth" xMin="18" yMin="0" xMax="627" yMax="667">
      <contour>
        <pt x="362" y="667" on="1"/>
        <pt x="488" y="667" on="0"/>
        <pt x="534" y="641" on="1"/>
        <pt x="626" y="589" on="0"/>
        <pt x="626" y="438" on="1"/>
        <pt x="626" y="390" on="0"/>
        <pt x="617" y="333" on="1"/>
        <pt x="600" y="225" on="0"/>
        <pt x="511" y="61" on="0"/>
        <pt x="438" y="27" on="1"/>
        <pt x="379" y="0" on="0"/>
        <pt x="257" y="0" on="1"/>
        <pt x="69" y="0" on="1"/>
        <pt x="113" y="280" on="1"/>
        <pt x="18" y="280" on="1"/>
        <pt x="36" y="392" on="1"/>
        <pt x="131" y="392" on="1"/>
        <pt x="174" y="667" on="1"/>
      </contour>
      <contour>
        <pt x="283" y="129" on="1"/>
        <pt x="382" y="129" on="0"/>
        <pt x="423" y="184" on="1"/>
        <pt x="460" y="234" on="0"/>
        <pt x="475" y="334" on="1"/>
        <pt x="482" y="378" on="0"/>
        <pt x="482" y="460" on="0"/>
        <pt x="468" y="489" on="1"/>
        <pt x="444" y="538" on="0"/>
        <pt x="348" y="538" on="1"/>
        <pt x="298" y="538" on="1"/>
        <pt x="275" y="392" on="1"/>
        <pt x="390" y="392" on="1"/>
        <pt x="372" y="280" on="1"/>
        <pt x="257" y="280" on="1"/>
        <pt x="233" y="129" on="1"/>
      </contour>
    </TTGlyph>
    <TTGlyph name="Euro" xMin="21" yMin="-13" xMax="608" yMax="679">
      <contour>
        <pt x="101" y="301" on="1"/>
        <pt x="105" y="341" on="0"/>
        <pt x="113" y="377" on="1"/>
        <pt x="45" y="377" on="1"/>
        <pt x="57" y="451" on="1"/>
        <pt x="136" y="451" on="1"/>
        <pt x="167" y="533" on="0"/>
        <pt x="277" y="639" on="0"/>
        <pt x="394" y="679" on="0"/>
        <pt x="535" y="679" on="0"/>
        <pt x="608" y="657" on="1"/>
        <pt x="568" y="554" on="1"/>
        <pt x="513" y="565" on="0"/>
        <pt x="464" y="565" on="1"/>
        <pt x="337" y="565" on="0"/>
        <pt x="285" y="451" on="1"/>
        <pt x="431" y="451" on="1"/>
        <pt x="419" y="377" on="1"/>
        <pt x="260" y="377" on="1"/>
        <pt x="257" y="365" on="0"/>
        <pt x="249" y="308" on="0"/>
        <pt x="248" y="301" on="1"/>
        <pt x="407" y="301" on="1"/>
        <pt x="395" y="227" on="1"/>
        <pt x="248" y="227" on="1"/>
        <pt x="265" y="106" on="0"/>
        <pt x="397" y="106" on="1"/>
        <pt x="457" y="106" on="0"/>
        <pt x="506" y="114" on="1"/>
        <pt x="497" y="5" on="1"/>
        <pt x="417" y="-13" on="0"/>
        <pt x="340" y="-13" on="1"/>
        <pt x="234" y="-13" on="0"/>
        <pt x="101" y="100" on="0"/>
        <pt x="97" y="227" on="1"/>
        <pt x="21" y="227" on="1"/>
        <pt x="33" y="301" on="1"/>
      </contour>
    </TTGlyph>
    <TTGlyph name="F" xMin="18" yMin="0" xMax="544" yMax="668">
      <contour>
        <pt x="526" y="553" on="1"/>
        <pt x="250" y="553" on="1"/>
        <pt x="226" y="402" on="1"/>
        <pt x="478" y="402" on="1"/>
        <pt x="460" y="290" on="1"/>
        <pt x="208" y="290" on="1"/>
        <pt x="163" y="0" on="1"/>
        <pt x="18" y="0" on="1"/>
        <pt x="123" y="668" on="1"/>
        <pt x="544" y="668" on="1"/>
      </contour>
    </TTGlyph>
    <TTGlyph name="G" xMin="37" yMin="-13" xMax="569" yMax="679">
      <contour>
        <pt x="234" y="645" on="0"/>
        <pt x="340" y="679" on="0"/>
        <pt x="479" y="679" on="0"/>
        <pt x="569" y="653" on="1"/>
        <pt x="531" y="549" on="1"/>
        <pt x="467" y="565" on="0"/>
        <pt x="321" y="565" on="0"/>
        <pt x="211" y="464" on="0"/>
        <pt x="191" y="339" on="1"/>
        <pt x="184" y="294" on="0"/>
        <pt x="184" y="258" on="1"/>
        <pt x="184" y="106" on="0"/>
        <pt x="309" y="106" on="1"/>
        <pt x="340" y="106" on="0"/>
        <pt x="375" y="112" on="1"/>
        <pt x="395" y="236" on="1"/>
        <pt x="301" y="236" on="1"/>
        <pt x="318" y="341" on="1"/>
        <pt x="543" y="341" on="1"/>
        <pt x="493" y="31" on="1"/>
        <pt x="377" y="-13" on="0"/>
        <pt x="148" y="-13" on="0"/>
        <pt x="84" y="70" on="1"/>
        <pt x="37" y="131" on="0"/>
        <pt x="37" y="242" on="1"/>
        <pt x="37" y="285" on="0"/>
        <pt x="59" y="431" on="0"/>
        <pt x="133" y="570" on="0"/>
      </contour>
    </TTGlyph>
    <TTGlyph name="H" xMin="18" yMin="0" xMax="628" yMax="668">
      <contour>
        <pt x="443" y="404" on="1"/>
        <pt x="485" y="668" on="1"/>
        <pt x="628" y="668" on="1"/>
        <pt x="523" y="0" on="1"/>
        <pt x="380" y="0" on="1"/>
        <pt x="425" y="288" on="1"/>
        <pt x="206" y="288" on="1"/>
        <pt x="161" y="0" on="1"/>
        <pt x="18" y="0" on="1"/>
        <pt x="123" y="668" on="1"/>
        <pt x="266" y="668" on="1"/>
        <pt x="224" y="404" on="1"/>
      </contour>
    </TTGlyph>
    <TTGlyph name="I" xMin="18" yMin="0" xMax="267" yMax="668">
      <contour>
        <pt x="267" y="668" on="1"/>
        <pt x="162" y="0" on="1"/>
        <pt x="18" y="0" on="1"/>
        <pt x="123" y="668" on="1"/>
      </contour>
    </TTGlyph>
    <TTGlyph name="Iacute" xMin="18" yMin="0" xMax="367" yMax="922">
      <contour>
        <pt x="267" y="668" on="1"/>
        <pt x="162" y="0" on="1"/>
        <pt x="18" y="0" on="1"/>
        <pt x="123" y="668" on="1"/>
      </contour>
      <contour>
        <pt x="367" y="811" on="1"/>
        <pt x="150" y="735" on="1"/>
        <pt x="129" y="813" on="1"/>
        <pt x="335" y="922" on="1"/>
      </contour>
    </TTGlyph>
    <TTGlyph name="Icircumflex" xMin="18" yMin="0" xMax="355" yMax="882">
      <contour>
        <pt x="267" y="668" on="1"/>
        <pt x="162" y="0" on="1"/>
        <pt x="18" y="0" on="1"/>
        <pt x="123" y="668" on="1"/>
      </contour>
      <contour>
        <pt x="213" y="796" on="1"/>
        <pt x="115" y="711" on="1"/>
        <pt x="59" y="763" on="1"/>
        <pt x="189" y="882" on="1"/>
        <pt x="263" y="882" on="1"/>
        <pt x="355" y="763" on="1"/>
        <pt x="283" y="711" on="1"/>
      </contour>
    </TTGlyph>
    <TTGlyph name="Idieresis" xMin="18" yMin="0" xMax="365" yMax="854">
      <contour>
        <pt x="267" y="668" on="1"/>
        <pt x="162" y="0" on="1"/>
        <pt x="18" y="0" on="1"/>
        <pt x="123" y="668" on="1"/>
      </contour>
      <contour>
        <pt x="92" y="854" on="0"/>
        <pt x="151" y="854" on="0"/>
        <pt x="181" y="819" on="0"/>
        <pt x="181" y="792" on="0"/>
        <pt x="180" y="786" on="1"/>
        <pt x="176" y="756" on="0"/>
        <pt x="129" y="715" on="0"/>
        <pt x="70" y="715" on="0"/>
        <pt x="41" y="751" on="0"/>
        <pt x="41" y="765" on="1"/>
        <pt x="41" y="809" on="0"/>
      </contour>
      <contour>
        <pt x="277" y="854" on="0"/>
        <pt x="335" y="854" on="0"/>
        <pt x="365" y="818" on="0"/>
        <pt x="365" y="797" on="1"/>
        <pt x="365" y="760" on="0"/>
        <pt x="313" y="715" on="0"/>
        <pt x="255" y="715" on="0"/>
        <pt x="225" y="751" on="0"/>
        <pt x="225" y="765" on="1"/>
        <pt x="225" y="809" on="0"/>
      </contour>
    </TTGlyph>
    <TTGlyph name="Igrave" xMin="18" yMin="0" xMax="298" yMax="919">
      <contour>
        <pt x="267" y="668" on="1"/>
        <pt x="162" y="0" on="1"/>
        <pt x="18" y="0" on="1"/>
        <pt x="123" y="668" on="1"/>
      </contour>
      <contour>
        <pt x="251" y="732" on="1"/>
        <pt x="60" y="808" on="1"/>
        <pt x="126" y="919" on="1"/>
        <pt x="298" y="810" on="1"/>
      </contour>
    </TTGlyph>
    <TTGlyph name="J" xMin="-118" yMin="-186" xMax="267" yMax="668">
      <contour>
        <pt x="-72" y="-186" on="1"/>
        <pt x="-118" y="-91" on="1"/>
        <pt x="-37" y="-49" on="0"/>
        <pt x="25" y="41" on="0"/>
        <pt x="38" y="121" on="1"/>
        <pt x="124" y="668" on="1"/>
        <pt x="267" y="668" on="1"/>
        <pt x="181" y="123" on="1"/>
        <pt x="164" y="14" on="0"/>
        <pt x="49" y="-135" on="0"/>
      </contour>
    </TTGlyph>
    <TTGlyph name="K" xMin="18" yMin="0" xMax="653" yMax="668">
      <contour>
        <pt x="238" y="341" on="1"/>
        <pt x="483" y="668" on="1"/>
        <pt x="653" y="668" on="1"/>
        <pt x="395" y="346" on="1"/>
        <pt x="592" y="0" on="1"/>
        <pt x="417" y="0" on="1"/>
      </contour>
      <contour>
        <pt x="267" y="668" on="1"/>
        <pt x="162" y="0" on="1"/>
        <pt x="18" y="0" on="1"/>
        <pt x="123" y="668" on="1"/>
      </contour>
    </TTGlyph>
    <TTGlyph name="L" xMin="18" yMin="0" xMax="436" yMax="668">
      <contour>
        <pt x="181" y="116" on="1"/>
        <pt x="436" y="116" on="1"/>
        <pt x="418" y="0" on="1"/>
        <pt x="18" y="0" on="1"/>
        <pt x="123" y="668" on="1"/>
        <pt x="268" y="668" on="1"/>
      </contour>
    </TTGlyph>
    <TTGlyph name="Lslash" xMin="8" yMin="0" xMax="472" yMax="668">
      <contour>
        <pt x="427" y="383" on="1"/>
        <pt x="410" y="274" on="1"/>
        <pt x="242" y="274" on="1"/>
        <pt x="217" y="116" on="1"/>
        <pt x="472" y="116" on="1"/>
        <pt x="454" y="0" on="1"/>
        <pt x="54" y="0" on="1"/>
        <pt x="97" y="274" on="1"/>
        <pt x="8" y="274" on="1"/>
        <pt x="25" y="383" on="1"/>
        <pt x="114" y="383" on="1"/>
        <pt x="159" y="668" on="1"/>
        <pt x="304" y="668" on="1"/>
        <pt x="259" y="383" on="1"/>
      </contour>
    </TTGlyph>
    <TTGlyph name="M" xMin="0" yMin="0" xMax="745" yMax="668">
      <contour>
        <pt x="405" y="85" on="1"/>
        <pt x="300" y="85" on="1"/>
        <pt x="224" y="479" on="1"/>
        <pt x="133" y="0" on="1"/>
        <pt x="0" y="0" on="1"/>
        <pt x="144" y="668" on="1"/>
        <pt x="300" y="668" on="1"/>
        <pt x="376" y="238" on="1"/>
        <pt x="589" y="668" on="1"/>
        <pt x="745" y="668" on="1"/>
        <pt x="679" y="0" on="1"/>
        <pt x="545" y="0" on="1"/>
        <pt x="604" y="478" on="1"/>
      </contour>
    </TTGlyph>
    <TTGlyph name="N" xMin="18" yMin="0" xMax="677" yMax="668">
      <contour>
        <pt x="572" y="0" on="1"/>
        <pt x="420" y="0" on="1"/>
        <pt x="230" y="467" on="1"/>
        <pt x="157" y="0" on="1"/>
        <pt x="18" y="0" on="1"/>
        <pt x="123" y="668" on="1"/>
        <pt x="275" y="668" on="1"/>
        <pt x="463" y="200" on="1"/>
        <pt x="537" y="668" on="1"/>
        <pt x="677" y="668" on="1"/>
      </contour>
    </TTGlyph>
    <TTGlyph name="Ntilde" xMin="18" yMin="0" xMax="677" yMax="871">
      <contour>
        <pt x="572" y="0" on="1"/>
        <pt x="420" y="0" on="1"/>
        <pt x="230" y="467" on="1"/>
        <pt x="157" y="0" on="1"/>
        <pt x="18" y="0" on="1"/>
        <pt x="123" y="668" on="1"/>
        <pt x="275" y="668" on="1"/>
        <pt x="463" y="200" on="1"/>
        <pt x="537" y="668" on="1"/>
        <pt x="677" y="668" on="1"/>
      </contour>
      <contour>
        <pt x="380" y="871" on="0"/>
        <pt x="464" y="828" on="0"/>
        <pt x="509" y="828" on="0"/>
        <pt x="544" y="863" on="1"/>
        <pt x="584" y="809" on="1"/>
        <pt x="561" y="779" on="0"/>
        <pt x="493" y="734" on="0"/>
        <pt x="438" y="734" on="0"/>
        <pt x="357" y="777" on="0"/>
        <pt x="312" y="777" on="0"/>
        <pt x="277" y="742" on="1"/>
        <pt x="237" y="796" on="1"/>
        <pt x="260" y="826" on="0"/>
        <pt x="326" y="871" on="0"/>
      </contour>
    </TTGlyph>
    <TTGlyph name="O" xMin="36" yMin="-12" xMax="594" yMax="680">
      <contour>
        <pt x="179" y="623" on="0"/>
        <pt x="297" y="680" on="0"/>
        <pt x="431" y="680" on="0"/>
        <pt x="520" y="642" on="0"/>
        <pt x="544" y="609" on="1"/>
        <pt x="594" y="541" on="0"/>
        <pt x="594" y="448" on="1"/>
        <pt x="594" y="399" on="0"/>
        <pt x="574" y="264" on="0"/>
        <pt x="529" y="147" on="0"/>
        <pt x="453" y="46" on="0"/>
        <pt x="334" y="-12" on="0"/>
        <pt x="184" y="-12" on="0"/>
        <pt x="84" y="47" on="0"/>
        <pt x="64" y="95" on="1"/>
        <pt x="36" y="162" on="0"/>
        <pt x="36" y="245" on="1"/>
        <pt x="36" y="289" on="0"/>
        <pt x="45" y="334" on="1"/>
        <pt x="67" y="474" on="0"/>
        <pt x="141" y="572" on="1"/>
      </contour>
      <contour>
        <pt x="454" y="439" on="1"/>
        <pt x="454" y="563" on="0"/>
        <pt x="352" y="563" on="1"/>
        <pt x="220" y="563" on="0"/>
        <pt x="184" y="334" on="1"/>
        <pt x="177" y="287" on="0"/>
        <pt x="177" y="202" on="0"/>
        <pt x="188" y="170" on="1"/>
        <pt x="207" y="110" on="0"/>
        <pt x="353" y="110" on="0"/>
        <pt x="430" y="229" on="0"/>
        <pt x="446" y="334" on="1"/>
        <pt x="454" y="392" on="0"/>
      </contour>
    </TTGlyph>
    <TTGlyph name="OE" xMin="36" yMin="-12" xMax="921" yMax="680">
      <contour>
        <pt x="378" y="680" on="1"/>
        <pt x="459" y="680" on="0"/>
        <pt x="516" y="638" on="1"/>
        <pt x="520" y="669" on="1"/>
        <pt x="921" y="669" on="1"/>
        <pt x="903" y="553" on="1"/>
        <pt x="612" y="553" on="1"/>
        <pt x="588" y="402" on="1"/>
        <pt x="863" y="402" on="1"/>
        <pt x="845" y="290" on="1"/>
        <pt x="570" y="290" on="1"/>
        <pt x="543" y="116" on="1"/>
        <pt x="843" y="116" on="1"/>
        <pt x="825" y="0" on="1"/>
        <pt x="415" y="0" on="1"/>
        <pt x="419" y="31" on="1"/>
        <pt x="351" y="-12" on="0"/>
        <pt x="184" y="-12" on="0"/>
        <pt x="84" y="47" on="0"/>
        <pt x="64" y="95" on="1"/>
        <pt x="36" y="162" on="0"/>
        <pt x="36" y="245" on="1"/>
        <pt x="36" y="289" on="0"/>
        <pt x="45" y="334" on="1"/>
        <pt x="67" y="474" on="0"/>
        <pt x="141" y="572" on="1"/>
        <pt x="222" y="680" on="0"/>
      </contour>
      <contour>
        <pt x="454" y="439" on="1"/>
        <pt x="454" y="563" on="0"/>
        <pt x="352" y="563" on="1"/>
        <pt x="220" y="563" on="0"/>
        <pt x="184" y="334" on="1"/>
        <pt x="177" y="287" on="0"/>
        <pt x="177" y="202" on="0"/>
        <pt x="188" y="170" on="1"/>
        <pt x="207" y="110" on="0"/>
        <pt x="353" y="110" on="0"/>
        <pt x="430" y="229" on="0"/>
        <pt x="446" y="334" on="1"/>
        <pt x="454" y="392" on="0"/>
      </contour>
    </TTGlyph>
    <TTGlyph name="Oacute" xMin="36" yMin="-12" xMax="594" yMax="922">
      <contour>
        <pt x="179" y="623" on="0"/>
        <pt x="297" y="680" on="0"/>
        <pt x="431" y="680" on="0"/>
        <pt x="520" y="642" on="0"/>
        <pt x="544" y="609" on="1"/>
        <pt x="594" y="541" on="0"/>
        <pt x="594" y="448" on="1"/>
        <pt x="594" y="399" on="0"/>
        <pt x="574" y="264" on="0"/>
        <pt x="529" y="147" on="0"/>
        <pt x="453" y="46" on="0"/>
        <pt x="334" y="-12" on="0"/>
        <pt x="184" y="-12" on="0"/>
        <pt x="84" y="47" on="0"/>
        <pt x="64" y="95" on="1"/>
        <pt x="36" y="162" on="0"/>
        <pt x="36" y="245" on="1"/>
        <pt x="36" y="289" on="0"/>
        <pt x="45" y="334" on="1"/>
        <pt x="67" y="474" on="0"/>
        <pt x="141" y="572" on="1"/>
      </contour>
      <contour>
        <pt x="454" y="439" on="1"/>
        <pt x="454" y="563" on="0"/>
        <pt x="352" y="563" on="1"/>
        <pt x="220" y="563" on="0"/>
        <pt x="184" y="334" on="1"/>
        <pt x="177" y="287" on="0"/>
        <pt x="177" y="202" on="0"/>
        <pt x="188" y="170" on="1"/>
        <pt x="207" y="110" on="0"/>
        <pt x="353" y="110" on="0"/>
        <pt x="430" y="229" on="0"/>
        <pt x="446" y="334" on="1"/>
        <pt x="454" y="392" on="0"/>
      </contour>
      <contour>
        <pt x="513" y="811" on="1"/>
        <pt x="296" y="735" on="1"/>
        <pt x="275" y="813" on="1"/>
        <pt x="481" y="922" on="1"/>
      </contour>
    </TTGlyph>
    <TTGlyph name="Ocircumflex" xMin="36" yMin="-12" xMax="594" yMax="882">
      <contour>
        <pt x="179" y="623" on="0"/>
        <pt x="297" y="680" on="0"/>
        <pt x="431" y="680" on="0"/>
        <pt x="520" y="642" on="0"/>
        <pt x="544" y="609" on="1"/>
        <pt x="594" y="541" on="0"/>
        <pt x="594" y="448" on="1"/>
        <pt x="594" y="399" on="0"/>
        <pt x="574" y="264" on="0"/>
        <pt x="529" y="147" on="0"/>
        <pt x="453" y="46" on="0"/>
        <pt x="334" y="-12" on="0"/>
        <pt x="184" y="-12" on="0"/>
        <pt x="84" y="47" on="0"/>
        <pt x="64" y="95" on="1"/>
        <pt x="36" y="162" on="0"/>
        <pt x="36" y="245" on="1"/>
        <pt x="36" y="289" on="0"/>
        <pt x="45" y="334" on="1"/>
        <pt x="67" y="474" on="0"/>
        <pt x="141" y="572" on="1"/>
      </contour>
      <contour>
        <pt x="454" y="439" on="1"/>
        <pt x="454" y="563" on="0"/>
        <pt x="352" y="563" on="1"/>
        <pt x="220" y="563" on="0"/>
        <pt x="184" y="334" on="1"/>
        <pt x="177" y="287" on="0"/>
        <pt x="177" y="202" on="0"/>
        <pt x="188" y="170" on="1"/>
        <pt x="207" y="110" on="0"/>
        <pt x="353" y="110" on="0"/>
        <pt x="430" y="229" on="0"/>
        <pt x="446" y="334" on="1"/>
        <pt x="454" y="392" on="0"/>
      </contour>
      <contour>
        <pt x="390" y="796" on="1"/>
        <pt x="292" y="711" on="1"/>
        <pt x="236" y="763" on="1"/>
        <pt x="366" y="882" on="1"/>
        <pt x="440" y="882" on="1"/>
        <pt x="532" y="763" on="1"/>
        <pt x="460" y="711" on="1"/>
      </contour>
    </TTGlyph>
    <TTGlyph name="Odieresis" xMin="36" yMin="-12" xMax="594" yMax="854">
      <contour>
        <pt x="179" y="623" on="0"/>
        <pt x="297" y="680" on="0"/>
        <pt x="431" y="680" on="0"/>
        <pt x="520" y="642" on="0"/>
        <pt x="544" y="609" on="1"/>
        <pt x="594" y="541" on="0"/>
        <pt x="594" y="448" on="1"/>
        <pt x="594" y="399" on="0"/>
        <pt x="574" y="264" on="0"/>
        <pt x="529" y="147" on="0"/>
        <pt x="453" y="46" on="0"/>
        <pt x="334" y="-12" on="0"/>
        <pt x="184" y="-12" on="0"/>
        <pt x="84" y="47" on="0"/>
        <pt x="64" y="95" on="1"/>
        <pt x="36" y="162" on="0"/>
        <pt x="36" y="245" on="1"/>
        <pt x="36" y="289" on="0"/>
        <pt x="45" y="334" on="1"/>
        <pt x="67" y="474" on="0"/>
        <pt x="141" y="572" on="1"/>
      </contour>
      <contour>
        <pt x="454" y="439" on="1"/>
        <pt x="454" y="563" on="0"/>
        <pt x="352" y="563" on="1"/>
        <pt x="220" y="563" on="0"/>
        <pt x="184" y="334" on="1"/>
        <pt x="177" y="287" on="0"/>
        <pt x="177" y="202" on="0"/>
        <pt x="188" y="170" on="1"/>
        <pt x="207" y="110" on="0"/>
        <pt x="353" y="110" on="0"/>
        <pt x="430" y="229" on="0"/>
        <pt x="446" y="334" on="1"/>
        <pt x="454" y="392" on="0"/>
      </contour>
      <contour>
        <pt x="269" y="854" on="0"/>
        <pt x="328" y="854" on="0"/>
        <pt x="358" y="819" on="0"/>
        <pt x="358" y="792" on="0"/>
        <pt x="357" y="786" on="1"/>
        <pt x="353" y="756" on="0"/>
        <pt x="306" y="715" on="0"/>
        <pt x="247" y="715" on="0"/>
        <pt x="218" y="751" on="0"/>
        <pt x="218" y="765" on="1"/>
        <pt x="218" y="809" on="0"/>
      </contour>
      <contour>
        <pt x="454" y="854" on="0"/>
        <pt x="512" y="854" on="0"/>
        <pt x="542" y="818" on="0"/>
        <pt x="542" y="797" on="1"/>
        <pt x="542" y="760" on="0"/>
        <pt x="490" y="715" on="0"/>
        <pt x="432" y="715" on="0"/>
        <pt x="402" y="751" on="0"/>
        <pt x="402" y="765" on="1"/>
        <pt x="402" y="809" on="0"/>
      </contour>
    </TTGlyph>
    <TTGlyph name="Ograve" xMin="36" yMin="-12" xMax="594" yMax="919">
      <contour>
        <pt x="179" y="623" on="0"/>
        <pt x="297" y="680" on="0"/>
        <pt x="431" y="680" on="0"/>
        <pt x="520" y="642" on="0"/>
        <pt x="544" y="609" on="1"/>
        <pt x="594" y="541" on="0"/>
        <pt x="594" y="448" on="1"/>
        <pt x="594" y="399" on="0"/>
        <pt x="574" y="264" on="0"/>
        <pt x="529" y="147" on="0"/>
        <pt x="453" y="46" on="0"/>
        <pt x="334" y="-12" on="0"/>
        <pt x="184" y="-12" on="0"/>
        <pt x="84" y="47" on="0"/>
        <pt x="64" y="95" on="1"/>
        <pt x="36" y="162" on="0"/>
        <pt x="36" y="245" on="1"/>
        <pt x="36" y="289" on="0"/>
        <pt x="45" y="334" on="1"/>
        <pt x="67" y="474" on="0"/>
        <pt x="141" y="572" on="1"/>
      </contour>
      <contour>
        <pt x="454" y="439" on="1"/>
        <pt x="454" y="563" on="0"/>
        <pt x="352" y="563" on="1"/>
        <pt x="220" y="563" on="0"/>
        <pt x="184" y="334" on="1"/>
        <pt x="177" y="287" on="0"/>
        <pt x="177" y="202" on="0"/>
        <pt x="188" y="170" on="1"/>
        <pt x="207" y="110" on="0"/>
        <pt x="353" y="110" on="0"/>
        <pt x="430" y="229" on="0"/>
        <pt x="446" y="334" on="1"/>
        <pt x="454" y="392" on="0"/>
      </contour>
      <contour>
        <pt x="454" y="732" on="1"/>
        <pt x="263" y="808" on="1"/>
        <pt x="329" y="919" on="1"/>
        <pt x="501" y="810" on="1"/>
      </contour>
    </TTGlyph>
    <TTGlyph name="Oslash" xMin="9" yMin="-110" xMax="595" yMax="778">
      <contour>
        <pt x="552" y="206" on="1"/>
        <pt x="468" y="-12" on="0"/>
        <pt x="259" y="-12" on="1"/>
        <pt x="208" y="-12" on="0"/>
        <pt x="171" y="0" on="1"/>
        <pt x="108" y="-110" on="1"/>
        <pt x="9" y="-74" on="1"/>
        <pt x="85" y="59" on="1"/>
        <pt x="37" y="121" on="0"/>
        <pt x="37" y="233" on="1"/>
        <pt x="37" y="434" on="0"/>
        <pt x="141" y="572" on="1"/>
        <pt x="179" y="623" on="0"/>
        <pt x="297" y="680" on="0"/>
        <pt x="371" y="680" on="1"/>
        <pt x="409" y="680" on="0"/>
        <pt x="437" y="673" on="1"/>
        <pt x="497" y="778" on="1"/>
        <pt x="594" y="740" on="1"/>
        <pt x="529" y="626" on="1"/>
        <pt x="594" y="564" on="0"/>
        <pt x="594" y="317" on="0"/>
      </contour>
      <contour>
        <pt x="280" y="110" on="1"/>
        <pt x="353" y="110" on="0"/>
        <pt x="430" y="229" on="0"/>
        <pt x="446" y="334" on="1"/>
        <pt x="455" y="385" on="0"/>
        <pt x="455" y="459" on="0"/>
        <pt x="448" y="486" on="1"/>
        <pt x="237" y="117" on="1"/>
        <pt x="254" y="110" on="0"/>
      </contour>
      <contour>
        <pt x="184" y="334" on="1"/>
        <pt x="176" y="282" on="0"/>
        <pt x="176" y="231" on="0"/>
        <pt x="177" y="220" on="1"/>
        <pt x="372" y="561" on="1"/>
        <pt x="360" y="563" on="0"/>
        <pt x="352" y="563" on="1"/>
        <pt x="220" y="563" on="0"/>
      </contour>
    </TTGlyph>
    <TTGlyph name="Otilde" xMin="36" yMin="-12" xMax="594" yMax="868">
      <contour>
        <pt x="179" y="623" on="0"/>
        <pt x="297" y="680" on="0"/>
        <pt x="431" y="680" on="0"/>
        <pt x="520" y="642" on="0"/>
        <pt x="544" y="609" on="1"/>
        <pt x="594" y="541" on="0"/>
        <pt x="594" y="448" on="1"/>
        <pt x="594" y="399" on="0"/>
        <pt x="574" y="264" on="0"/>
        <pt x="529" y="147" on="0"/>
        <pt x="453" y="46" on="0"/>
        <pt x="334" y="-12" on="0"/>
        <pt x="184" y="-12" on="0"/>
        <pt x="84" y="47" on="0"/>
        <pt x="64" y="95" on="1"/>
        <pt x="36" y="162" on="0"/>
        <pt x="36" y="245" on="1"/>
        <pt x="36" y="289" on="0"/>
        <pt x="45" y="334" on="1"/>
        <pt x="67" y="474" on="0"/>
        <pt x="141" y="572" on="1"/>
      </contour>
      <contour>
        <pt x="454" y="439" on="1"/>
        <pt x="454" y="563" on="0"/>
        <pt x="352" y="563" on="1"/>
        <pt x="220" y="563" on="0"/>
        <pt x="184" y="334" on="1"/>
        <pt x="177" y="287" on="0"/>
        <pt x="177" y="202" on="0"/>
        <pt x="188" y="170" on="1"/>
        <pt x="207" y="110" on="0"/>
        <pt x="353" y="110" on="0"/>
        <pt x="430" y="229" on="0"/>
        <pt x="446" y="334" on="1"/>
        <pt x="454" y="392" on="0"/>
      </contour>
      <contour>
        <pt x="356" y="868" on="0"/>
        <pt x="440" y="825" on="0"/>
        <pt x="485" y="825" on="0"/>
        <pt x="520" y="860" on="1"/>
        <pt x="560" y="806" on="1"/>
        <pt x="537" y="776" on="0"/>
        <pt x="469" y="731" on="0"/>
        <pt x="414" y="731" on="0"/>
        <pt x="333" y="774" on="0"/>
        <pt x="288" y="774" on="0"/>
        <pt x="253" y="739" on="1"/>
        <pt x="213" y="793" on="1"/>
        <pt x="236" y="823" on="0"/>
        <pt x="302" y="868" on="0"/>
      </contour>
    </TTGlyph>
    <TTGlyph name="P" xMin="18" yMin="0" xMax="550" yMax="668">
      <contour>
        <pt x="550" y="500" on="1"/>
        <pt x="550" y="482" on="0"/>
        <pt x="547" y="462" on="1"/>
        <pt x="520" y="293" on="0"/>
        <pt x="360" y="256" on="1"/>
        <pt x="309" y="244" on="0"/>
        <pt x="225" y="244" on="1"/>
        <pt x="200" y="244" on="1"/>
        <pt x="162" y="0" on="1"/>
        <pt x="18" y="0" on="1"/>
        <pt x="123" y="668" on="1"/>
        <pt x="316" y="668" on="1"/>
        <pt x="392" y="668" on="0"/>
        <pt x="479" y="642" on="0"/>
        <pt x="509" y="610" on="1"/>
        <pt x="550" y="567" on="0"/>
      </contour>
      <contour>
        <pt x="408" y="485" on="1"/>
        <pt x="408" y="525" on="0"/>
        <pt x="354" y="562" on="0"/>
        <pt x="277" y="562" on="1"/>
        <pt x="251" y="562" on="1"/>
        <pt x="217" y="350" on="1"/>
        <pt x="228" y="350" on="1"/>
        <pt x="328" y="350" on="0"/>
        <pt x="358" y="371" on="1"/>
        <pt x="396" y="394" on="0"/>
        <pt x="405" y="453" on="1"/>
        <pt x="408" y="470" on="0"/>
      </contour>
    </TTGlyph>
    <TTGlyph name="Q" xMin="36" yMin="-137" xMax="620" yMax="680">
      <contour>
        <pt x="88" y="48" on="0"/>
        <pt x="46" y="144" on="0"/>
        <pt x="37" y="228" on="0"/>
        <pt x="37" y="291" on="0"/>
        <pt x="45" y="334" on="1"/>
        <pt x="67" y="474" on="0"/>
        <pt x="141" y="572" on="1"/>
        <pt x="179" y="623" on="0"/>
        <pt x="297" y="680" on="0"/>
        <pt x="431" y="680" on="0"/>
        <pt x="520" y="642" on="0"/>
        <pt x="544" y="609" on="1"/>
        <pt x="594" y="541" on="0"/>
        <pt x="594" y="448" on="1"/>
        <pt x="594" y="399" on="0"/>
        <pt x="585" y="334" on="1"/>
        <pt x="551" y="116" on="0"/>
        <pt x="420" y="33" on="1"/>
        <pt x="531" y="20" on="0"/>
        <pt x="620" y="-39" on="1"/>
        <pt x="533" y="-137" on="1"/>
        <pt x="526" y="-127" on="0"/>
        <pt x="467" y="-83" on="0"/>
        <pt x="438" y="-68" on="1"/>
        <pt x="365" y="-28" on="0"/>
        <pt x="259" y="-10" on="1"/>
        <pt x="187" y="-10" on="0"/>
      </contour>
      <contour>
        <pt x="277" y="94" on="1"/>
        <pt x="408" y="94" on="0"/>
        <pt x="446" y="334" on="1"/>
        <pt x="454" y="384" on="0"/>
        <pt x="454" y="423" on="1"/>
        <pt x="454" y="563" on="0"/>
        <pt x="352" y="563" on="1"/>
        <pt x="220" y="563" on="0"/>
        <pt x="184" y="334" on="1"/>
        <pt x="175" y="280" on="0"/>
        <pt x="175" y="238" on="1"/>
        <pt x="175" y="94" on="0"/>
      </contour>
    </TTGlyph>
    <TTGlyph name="R" xMin="18" yMin="-33" xMax="550" yMax="668">
      <contour>
        <pt x="225" y="244" on="1"/>
        <pt x="200" y="244" on="1"/>
        <pt x="162" y="0" on="1"/>
        <pt x="18" y="0" on="1"/>
        <pt x="123" y="668" on="1"/>
        <pt x="316" y="668" on="1"/>
        <pt x="392" y="668" on="0"/>
        <pt x="479" y="642" on="0"/>
        <pt x="509" y="610" on="1"/>
        <pt x="550" y="567" on="0"/>
        <pt x="550" y="500" on="1"/>
        <pt x="550" y="482" on="0"/>
        <pt x="547" y="462" on="1"/>
        <pt x="528" y="347" on="0"/>
        <pt x="452" y="296" on="1"/>
        <pt x="426" y="277" on="0"/>
        <pt x="394" y="266" on="1"/>
        <pt x="528" y="33" on="1"/>
        <pt x="409" y="-33" on="1"/>
        <pt x="255" y="245" on="1"/>
        <pt x="246" y="244" on="0"/>
      </contour>
      <contour>
        <pt x="408" y="481" on="1"/>
        <pt x="408" y="515" on="0"/>
        <pt x="391" y="534" on="1"/>
        <pt x="367" y="562" on="0"/>
        <pt x="277" y="562" on="1"/>
        <pt x="251" y="562" on="1"/>
        <pt x="217" y="350" on="1"/>
        <pt x="228" y="350" on="1"/>
        <pt x="328" y="350" on="0"/>
        <pt x="358" y="371" on="1"/>
        <pt x="408" y="402" on="0"/>
      </contour>
    </TTGlyph>
    <TTGlyph name="S" xMin="-11" yMin="-13" xMax="501" yMax="681">
      <contour>
        <pt x="197" y="-13" on="1"/>
        <pt x="147" y="-13" on="0"/>
        <pt x="27" y="13" on="0"/>
        <pt x="-11" y="33" on="1"/>
        <pt x="45" y="152" on="1"/>
        <pt x="129" y="110" on="0"/>
        <pt x="305" y="110" on="0"/>
        <pt x="316" y="182" on="1"/>
        <pt x="317" y="188" on="0"/>
        <pt x="317" y="194" on="1"/>
        <pt x="317" y="222" on="0"/>
        <pt x="268" y="267" on="0"/>
        <pt x="170" y="316" on="0"/>
        <pt x="129" y="342" on="0"/>
        <pt x="82" y="390" on="0"/>
        <pt x="72" y="439" on="0"/>
        <pt x="72" y="458" on="1"/>
        <pt x="72" y="571" on="0"/>
        <pt x="157" y="632" on="1"/>
        <pt x="225" y="681" on="0"/>
        <pt x="404" y="681" on="0"/>
        <pt x="501" y="643" on="1"/>
        <pt x="444" y="534" on="1"/>
        <pt x="368" y="563" on="0"/>
        <pt x="309" y="563" on="1"/>
        <pt x="226" y="563" on="0"/>
        <pt x="214" y="497" on="1"/>
        <pt x="210" y="470" on="0"/>
        <pt x="242" y="442" on="0"/>
        <pt x="256" y="432" on="0"/>
        <pt x="301" y="407" on="0"/>
        <pt x="339" y="384" on="0"/>
        <pt x="371" y="363" on="0"/>
        <pt x="422" y="319" on="0"/>
        <pt x="434" y="300" on="1"/>
        <pt x="458" y="260" on="0"/>
        <pt x="458" y="213" on="1"/>
        <pt x="458" y="200" on="0"/>
        <pt x="456" y="187" on="1"/>
        <pt x="442" y="98" on="0"/>
        <pt x="301" y="-13" on="0"/>
      </contour>
    </TTGlyph>
    <TTGlyph name="Scaron" xMin="-11" yMin="-13" xMax="501" yMax="896">
      <contour>
        <pt x="197" y="-13" on="1"/>
        <pt x="147" y="-13" on="0"/>
        <pt x="27" y="13" on="0"/>
        <pt x="-11" y="33" on="1"/>
        <pt x="45" y="152" on="1"/>
        <pt x="129" y="110" on="0"/>
        <pt x="305" y="110" on="0"/>
        <pt x="316" y="182" on="1"/>
        <pt x="317" y="188" on="0"/>
        <pt x="317" y="194" on="1"/>
        <pt x="317" y="222" on="0"/>
        <pt x="268" y="267" on="0"/>
        <pt x="170" y="316" on="0"/>
        <pt x="129" y="342" on="0"/>
        <pt x="82" y="390" on="0"/>
        <pt x="72" y="439" on="0"/>
        <pt x="72" y="458" on="1"/>
        <pt x="72" y="571" on="0"/>
        <pt x="157" y="632" on="1"/>
        <pt x="225" y="681" on="0"/>
        <pt x="404" y="681" on="0"/>
        <pt x="501" y="643" on="1"/>
        <pt x="444" y="534" on="1"/>
        <pt x="368" y="563" on="0"/>
        <pt x="309" y="563" on="1"/>
        <pt x="226" y="563" on="0"/>
        <pt x="214" y="497" on="1"/>
        <pt x="210" y="470" on="0"/>
        <pt x="242" y="442" on="0"/>
        <pt x="256" y="432" on="0"/>
        <pt x="301" y="407" on="0"/>
        <pt x="339" y="384" on="0"/>
        <pt x="371" y="363" on="0"/>
        <pt x="422" y="319" on="0"/>
        <pt x="434" y="300" on="1"/>
        <pt x="458" y="260" on="0"/>
        <pt x="458" y="213" on="1"/>
        <pt x="458" y="200" on="0"/>
        <pt x="456" y="187" on="1"/>
        <pt x="442" y="98" on="0"/>
        <pt x="301" y="-13" on="0"/>
      </contour>
      <contour>
        <pt x="248" y="896" on="1"/>
        <pt x="319" y="811" on="1"/>
        <pt x="416" y="896" on="1"/>
        <pt x="472" y="844" on="1"/>
        <pt x="342" y="725" on="1"/>
        <pt x="268" y="725" on="1"/>
        <pt x="176" y="844" on="1"/>
      </contour>
    </TTGlyph>
    <TTGlyph name="T" xMin="51" yMin="0" xMax="564" yMax="668">
      <contour>
        <pt x="225" y="553" on="1"/>
        <pt x="51" y="553" on="1"/>
        <pt x="69" y="668" on="1"/>
        <pt x="564" y="668" on="1"/>
        <pt x="546" y="553" on="1"/>
        <pt x="369" y="553" on="1"/>
        <pt x="282" y="0" on="1"/>
        <pt x="138" y="0" on="1"/>
      </contour>
    </TTGlyph>
    <TTGlyph name="Thorn" xMin="17" yMin="0" xMax="503" yMax="697">
      <contour>
        <pt x="502" y="436" on="1"/>
        <pt x="502" y="416" on="0"/>
        <pt x="499" y="395" on="1"/>
        <pt x="474" y="229" on="0"/>
        <pt x="317" y="194" on="1"/>
        <pt x="265" y="183" on="0"/>
        <pt x="180" y="183" on="1"/>
        <pt x="149" y="183" on="1"/>
        <pt x="121" y="0" on="1"/>
        <pt x="17" y="0" on="1"/>
        <pt x="127" y="697" on="1"/>
        <pt x="231" y="697" on="1"/>
        <pt x="215" y="597" on="1"/>
        <pt x="271" y="597" on="1"/>
        <pt x="348" y="597" on="0"/>
        <pt x="434" y="573" on="0"/>
        <pt x="463" y="542" on="1"/>
        <pt x="502" y="501" on="0"/>
      </contour>
      <contour>
        <pt x="395" y="415" on="1"/>
        <pt x="395" y="451" on="0"/>
        <pt x="376" y="474" on="1"/>
        <pt x="349" y="504" on="0"/>
        <pt x="257" y="504" on="1"/>
        <pt x="200" y="504" on="1"/>
        <pt x="164" y="276" on="1"/>
        <pt x="206" y="276" on="1"/>
        <pt x="304" y="276" on="0"/>
        <pt x="384" y="326" on="0"/>
        <pt x="393" y="390" on="1"/>
        <pt x="395" y="403" on="0"/>
      </contour>
    </TTGlyph>
    <TTGlyph name="U" xMin="45" yMin="-11" xMax="606" yMax="667">
      <contour>
        <pt x="45" y="175" on="1"/>
        <pt x="45" y="208" on="0"/>
        <pt x="51" y="246" on="1"/>
        <pt x="118" y="667" on="1"/>
        <pt x="263" y="667" on="1"/>
        <pt x="197" y="251" on="1"/>
        <pt x="191" y="211" on="0"/>
        <pt x="191" y="152" on="0"/>
        <pt x="199" y="138" on="1"/>
        <pt x="214" y="108" on="0"/>
        <pt x="333" y="108" on="0"/>
        <pt x="358" y="139" on="1"/>
        <pt x="382" y="166" on="0"/>
        <pt x="395" y="251" on="1"/>
        <pt x="461" y="667" on="1"/>
        <pt x="606" y="667" on="1"/>
        <pt x="539" y="246" on="1"/>
        <pt x="522" y="131" on="0"/>
        <pt x="464" y="64" on="1"/>
        <pt x="393" y="-10" on="0"/>
        <pt x="118" y="-12" on="0"/>
        <pt x="69" y="64" on="1"/>
        <pt x="45" y="108" on="0"/>
      </contour>
    </TTGlyph>
    <TTGlyph name="Uacute" xMin="45" yMin="-11" xMax="606" yMax="922">
      <contour>
        <pt x="45" y="175" on="1"/>
        <pt x="45" y="208" on="0"/>
        <pt x="51" y="246" on="1"/>
        <pt x="118" y="667" on="1"/>
        <pt x="263" y="667" on="1"/>
        <pt x="197" y="251" on="1"/>
        <pt x="191" y="211" on="0"/>
        <pt x="191" y="152" on="0"/>
        <pt x="199" y="138" on="1"/>
        <pt x="214" y="108" on="0"/>
        <pt x="333" y="108" on="0"/>
        <pt x="358" y="139" on="1"/>
        <pt x="382" y="166" on="0"/>
        <pt x="395" y="251" on="1"/>
        <pt x="461" y="667" on="1"/>
        <pt x="606" y="667" on="1"/>
        <pt x="539" y="246" on="1"/>
        <pt x="522" y="131" on="0"/>
        <pt x="464" y="64" on="1"/>
        <pt x="393" y="-10" on="0"/>
        <pt x="118" y="-12" on="0"/>
        <pt x="69" y="64" on="1"/>
        <pt x="45" y="108" on="0"/>
      </contour>
      <contour>
        <pt x="522" y="811" on="1"/>
        <pt x="305" y="735" on="1"/>
        <pt x="284" y="813" on="1"/>
        <pt x="490" y="922" on="1"/>
      </contour>
    </TTGlyph>
    <TTGlyph name="Ucircumflex" xMin="45" yMin="-11" xMax="606" yMax="882">
      <contour>
        <pt x="45" y="175" on="1"/>
        <pt x="45" y="208" on="0"/>
        <pt x="51" y="246" on="1"/>
        <pt x="118" y="667" on="1"/>
        <pt x="263" y="667" on="1"/>
        <pt x="197" y="251" on="1"/>
        <pt x="191" y="211" on="0"/>
        <pt x="191" y="152" on="0"/>
        <pt x="199" y="138" on="1"/>
        <pt x="214" y="108" on="0"/>
        <pt x="333" y="108" on="0"/>
        <pt x="358" y="139" on="1"/>
        <pt x="382" y="166" on="0"/>
        <pt x="395" y="251" on="1"/>
        <pt x="461" y="667" on="1"/>
        <pt x="606" y="667" on="1"/>
        <pt x="539" y="246" on="1"/>
        <pt x="522" y="131" on="0"/>
        <pt x="464" y="64" on="1"/>
        <pt x="393" y="-10" on="0"/>
        <pt x="118" y="-12" on="0"/>
        <pt x="69" y="64" on="1"/>
        <pt x="45" y="108" on="0"/>
      </contour>
      <contour>
        <pt x="386" y="796" on="1"/>
        <pt x="288" y="711" on="1"/>
        <pt x="232" y="763" on="1"/>
        <pt x="362" y="882" on="1"/>
        <pt x="436" y="882" on="1"/>
        <pt x="528" y="763" on="1"/>
        <pt x="456" y="711" on="1"/>
      </contour>
    </TTGlyph>
    <TTGlyph name="Udieresis" xMin="45" yMin="-11" xMax="606" yMax="854">
      <contour>
        <pt x="45" y="175" on="1"/>
        <pt x="45" y="208" on="0"/>
        <pt x="51" y="246" on="1"/>
        <pt x="118" y="667" on="1"/>
        <pt x="263" y="667" on="1"/>
        <pt x="197" y="251" on="1"/>
        <pt x="191" y="211" on="0"/>
        <pt x="191" y="152" on="0"/>
        <pt x="199" y="138" on="1"/>
        <pt x="214" y="108" on="0"/>
        <pt x="333" y="108" on="0"/>
        <pt x="358" y="139" on="1"/>
        <pt x="382" y="166" on="0"/>
        <pt x="395" y="251" on="1"/>
        <pt x="461" y="667" on="1"/>
        <pt x="606" y="667" on="1"/>
        <pt x="539" y="246" on="1"/>
        <pt x="522" y="131" on="0"/>
        <pt x="464" y="64" on="1"/>
        <pt x="393" y="-10" on="0"/>
        <pt x="118" y="-12" on="0"/>
        <pt x="69" y="64" on="1"/>
        <pt x="45" y="108" on="0"/>
      </contour>
      <contour>
        <pt x="272" y="854" on="0"/>
        <pt x="331" y="854" on="0"/>
        <pt x="361" y="819" on="0"/>
        <pt x="361" y="792" on="0"/>
        <pt x="360" y="786" on="1"/>
        <pt x="356" y="756" on="0"/>
        <pt x="309" y="715" on="0"/>
        <pt x="250" y="715" on="0"/>
        <pt x="221" y="751" on="0"/>
        <pt x="221" y="765" on="1"/>
        <pt x="221" y="809" on="0"/>
      </contour>
      <contour>
        <pt x="457" y="854" on="0"/>
        <pt x="515" y="854" on="0"/>
        <pt x="545" y="818" on="0"/>
        <pt x="545" y="797" on="1"/>
        <pt x="545" y="760" on="0"/>
        <pt x="493" y="715" on="0"/>
        <pt x="435" y="715" on="0"/>
        <pt x="405" y="751" on="0"/>
        <pt x="405" y="765" on="1"/>
        <pt x="405" y="809" on="0"/>
      </contour>
    </TTGlyph>
    <TTGlyph name="Ugrave" xMin="45" yMin="-11" xMax="606" yMax="919">
      <contour>
        <pt x="45" y="175" on="1"/>
        <pt x="45" y="208" on="0"/>
        <pt x="51" y="246" on="1"/>
        <pt x="118" y="667" on="1"/>
        <pt x="263" y="667" on="1"/>
        <pt x="197" y="251" on="1"/>
        <pt x="191" y="211" on="0"/>
        <pt x="191" y="152" on="0"/>
        <pt x="199" y="138" on="1"/>
        <pt x="214" y="108" on="0"/>
        <pt x="333" y="108" on="0"/>
        <pt x="358" y="139" on="1"/>
        <pt x="382" y="166" on="0"/>
        <pt x="395" y="251" on="1"/>
        <pt x="461" y="667" on="1"/>
        <pt x="606" y="667" on="1"/>
        <pt x="539" y="246" on="1"/>
        <pt x="522" y="131" on="0"/>
        <pt x="464" y="64" on="1"/>
        <pt x="393" y="-10" on="0"/>
        <pt x="118" y="-12" on="0"/>
        <pt x="69" y="64" on="1"/>
        <pt x="45" y="108" on="0"/>
      </contour>
      <contour>
        <pt x="450" y="732" on="1"/>
        <pt x="259" y="808" on="1"/>
        <pt x="325" y="919" on="1"/>
        <pt x="497" y="810" on="1"/>
      </contour>
    </TTGlyph>
    <TTGlyph name="V" xMin="53" yMin="0" xMax="614" yMax="668">
      <contour>
        <pt x="195" y="668" on="1"/>
        <pt x="253" y="160" on="1"/>
        <pt x="293" y="247" on="0"/>
        <pt x="444" y="604" on="0"/>
        <pt x="472" y="668" on="1"/>
        <pt x="614" y="668" on="1"/>
        <pt x="299" y="0" on="1"/>
        <pt x="158" y="0" on="1"/>
        <pt x="53" y="668" on="1"/>
      </contour>
    </TTGlyph>
    <TTGlyph name="W" xMin="57" yMin="0" xMax="818" yMax="668">
      <contour>
        <pt x="395" y="612" on="1"/>
        <pt x="500" y="612" on="1"/>
        <pt x="569" y="164" on="1"/>
        <pt x="685" y="668" on="1"/>
        <pt x="818" y="668" on="1"/>
        <pt x="646" y="0" on="1"/>
        <pt x="496" y="0" on="1"/>
        <pt x="429" y="494" on="1"/>
        <pt x="207" y="0" on="1"/>
        <pt x="57" y="0" on="1"/>
        <pt x="95" y="668" on="1"/>
        <pt x="227" y="668" on="1"/>
        <pt x="183" y="163" on="1"/>
      </contour>
    </TTGlyph>
    <TTGlyph name="X" xMin="-37" yMin="0" xMax="639" yMax="667">
      <contour>
        <pt x="545" y="0" on="1"/>
        <pt x="384" y="0" on="1"/>
        <pt x="287" y="231" on="1"/>
        <pt x="117" y="0" on="1"/>
        <pt x="-37" y="0" on="1"/>
        <pt x="230" y="334" on="1"/>
        <pt x="78" y="667" on="1"/>
        <pt x="232" y="667" on="1"/>
        <pt x="322" y="440" on="1"/>
        <pt x="483" y="667" on="1"/>
        <pt x="639" y="667" on="1"/>
        <pt x="379" y="340" on="1"/>
      </contour>
    </TTGlyph>
    <TTGlyph name="Y" xMin="49" yMin="0" xMax="613" yMax="668">
      <contour>
        <pt x="195" y="668" on="1"/>
        <pt x="286" y="383" on="1"/>
        <pt x="467" y="668" on="1"/>
        <pt x="613" y="668" on="1"/>
        <pt x="339" y="264" on="1"/>
        <pt x="298" y="0" on="1"/>
        <pt x="154" y="0" on="1"/>
        <pt x="195" y="264" on="1"/>
        <pt x="49" y="668" on="1"/>
      </contour>
    </TTGlyph>
    <TTGlyph name="Yacute" xMin="49" yMin="0" xMax="613" yMax="922">
      <contour>
        <pt x="195" y="668" on="1"/>
        <pt x="286" y="383" on="1"/>
        <pt x="467" y="668" on="1"/>
        <pt x="613" y="668" on="1"/>
        <pt x="339" y="264" on="1"/>
        <pt x="298" y="0" on="1"/>
        <pt x="154" y="0" on="1"/>
        <pt x="195" y="264" on="1"/>
        <pt x="49" y="668" on="1"/>
      </contour>
      <contour>
        <pt x="493" y="811" on="1"/>
        <pt x="276" y="735" on="1"/>
        <pt x="255" y="813" on="1"/>
        <pt x="461" y="922" on="1"/>
      </contour>
    </TTGlyph>
    <TTGlyph name="Ydieresis" xMin="49" yMin="0" xMax="613" yMax="854">
      <contour>
        <pt x="195" y="668" on="1"/>
        <pt x="286" y="383" on="1"/>
        <pt x="467" y="668" on="1"/>
        <pt x="613" y="668" on="1"/>
        <pt x="339" y="264" on="1"/>
        <pt x="298" y="0" on="1"/>
        <pt x="154" y="0" on="1"/>
        <pt x="195" y="264" on="1"/>
        <pt x="49" y="668" on="1"/>
      </contour>
      <contour>
        <pt x="233" y="854" on="0"/>
        <pt x="292" y="854" on="0"/>
        <pt x="322" y="819" on="0"/>
        <pt x="322" y="792" on="0"/>
        <pt x="321" y="786" on="1"/>
        <pt x="317" y="756" on="0"/>
        <pt x="270" y="715" on="0"/>
        <pt x="211" y="715" on="0"/>
        <pt x="182" y="751" on="0"/>
        <pt x="182" y="765" on="1"/>
        <pt x="182" y="809" on="0"/>
      </contour>
      <contour>
        <pt x="418" y="854" on="0"/>
        <pt x="476" y="854" on="0"/>
        <pt x="506" y="818" on="0"/>
        <pt x="506" y="797" on="1"/>
        <pt x="506" y="760" on="0"/>
        <pt x="454" y="715" on="0"/>
        <pt x="396" y="715" on="0"/>
        <pt x="366" y="751" on="0"/>
        <pt x="366" y="765" on="1"/>
        <pt x="366" y="809" on="0"/>
      </contour>
    </TTGlyph>
    <TTGlyph name="Z" xMin="-4" yMin="0" xMax="524" yMax="668">
      <contour>
        <pt x="165" y="117" on="1"/>
        <pt x="467" y="117" on="1"/>
        <pt x="449" y="0" on="1"/>
        <pt x="-4" y="0" on="1"/>
        <pt x="-2" y="88" on="1"/>
        <pt x="355" y="552" on="1"/>
        <pt x="88" y="552" on="1"/>
        <pt x="91" y="668" on="1"/>
        <pt x="524" y="668" on="1"/>
        <pt x="519" y="575" on="1"/>
      </contour>
    </TTGlyph>
    <TTGlyph name="Zcaron" xMin="-4" yMin="0" xMax="524" yMax="896">
      <contour>
        <pt x="165" y="117" on="1"/>
        <pt x="467" y="117" on="1"/>
        <pt x="449" y="0" on="1"/>
        <pt x="-4" y="0" on="1"/>
        <pt x="-2" y="88" on="1"/>
        <pt x="355" y="552" on="1"/>
        <pt x="88" y="552" on="1"/>
        <pt x="91" y="668" on="1"/>
        <pt x="524" y="668" on="1"/>
        <pt x="519" y="575" on="1"/>
      </contour>
      <contour>
        <pt x="279" y="896" on="1"/>
        <pt x="350" y="811" on="1"/>
        <pt x="447" y="896" on="1"/>
        <pt x="503" y="844" on="1"/>
        <pt x="373" y="725" on="1"/>
        <pt x="299" y="725" on="1"/>
        <pt x="207" y="844" on="1"/>
      </contour>
    </TTGlyph>
    <TTGlyph name="a" xMin="-8" yMin="-13" xMax="471" yMax="524">
      <contour>
        <pt x="471" y="17" on="1"/>
        <pt x="415" y="-11" on="0"/>
        <pt x="294" y="-11" on="0"/>
        <pt x="273" y="35" on="1"/>
        <pt x="208" y="-13" on="0"/>
        <pt x="119" y="-13" on="1"/>
        <pt x="51" y="-13" on="0"/>
        <pt x="18" y="26" on="1"/>
        <pt x="-8" y="56" on="0"/>
        <pt x="-8" y="102" on="1"/>
        <pt x="-8" y="157" on="0"/>
        <pt x="36" y="227" on="0"/>
        <pt x="79" y="258" on="0"/>
        <pt x="106" y="268" on="1"/>
        <pt x="150" y="284" on="0"/>
        <pt x="260" y="284" on="0"/>
        <pt x="296" y="281" on="1"/>
        <pt x="304" y="330" on="1"/>
        <pt x="306" y="346" on="0"/>
        <pt x="306" y="387" on="0"/>
        <pt x="275" y="412" on="0"/>
        <pt x="174" y="412" on="0"/>
        <pt x="107" y="391" on="1"/>
        <pt x="92" y="479" on="1"/>
        <pt x="133" y="501" on="0"/>
        <pt x="243" y="524" on="0"/>
        <pt x="281" y="524" on="1"/>
        <pt x="383" y="524" on="0"/>
        <pt x="420" y="480" on="1"/>
        <pt x="445" y="450" on="0"/>
        <pt x="445" y="390" on="1"/>
        <pt x="445" y="364" on="0"/>
        <pt x="440" y="332" on="1"/>
        <pt x="407" y="122" on="1"/>
        <pt x="406" y="117" on="0"/>
        <pt x="406" y="113" on="1"/>
        <pt x="406" y="94" on="0"/>
        <pt x="427" y="94" on="1"/>
        <pt x="441" y="94" on="0"/>
        <pt x="465" y="100" on="1"/>
      </contour>
      <contour>
        <pt x="257" y="213" on="0"/>
        <pt x="236" y="213" on="1"/>
        <pt x="125" y="213" on="0"/>
        <pt x="125" y="131" on="1"/>
        <pt x="125" y="80" on="0"/>
        <pt x="182" y="80" on="1"/>
        <pt x="225" y="80" on="0"/>
        <pt x="268" y="106" on="1"/>
        <pt x="285" y="211" on="1"/>
      </contour>
    </TTGlyph>
    <TTGlyph name="a.alt" xMin="20" yMin="-12" xMax="518" yMax="520">
      <contour>
        <pt x="312" y="31" on="1"/>
        <pt x="255" y="-12" on="0"/>
        <pt x="81" y="-12" on="0"/>
        <pt x="44" y="56" on="1"/>
        <pt x="20" y="99" on="0"/>
        <pt x="20" y="155" on="1"/>
        <pt x="20" y="354" on="0"/>
        <pt x="112" y="447" on="1"/>
        <pt x="178" y="514" on="0"/>
        <pt x="269" y="514" on="1"/>
        <pt x="325" y="514" on="0"/>
        <pt x="388" y="485" on="1"/>
        <pt x="402" y="520" on="1"/>
        <pt x="518" y="520" on="1"/>
        <pt x="455" y="122" on="1"/>
        <pt x="454" y="117" on="0"/>
        <pt x="454" y="113" on="1"/>
        <pt x="454" y="94" on="0"/>
        <pt x="473" y="94" on="1"/>
        <pt x="487" y="94" on="0"/>
        <pt x="511" y="100" on="1"/>
        <pt x="516" y="17" on="1"/>
        <pt x="460" y="-11" on="0"/>
        <pt x="331" y="-11" on="0"/>
      </contour>
      <contour>
        <pt x="329" y="407" on="0"/>
        <pt x="286" y="407" on="1"/>
        <pt x="190" y="407" on="0"/>
        <pt x="163" y="242" on="1"/>
        <pt x="158" y="207" on="0"/>
        <pt x="158" y="180" on="1"/>
        <pt x="158" y="83" on="0"/>
        <pt x="228" y="83" on="1"/>
        <pt x="277" y="83" on="0"/>
        <pt x="315" y="110" on="1"/>
        <pt x="360" y="393" on="1"/>
      </contour>
    </TTGlyph>
    <TTGlyph name="aacute" xMin="-8" yMin="-13" xMax="471" yMax="774">
      <contour>
        <pt x="471" y="17" on="1"/>
        <pt x="415" y="-11" on="0"/>
        <pt x="294" y="-11" on="0"/>
        <pt x="273" y="35" on="1"/>
        <pt x="208" y="-13" on="0"/>
        <pt x="119" y="-13" on="1"/>
        <pt x="51" y="-13" on="0"/>
        <pt x="18" y="26" on="1"/>
        <pt x="-8" y="56" on="0"/>
        <pt x="-8" y="102" on="1"/>
        <pt x="-8" y="157" on="0"/>
        <pt x="36" y="227" on="0"/>
        <pt x="79" y="258" on="0"/>
        <pt x="106" y="268" on="1"/>
        <pt x="150" y="284" on="0"/>
        <pt x="260" y="284" on="0"/>
        <pt x="296" y="281" on="1"/>
        <pt x="304" y="330" on="1"/>
        <pt x="306" y="346" on="0"/>
        <pt x="306" y="387" on="0"/>
        <pt x="275" y="412" on="0"/>
        <pt x="174" y="412" on="0"/>
        <pt x="107" y="391" on="1"/>
        <pt x="92" y="479" on="1"/>
        <pt x="133" y="501" on="0"/>
        <pt x="243" y="524" on="0"/>
        <pt x="281" y="524" on="1"/>
        <pt x="383" y="524" on="0"/>
        <pt x="420" y="480" on="1"/>
        <pt x="445" y="450" on="0"/>
        <pt x="445" y="390" on="1"/>
        <pt x="445" y="364" on="0"/>
        <pt x="440" y="332" on="1"/>
        <pt x="407" y="122" on="1"/>
        <pt x="406" y="117" on="0"/>
        <pt x="406" y="113" on="1"/>
        <pt x="406" y="94" on="0"/>
        <pt x="427" y="94" on="1"/>
        <pt x="441" y="94" on="0"/>
        <pt x="465" y="100" on="1"/>
      </contour>
      <contour>
        <pt x="257" y="213" on="0"/>
        <pt x="236" y="213" on="1"/>
        <pt x="125" y="213" on="0"/>
        <pt x="125" y="131" on="1"/>
        <pt x="125" y="80" on="0"/>
        <pt x="182" y="80" on="1"/>
        <pt x="225" y="80" on="0"/>
        <pt x="268" y="106" on="1"/>
        <pt x="285" y="211" on="1"/>
      </contour>
      <contour>
        <pt x="417" y="663" on="1"/>
        <pt x="200" y="587" on="1"/>
        <pt x="179" y="665" on="1"/>
        <pt x="385" y="774" on="1"/>
      </contour>
    </TTGlyph>
    <TTGlyph name="acircumflex" xMin="-8" yMin="-13" xMax="471" yMax="762">
      <contour>
        <pt x="299" y="676" on="1"/>
        <pt x="201" y="591" on="1"/>
        <pt x="145" y="643" on="1"/>
        <pt x="275" y="762" on="1"/>
        <pt x="349" y="762" on="1"/>
        <pt x="441" y="643" on="1"/>
        <pt x="369" y="591" on="1"/>
      </contour>
      <contour>
        <pt x="471" y="17" on="1"/>
        <pt x="415" y="-11" on="0"/>
        <pt x="294" y="-11" on="0"/>
        <pt x="273" y="35" on="1"/>
        <pt x="208" y="-13" on="0"/>
        <pt x="119" y="-13" on="1"/>
        <pt x="51" y="-13" on="0"/>
        <pt x="18" y="26" on="1"/>
        <pt x="-8" y="56" on="0"/>
        <pt x="-8" y="102" on="1"/>
        <pt x="-8" y="157" on="0"/>
        <pt x="36" y="227" on="0"/>
        <pt x="79" y="258" on="0"/>
        <pt x="106" y="268" on="1"/>
        <pt x="150" y="284" on="0"/>
        <pt x="260" y="284" on="0"/>
        <pt x="296" y="281" on="1"/>
        <pt x="304" y="330" on="1"/>
        <pt x="306" y="346" on="0"/>
        <pt x="306" y="387" on="0"/>
        <pt x="275" y="412" on="0"/>
        <pt x="174" y="412" on="0"/>
        <pt x="107" y="391" on="1"/>
        <pt x="92" y="479" on="1"/>
        <pt x="133" y="501" on="0"/>
        <pt x="243" y="524" on="0"/>
        <pt x="281" y="524" on="1"/>
        <pt x="383" y="524" on="0"/>
        <pt x="420" y="480" on="1"/>
        <pt x="445" y="450" on="0"/>
        <pt x="445" y="390" on="1"/>
        <pt x="445" y="364" on="0"/>
        <pt x="440" y="332" on="1"/>
        <pt x="407" y="122" on="1"/>
        <pt x="406" y="117" on="0"/>
        <pt x="406" y="113" on="1"/>
        <pt x="406" y="94" on="0"/>
        <pt x="427" y="94" on="1"/>
        <pt x="441" y="94" on="0"/>
        <pt x="465" y="100" on="1"/>
      </contour>
      <contour>
        <pt x="257" y="213" on="0"/>
        <pt x="236" y="213" on="1"/>
        <pt x="125" y="213" on="0"/>
        <pt x="125" y="131" on="1"/>
        <pt x="125" y="80" on="0"/>
        <pt x="182" y="80" on="1"/>
        <pt x="225" y="80" on="0"/>
        <pt x="268" y="106" on="1"/>
        <pt x="285" y="211" on="1"/>
      </contour>
    </TTGlyph>
    <TTGlyph name="acute" xMin="155" yMin="587" xMax="393" yMax="774">
      <contour>
        <pt x="393" y="663" on="1"/>
        <pt x="176" y="587" on="1"/>
        <pt x="155" y="665" on="1"/>
        <pt x="361" y="774" on="1"/>
      </contour>
    </TTGlyph>
    <TTGlyph name="adieresis" xMin="-8" yMin="-13" xMax="471" yMax="735">
      <contour>
        <pt x="471" y="17" on="1"/>
        <pt x="415" y="-11" on="0"/>
        <pt x="294" y="-11" on="0"/>
        <pt x="273" y="35" on="1"/>
        <pt x="208" y="-13" on="0"/>
        <pt x="119" y="-13" on="1"/>
        <pt x="51" y="-13" on="0"/>
        <pt x="18" y="26" on="1"/>
        <pt x="-8" y="56" on="0"/>
        <pt x="-8" y="102" on="1"/>
        <pt x="-8" y="157" on="0"/>
        <pt x="36" y="227" on="0"/>
        <pt x="79" y="258" on="0"/>
        <pt x="106" y="268" on="1"/>
        <pt x="150" y="284" on="0"/>
        <pt x="260" y="284" on="0"/>
        <pt x="296" y="281" on="1"/>
        <pt x="304" y="330" on="1"/>
        <pt x="306" y="346" on="0"/>
        <pt x="306" y="387" on="0"/>
        <pt x="275" y="412" on="0"/>
        <pt x="174" y="412" on="0"/>
        <pt x="107" y="391" on="1"/>
        <pt x="92" y="479" on="1"/>
        <pt x="133" y="501" on="0"/>
        <pt x="243" y="524" on="0"/>
        <pt x="281" y="524" on="1"/>
        <pt x="383" y="524" on="0"/>
        <pt x="420" y="480" on="1"/>
        <pt x="445" y="450" on="0"/>
        <pt x="445" y="390" on="1"/>
        <pt x="445" y="364" on="0"/>
        <pt x="440" y="332" on="1"/>
        <pt x="407" y="122" on="1"/>
        <pt x="406" y="117" on="0"/>
        <pt x="406" y="113" on="1"/>
        <pt x="406" y="94" on="0"/>
        <pt x="427" y="94" on="1"/>
        <pt x="441" y="94" on="0"/>
        <pt x="465" y="100" on="1"/>
      </contour>
      <contour>
        <pt x="257" y="213" on="0"/>
        <pt x="236" y="213" on="1"/>
        <pt x="125" y="213" on="0"/>
        <pt x="125" y="131" on="1"/>
        <pt x="125" y="80" on="0"/>
        <pt x="182" y="80" on="1"/>
        <pt x="225" y="80" on="0"/>
        <pt x="268" y="106" on="1"/>
        <pt x="285" y="211" on="1"/>
      </contour>
      <contour>
        <pt x="195" y="735" on="0"/>
        <pt x="254" y="735" on="0"/>
        <pt x="284" y="700" on="0"/>
        <pt x="284" y="673" on="0"/>
        <pt x="283" y="667" on="1"/>
        <pt x="279" y="637" on="0"/>
        <pt x="232" y="596" on="0"/>
        <pt x="173" y="596" on="0"/>
        <pt x="144" y="632" on="0"/>
        <pt x="144" y="646" on="1"/>
        <pt x="144" y="690" on="0"/>
      </contour>
      <contour>
        <pt x="380" y="735" on="0"/>
        <pt x="438" y="735" on="0"/>
        <pt x="468" y="699" on="0"/>
        <pt x="468" y="678" on="1"/>
        <pt x="468" y="641" on="0"/>
        <pt x="416" y="596" on="0"/>
        <pt x="358" y="596" on="0"/>
        <pt x="328" y="632" on="0"/>
        <pt x="328" y="646" on="1"/>
        <pt x="328" y="690" on="0"/>
      </contour>
    </TTGlyph>
    <TTGlyph name="ae" xMin="-8" yMin="-13" xMax="725" yMax="524">
      <contour>
        <pt x="693" y="474" on="1"/>
        <pt x="724" y="438" on="0"/>
        <pt x="724" y="331" on="0"/>
        <pt x="692" y="242" on="1"/>
        <pt x="421" y="242" on="1"/>
        <pt x="417" y="219" on="0"/>
        <pt x="417" y="199" on="1"/>
        <pt x="417" y="153" on="0"/>
        <pt x="438" y="128" on="1"/>
        <pt x="467" y="92" on="0"/>
        <pt x="589" y="92" on="0"/>
        <pt x="654" y="115" on="1"/>
        <pt x="663" y="20" on="1"/>
        <pt x="580" y="-13" on="0"/>
        <pt x="388" y="-13" on="0"/>
        <pt x="338" y="43" on="1"/>
        <pt x="306" y="22" on="0"/>
        <pt x="196" y="-13" on="0"/>
        <pt x="145" y="-13" on="1"/>
        <pt x="61" y="-13" on="0"/>
        <pt x="22" y="26" on="1"/>
        <pt x="-7" y="56" on="0"/>
        <pt x="-7" y="105" on="1"/>
        <pt x="-7" y="157" on="0"/>
        <pt x="36" y="227" on="0"/>
        <pt x="79" y="258" on="0"/>
        <pt x="106" y="268" on="1"/>
        <pt x="150" y="284" on="0"/>
        <pt x="267" y="284" on="0"/>
        <pt x="303" y="281" on="1"/>
        <pt x="311" y="330" on="1"/>
        <pt x="313" y="346" on="0"/>
        <pt x="313" y="387" on="0"/>
        <pt x="282" y="412" on="0"/>
        <pt x="174" y="412" on="0"/>
        <pt x="107" y="391" on="1"/>
        <pt x="92" y="479" on="1"/>
        <pt x="133" y="501" on="0"/>
        <pt x="243" y="524" on="0"/>
        <pt x="337" y="524" on="0"/>
        <pt x="399" y="496" on="0"/>
        <pt x="413" y="457" on="1"/>
        <pt x="470" y="522" on="0"/>
        <pt x="652" y="522" on="0"/>
      </contour>
      <contour>
        <pt x="243" y="213" on="1"/>
        <pt x="126" y="213" on="0"/>
        <pt x="126" y="133" on="1"/>
        <pt x="126" y="108" on="0"/>
        <pt x="160" y="80" on="0"/>
        <pt x="194" y="80" on="1"/>
        <pt x="270" y="80" on="0"/>
        <pt x="311" y="106" on="1"/>
        <pt x="301" y="140" on="0"/>
        <pt x="301" y="198" on="0"/>
        <pt x="302" y="211" on="1"/>
        <pt x="274" y="213" on="0"/>
      </contour>
      <contour>
        <pt x="605" y="318" on="1"/>
        <pt x="609" y="339" on="0"/>
        <pt x="609" y="355" on="1"/>
        <pt x="609" y="423" on="0"/>
        <pt x="548" y="423" on="1"/>
        <pt x="465" y="423" on="0"/>
        <pt x="430" y="318" on="1"/>
      </contour>
    </TTGlyph>
    <TTGlyph name="agrave" xMin="-8" yMin="-13" xMax="471" yMax="774">
      <contour>
        <pt x="471" y="17" on="1"/>
        <pt x="415" y="-11" on="0"/>
        <pt x="294" y="-11" on="0"/>
        <pt x="273" y="35" on="1"/>
        <pt x="208" y="-13" on="0"/>
        <pt x="119" y="-13" on="1"/>
        <pt x="51" y="-13" on="0"/>
        <pt x="18" y="26" on="1"/>
        <pt x="-8" y="56" on="0"/>
        <pt x="-8" y="102" on="1"/>
        <pt x="-8" y="157" on="0"/>
        <pt x="36" y="227" on="0"/>
        <pt x="79" y="258" on="0"/>
        <pt x="106" y="268" on="1"/>
        <pt x="150" y="284" on="0"/>
        <pt x="260" y="284" on="0"/>
        <pt x="296" y="281" on="1"/>
        <pt x="304" y="330" on="1"/>
        <pt x="306" y="346" on="0"/>
        <pt x="306" y="387" on="0"/>
        <pt x="275" y="412" on="0"/>
        <pt x="174" y="412" on="0"/>
        <pt x="107" y="391" on="1"/>
        <pt x="92" y="479" on="1"/>
        <pt x="133" y="501" on="0"/>
        <pt x="243" y="524" on="0"/>
        <pt x="281" y="524" on="1"/>
        <pt x="383" y="524" on="0"/>
        <pt x="420" y="480" on="1"/>
        <pt x="445" y="450" on="0"/>
        <pt x="445" y="390" on="1"/>
        <pt x="445" y="364" on="0"/>
        <pt x="440" y="332" on="1"/>
        <pt x="407" y="122" on="1"/>
        <pt x="406" y="117" on="0"/>
        <pt x="406" y="113" on="1"/>
        <pt x="406" y="94" on="0"/>
        <pt x="427" y="94" on="1"/>
        <pt x="441" y="94" on="0"/>
        <pt x="465" y="100" on="1"/>
      </contour>
      <contour>
        <pt x="257" y="213" on="0"/>
        <pt x="236" y="213" on="1"/>
        <pt x="125" y="213" on="0"/>
        <pt x="125" y="131" on="1"/>
        <pt x="125" y="80" on="0"/>
        <pt x="182" y="80" on="1"/>
        <pt x="225" y="80" on="0"/>
        <pt x="268" y="106" on="1"/>
        <pt x="285" y="211" on="1"/>
      </contour>
      <contour>
        <pt x="365" y="587" on="1"/>
        <pt x="174" y="663" on="1"/>
        <pt x="240" y="774" on="1"/>
        <pt x="412" y="665" on="1"/>
      </contour>
    </TTGlyph>
    <TTGlyph name="ampersand" xMin="16" yMin="-33" xMax="639" yMax="683">
      <contour>
        <pt x="145" y="147" on="0"/>
        <pt x="186" y="95" on="0"/>
        <pt x="306" y="95" on="0"/>
        <pt x="360" y="139" on="1"/>
        <pt x="241" y="314" on="1"/>
        <pt x="204" y="297" on="0"/>
        <pt x="178" y="264" on="1"/>
        <pt x="145" y="221" on="0"/>
      </contour>
      <contour>
        <pt x="16" y="148" on="1"/>
        <pt x="16" y="305" on="0"/>
        <pt x="194" y="390" on="1"/>
        <pt x="149" y="464" on="0"/>
        <pt x="149" y="521" on="1"/>
        <pt x="149" y="532" on="0"/>
        <pt x="151" y="542" on="1"/>
        <pt x="162" y="607" on="0"/>
        <pt x="272" y="683" on="0"/>
        <pt x="424" y="683" on="0"/>
        <pt x="519" y="646" on="1"/>
        <pt x="470" y="549" on="1"/>
        <pt x="400" y="582" on="0"/>
        <pt x="286" y="582" on="0"/>
        <pt x="277" y="530" on="1"/>
        <pt x="276" y="525" on="0"/>
        <pt x="276" y="520" on="1"/>
        <pt x="276" y="486" on="0"/>
        <pt x="311" y="436" on="1"/>
        <pt x="449" y="230" on="1"/>
        <pt x="505" y="314" on="0"/>
        <pt x="531" y="426" on="1"/>
        <pt x="639" y="426" on="1"/>
        <pt x="605" y="259" on="0"/>
        <pt x="506" y="151" on="1"/>
        <pt x="552" y="105" on="0"/>
        <pt x="637" y="60" on="1"/>
        <pt x="569" y="-33" on="1"/>
        <pt x="534" y="-17" on="0"/>
        <pt x="442" y="40" on="0"/>
        <pt x="415" y="65" on="1"/>
        <pt x="328" y="-13" on="0"/>
        <pt x="116" y="-13" on="0"/>
        <pt x="60" y="39" on="1"/>
        <pt x="16" y="79" on="0"/>
      </contour>
    </TTGlyph>
    <TTGlyph name="aring" xMin="-8" yMin="-13" xMax="471" yMax="802">
      <contour>
        <pt x="471" y="17" on="1"/>
        <pt x="415" y="-11" on="0"/>
        <pt x="294" y="-11" on="0"/>
        <pt x="273" y="35" on="1"/>
        <pt x="208" y="-13" on="0"/>
        <pt x="119" y="-13" on="1"/>
        <pt x="51" y="-13" on="0"/>
        <pt x="18" y="26" on="1"/>
        <pt x="-8" y="56" on="0"/>
        <pt x="-8" y="102" on="1"/>
        <pt x="-8" y="157" on="0"/>
        <pt x="36" y="227" on="0"/>
        <pt x="79" y="258" on="0"/>
        <pt x="106" y="268" on="1"/>
        <pt x="150" y="284" on="0"/>
        <pt x="260" y="284" on="0"/>
        <pt x="296" y="281" on="1"/>
        <pt x="304" y="330" on="1"/>
        <pt x="306" y="346" on="0"/>
        <pt x="306" y="387" on="0"/>
        <pt x="275" y="412" on="0"/>
        <pt x="174" y="412" on="0"/>
        <pt x="107" y="391" on="1"/>
        <pt x="92" y="479" on="1"/>
        <pt x="133" y="501" on="0"/>
        <pt x="243" y="524" on="0"/>
        <pt x="281" y="524" on="1"/>
        <pt x="383" y="524" on="0"/>
        <pt x="420" y="480" on="1"/>
        <pt x="445" y="450" on="0"/>
        <pt x="445" y="390" on="1"/>
        <pt x="445" y="364" on="0"/>
        <pt x="440" y="332" on="1"/>
        <pt x="407" y="122" on="1"/>
        <pt x="406" y="117" on="0"/>
        <pt x="406" y="113" on="1"/>
        <pt x="406" y="94" on="0"/>
        <pt x="427" y="94" on="1"/>
        <pt x="441" y="94" on="0"/>
        <pt x="465" y="100" on="1"/>
      </contour>
      <contour>
        <pt x="257" y="213" on="0"/>
        <pt x="236" y="213" on="1"/>
        <pt x="125" y="213" on="0"/>
        <pt x="125" y="131" on="1"/>
        <pt x="125" y="80" on="0"/>
        <pt x="182" y="80" on="1"/>
        <pt x="225" y="80" on="0"/>
        <pt x="268" y="106" on="1"/>
        <pt x="285" y="211" on="1"/>
      </contour>
      <contour>
        <pt x="339" y="597" on="0"/>
        <pt x="239" y="597" on="0"/>
        <pt x="201" y="650" on="0"/>
        <pt x="201" y="680" on="1"/>
        <pt x="201" y="735" on="0"/>
        <pt x="273" y="802" on="0"/>
        <pt x="373" y="802" on="0"/>
        <pt x="411" y="750" on="0"/>
        <pt x="411" y="719" on="1"/>
        <pt x="411" y="666" on="0"/>
      </contour>
      <contour>
        <pt x="343" y="710" on="1"/>
        <pt x="343" y="738" on="0"/>
        <pt x="312" y="738" on="1"/>
        <pt x="277" y="738" on="0"/>
        <pt x="271" y="699" on="1"/>
        <pt x="270" y="694" on="0"/>
        <pt x="270" y="680" on="0"/>
        <pt x="282" y="660" on="0"/>
        <pt x="300" y="660" on="1"/>
        <pt x="336" y="660" on="0"/>
        <pt x="342" y="700" on="1"/>
        <pt x="343" y="705" on="0"/>
      </contour>
    </TTGlyph>
    <TTGlyph name="asciicircum" xMin="74" yMin="295" xMax="516" yMax="643">
      <contour>
        <pt x="305" y="643" on="1"/>
        <pt x="393" y="643" on="1"/>
        <pt x="516" y="295" on="1"/>
        <pt x="394" y="295" on="1"/>
        <pt x="327" y="495" on="1"/>
        <pt x="194" y="295" on="1"/>
        <pt x="74" y="295" on="1"/>
      </contour>
    </TTGlyph>
    <TTGlyph name="asciitilde" xMin="29" yMin="196" xMax="534" yMax="375">
      <contour>
        <pt x="399" y="308" on="1"/>
        <pt x="440" y="308" on="0"/>
        <pt x="480" y="354" on="1"/>
        <pt x="534" y="299" on="1"/>
        <pt x="459" y="196" on="0"/>
        <pt x="374" y="196" on="1"/>
        <pt x="326" y="196" on="0"/>
        <pt x="200" y="262" on="0"/>
        <pt x="123" y="262" on="0"/>
        <pt x="84" y="216" on="1"/>
        <pt x="29" y="271" on="1"/>
        <pt x="105" y="375" on="0"/>
        <pt x="183" y="375" on="1"/>
        <pt x="235" y="375" on="0"/>
        <pt x="305" y="339" on="1"/>
        <pt x="371" y="308" on="0"/>
      </contour>
    </TTGlyph>
    <TTGlyph name="asterisk" xMin="63" yMin="368" xMax="399" yMax="686">
      <contour>
        <pt x="295" y="527" on="1"/>
        <pt x="387" y="489" on="1"/>
        <pt x="323" y="407" on="1"/>
        <pt x="259" y="473" on="1"/>
        <pt x="253" y="368" on="1"/>
        <pt x="158" y="368" on="1"/>
        <pt x="185" y="476" on="1"/>
        <pt x="99" y="407" on="1"/>
        <pt x="63" y="491" on="1"/>
        <pt x="167" y="526" on="1"/>
        <pt x="76" y="562" on="1"/>
        <pt x="136" y="649" on="1"/>
        <pt x="201" y="579" on="1"/>
        <pt x="208" y="686" on="1"/>
        <pt x="302" y="686" on="1"/>
        <pt x="276" y="580" on="1"/>
        <pt x="362" y="648" on="1"/>
        <pt x="399" y="562" on="1"/>
      </contour>
    </TTGlyph>
    <TTGlyph name="at" xMin="26" yMin="-86" xMax="791" yMax="680">
      <contour>
        <pt x="460" y="415" on="1"/>
        <pt x="415" y="415" on="0"/>
        <pt x="343" y="334" on="0"/>
        <pt x="333" y="273" on="1"/>
        <pt x="330" y="256" on="0"/>
        <pt x="330" y="243" on="1"/>
        <pt x="330" y="192" on="0"/>
        <pt x="372" y="192" on="1"/>
        <pt x="398" y="192" on="0"/>
        <pt x="441" y="238" on="0"/>
        <pt x="449" y="273" on="1"/>
        <pt x="482" y="412" on="1"/>
        <pt x="475" y="415" on="0"/>
      </contour>
      <contour>
        <pt x="456" y="-86" on="0"/>
        <pt x="334" y="-86" on="1"/>
        <pt x="174" y="-86" on="0"/>
        <pt x="90" y="4" on="1"/>
        <pt x="27" y="71" on="0"/>
        <pt x="27" y="191" on="1"/>
        <pt x="27" y="232" on="0"/>
        <pt x="34" y="280" on="1"/>
        <pt x="62" y="460" on="0"/>
        <pt x="312" y="680" on="0"/>
        <pt x="499" y="680" on="1"/>
        <pt x="665" y="680" on="0"/>
        <pt x="737" y="594" on="1"/>
        <pt x="791" y="530" on="0"/>
        <pt x="791" y="429" on="1"/>
        <pt x="791" y="396" on="0"/>
        <pt x="785" y="358" on="1"/>
        <pt x="745" y="101" on="0"/>
        <pt x="555" y="101" on="1"/>
        <pt x="526" y="101" on="0"/>
        <pt x="474" y="134" on="0"/>
        <pt x="467" y="159" on="1"/>
        <pt x="445" y="135" on="0"/>
        <pt x="378" y="100" on="0"/>
        <pt x="348" y="100" on="1"/>
        <pt x="280" y="100" on="0"/>
        <pt x="245" y="144" on="1"/>
        <pt x="219" y="177" on="0"/>
        <pt x="219" y="228" on="1"/>
        <pt x="219" y="246" on="0"/>
        <pt x="222" y="266" on="1"/>
        <pt x="238" y="372" on="0"/>
        <pt x="381" y="504" on="0"/>
        <pt x="473" y="504" on="1"/>
        <pt x="533" y="504" on="0"/>
        <pt x="608" y="469" on="1"/>
        <pt x="557" y="261" on="1"/>
        <pt x="551" y="240" on="0"/>
        <pt x="548" y="210" on="0"/>
        <pt x="564" y="194" on="0"/>
        <pt x="588" y="194" on="1"/>
        <pt x="652" y="194" on="0"/>
        <pt x="677" y="359" on="1"/>
        <pt x="681" y="386" on="0"/>
        <pt x="681" y="410" on="1"/>
        <pt x="681" y="479" on="0"/>
        <pt x="646" y="523" on="1"/>
        <pt x="597" y="582" on="0"/>
        <pt x="482" y="582" on="1"/>
        <pt x="346" y="582" on="0"/>
        <pt x="169" y="422" on="0"/>
        <pt x="146" y="282" on="1"/>
        <pt x="139" y="247" on="0"/>
        <pt x="139" y="193" on="0"/>
        <pt x="154" y="125" on="0"/>
        <pt x="192" y="63" on="0"/>
        <pt x="225" y="45" on="1"/>
        <pt x="286" y="12" on="0"/>
        <pt x="448" y="12" on="0"/>
        <pt x="576" y="54" on="1"/>
        <pt x="587" y="-32" on="1"/>
      </contour>
    </TTGlyph>
    <TTGlyph name="atilde" xMin="-8" yMin="-13" xMax="471" yMax="728">
      <contour>
        <pt x="471" y="17" on="1"/>
        <pt x="415" y="-11" on="0"/>
        <pt x="294" y="-11" on="0"/>
        <pt x="273" y="35" on="1"/>
        <pt x="208" y="-13" on="0"/>
        <pt x="119" y="-13" on="1"/>
        <pt x="51" y="-13" on="0"/>
        <pt x="18" y="26" on="1"/>
        <pt x="-8" y="56" on="0"/>
        <pt x="-8" y="102" on="1"/>
        <pt x="-8" y="157" on="0"/>
        <pt x="36" y="227" on="0"/>
        <pt x="79" y="258" on="0"/>
        <pt x="106" y="268" on="1"/>
        <pt x="150" y="284" on="0"/>
        <pt x="260" y="284" on="0"/>
        <pt x="296" y="281" on="1"/>
        <pt x="304" y="330" on="1"/>
        <pt x="306" y="346" on="0"/>
        <pt x="306" y="387" on="0"/>
        <pt x="275" y="412" on="0"/>
        <pt x="174" y="412" on="0"/>
        <pt x="107" y="391" on="1"/>
        <pt x="92" y="479" on="1"/>
        <pt x="133" y="501" on="0"/>
        <pt x="243" y="524" on="0"/>
        <pt x="281" y="524" on="1"/>
        <pt x="383" y="524" on="0"/>
        <pt x="420" y="480" on="1"/>
        <pt x="445" y="450" on="0"/>
        <pt x="445" y="390" on="1"/>
        <pt x="445" y="364" on="0"/>
        <pt x="440" y="332" on="1"/>
        <pt x="407" y="122" on="1"/>
        <pt x="406" y="117" on="0"/>
        <pt x="406" y="113" on="1"/>
        <pt x="406" y="94" on="0"/>
        <pt x="427" y="94" on="1"/>
        <pt x="441" y="94" on="0"/>
        <pt x="465" y="100" on="1"/>
      </contour>
      <contour>
        <pt x="257" y="213" on="0"/>
        <pt x="236" y="213" on="1"/>
        <pt x="125" y="213" on="0"/>
        <pt x="125" y="131" on="1"/>
        <pt x="125" y="80" on="0"/>
        <pt x="182" y="80" on="1"/>
        <pt x="225" y="80" on="0"/>
        <pt x="268" y="106" on="1"/>
        <pt x="285" y="211" on="1"/>
      </contour>
      <contour>
        <pt x="264" y="728" on="0"/>
        <pt x="348" y="685" on="0"/>
        <pt x="393" y="685" on="0"/>
        <pt x="428" y="720" on="1"/>
        <pt x="468" y="666" on="1"/>
        <pt x="445" y="636" on="0"/>
        <pt x="377" y="591" on="0"/>
        <pt x="322" y="591" on="0"/>
        <pt x="241" y="634" on="0"/>
        <pt x="196" y="634" on="0"/>
        <pt x="161" y="599" on="1"/>
        <pt x="121" y="653" on="1"/>
        <pt x="144" y="683" on="0"/>
        <pt x="210" y="728" on="0"/>
      </contour>
    </TTGlyph>
    <TTGlyph name="b" xMin="9" yMin="-13" xMax="512" yMax="701">
      <contour>
        <pt x="222" y="480" on="1"/>
        <pt x="281" y="522" on="0"/>
        <pt x="438" y="522" on="0"/>
        <pt x="481" y="460" on="1"/>
        <pt x="511" y="415" on="0"/>
        <pt x="511" y="345" on="1"/>
        <pt x="511" y="315" on="0"/>
        <pt x="506" y="281" on="1"/>
        <pt x="460" y="-13" on="0"/>
        <pt x="215" y="-13" on="1"/>
        <pt x="160" y="-13" on="0"/>
        <pt x="38" y="8" on="0"/>
        <pt x="9" y="22" on="1"/>
        <pt x="117" y="701" on="1"/>
        <pt x="257" y="701" on="1"/>
      </contour>
      <contour>
        <pt x="189" y="100" on="0"/>
        <pt x="213" y="100" on="1"/>
        <pt x="282" y="100" on="0"/>
        <pt x="350" y="184" on="0"/>
        <pt x="362" y="260" on="1"/>
        <pt x="368" y="297" on="0"/>
        <pt x="368" y="328" on="1"/>
        <pt x="368" y="408" on="0"/>
        <pt x="297" y="408" on="1"/>
        <pt x="254" y="408" on="0"/>
        <pt x="206" y="381" on="1"/>
        <pt x="162" y="105" on="1"/>
      </contour>
    </TTGlyph>
    <TTGlyph name="backslash" xMin="87" yMin="-118" xMax="347" yMax="762">
      <contour>
        <pt x="236" y="-118" on="1"/>
        <pt x="87" y="731" on="1"/>
        <pt x="197" y="762" on="1"/>
        <pt x="347" y="-89" on="1"/>
      </contour>
    </TTGlyph>
    <TTGlyph name="bar" xMin="6" yMin="-43" xMax="238" yMax="694">
      <contour>
        <pt x="6" y="-43" on="1"/>
        <pt x="122" y="694" on="1"/>
        <pt x="238" y="694" on="1"/>
        <pt x="122" y="-43" on="1"/>
      </contour>
    </TTGlyph>
    <TTGlyph name="braceleft" xMin="13" yMin="-130" xMax="416" yMax="754">
      <contour>
        <pt x="191" y="225" on="1"/>
        <pt x="191" y="202" on="0"/>
        <pt x="187" y="174" on="1"/>
        <pt x="169" y="45" on="1"/>
        <pt x="166" y="25" on="0"/>
        <pt x="166" y="11" on="1"/>
        <pt x="166" y="-35" on="0"/>
        <pt x="196" y="-35" on="1"/>
        <pt x="291" y="-35" on="1"/>
        <pt x="276" y="-130" on="1"/>
        <pt x="187" y="-130" on="1"/>
        <pt x="114" y="-130" on="0"/>
        <pt x="78" y="-84" on="1"/>
        <pt x="49" y="-48" on="0"/>
        <pt x="49" y="10" on="1"/>
        <pt x="49" y="26" on="0"/>
        <pt x="50" y="37" on="1"/>
        <pt x="77" y="224" on="0"/>
        <pt x="73" y="253" on="0"/>
        <pt x="64" y="260" on="0"/>
        <pt x="56" y="260" on="1"/>
        <pt x="13" y="260" on="1"/>
        <pt x="29" y="364" on="1"/>
        <pt x="72" y="364" on="1"/>
        <pt x="88" y="364" on="0"/>
        <pt x="99" y="387" on="0"/>
        <pt x="102" y="398" on="0"/>
        <pt x="107" y="425" on="0"/>
        <pt x="111" y="443" on="0"/>
        <pt x="131" y="553" on="0"/>
        <pt x="137" y="581" on="1"/>
        <pt x="153" y="662" on="0"/>
        <pt x="254" y="754" on="0"/>
        <pt x="327" y="754" on="1"/>
        <pt x="416" y="754" on="1"/>
        <pt x="401" y="659" on="1"/>
        <pt x="306" y="659" on="1"/>
        <pt x="266" y="659" on="0"/>
        <pt x="253" y="579" on="1"/>
        <pt x="231" y="450" on="1"/>
        <pt x="212" y="349" on="0"/>
        <pt x="164" y="312" on="1"/>
        <pt x="191" y="284" on="0"/>
      </contour>
    </TTGlyph>
    <TTGlyph name="braceright" xMin="-43" yMin="-130" xMax="360" yMax="754">
      <contour>
        <pt x="182" y="399" on="1"/>
        <pt x="182" y="422" on="0"/>
        <pt x="186" y="450" on="1"/>
        <pt x="204" y="579" on="1"/>
        <pt x="207" y="599" on="0"/>
        <pt x="207" y="613" on="1"/>
        <pt x="207" y="659" on="0"/>
        <pt x="177" y="659" on="1"/>
        <pt x="82" y="659" on="1"/>
        <pt x="97" y="754" on="1"/>
        <pt x="186" y="754" on="1"/>
        <pt x="259" y="754" on="0"/>
        <pt x="296" y="708" on="1"/>
        <pt x="324" y="672" on="0"/>
        <pt x="324" y="614" on="1"/>
        <pt x="324" y="598" on="0"/>
        <pt x="323" y="587" on="1"/>
        <pt x="296" y="400" on="0"/>
        <pt x="300" y="371" on="0"/>
        <pt x="309" y="364" on="0"/>
        <pt x="317" y="364" on="1"/>
        <pt x="360" y="364" on="1"/>
        <pt x="344" y="260" on="1"/>
        <pt x="301" y="260" on="1"/>
        <pt x="286" y="260" on="0"/>
        <pt x="274" y="237" on="0"/>
        <pt x="271" y="226" on="0"/>
        <pt x="266" y="199" on="0"/>
        <pt x="262" y="181" on="0"/>
        <pt x="242" y="71" on="0"/>
        <pt x="236" y="43" on="1"/>
        <pt x="220" y="-38" on="0"/>
        <pt x="119" y="-130" on="0"/>
        <pt x="46" y="-130" on="1"/>
        <pt x="-43" y="-130" on="1"/>
        <pt x="-28" y="-35" on="1"/>
        <pt x="67" y="-35" on="1"/>
        <pt x="107" y="-35" on="0"/>
        <pt x="120" y="45" on="1"/>
        <pt x="142" y="174" on="1"/>
        <pt x="161" y="275" on="0"/>
        <pt x="209" y="312" on="1"/>
        <pt x="182" y="340" on="0"/>
      </contour>
    </TTGlyph>
    <TTGlyph name="bracketleft" xMin="-10" yMin="-131" xMax="390" yMax="748">
      <contour>
        <pt x="-10" y="-131" on="1"/>
        <pt x="129" y="748" on="1"/>
        <pt x="390" y="748" on="1"/>
        <pt x="374" y="648" on="1"/>
        <pt x="243" y="640" on="1"/>
        <pt x="138" y="-24" on="1"/>
        <pt x="267" y="-30" on="1"/>
        <pt x="251" y="-131" on="1"/>
      </contour>
    </TTGlyph>
    <TTGlyph name="bracketright" xMin="-41" yMin="-131" xMax="358" yMax="748">
      <contour>
        <pt x="358" y="748" on="1"/>
        <pt x="219" y="-131" on="1"/>
        <pt x="-41" y="-131" on="1"/>
        <pt x="-25" y="-30" on="1"/>
        <pt x="105" y="-24" on="1"/>
        <pt x="210" y="640" on="1"/>
        <pt x="81" y="648" on="1"/>
        <pt x="97" y="748" on="1"/>
      </contour>
    </TTGlyph>
    <TTGlyph name="breve" xMin="144" yMin="548" xMax="362" yMax="658">
      <contour>
        <pt x="213" y="648" on="1"/>
        <pt x="213" y="611" on="0"/>
        <pt x="246" y="611" on="1"/>
        <pt x="268" y="611" on="0"/>
        <pt x="292" y="640" on="0"/>
        <pt x="295" y="658" on="1"/>
        <pt x="362" y="658" on="1"/>
        <pt x="355" y="613" on="0"/>
        <pt x="288" y="548" on="0"/>
        <pt x="182" y="548" on="0"/>
        <pt x="160" y="580" on="1"/>
        <pt x="144" y="604" on="0"/>
        <pt x="144" y="636" on="1"/>
        <pt x="144" y="647" on="0"/>
        <pt x="146" y="658" on="1"/>
        <pt x="214" y="658" on="1"/>
        <pt x="213" y="653" on="0"/>
      </contour>
    </TTGlyph>
    <TTGlyph name="brokenbar" xMin="7" yMin="-43" xMax="239" yMax="694">
      <contour>
        <pt x="78" y="407" on="1"/>
        <pt x="123" y="694" on="1"/>
        <pt x="239" y="694" on="1"/>
        <pt x="194" y="407" on="1"/>
      </contour>
      <contour>
        <pt x="7" y="-43" on="1"/>
        <pt x="52" y="242" on="1"/>
        <pt x="168" y="242" on="1"/>
        <pt x="123" y="-43" on="1"/>
      </contour>
    </TTGlyph>
    <TTGlyph name="bullet" xMin="62" yMin="197" xMax="299" yMax="431">
      <contour>
        <pt x="150" y="431" on="0"/>
        <pt x="249" y="431" on="0"/>
        <pt x="299" y="371" on="0"/>
        <pt x="299" y="335" on="1"/>
        <pt x="299" y="273" on="0"/>
        <pt x="212" y="197" on="0"/>
        <pt x="113" y="197" on="0"/>
        <pt x="62" y="257" on="0"/>
        <pt x="62" y="293" on="1"/>
        <pt x="62" y="356" on="0"/>
      </contour>
    </TTGlyph>
    <TTGlyph name="c" xMin="19" yMin="-13" xMax="444" yMax="522">
      <contour>
        <pt x="221" y="-13" on="1"/>
        <pt x="118" y="-13" on="0"/>
        <pt x="61" y="54" on="1"/>
        <pt x="19" y="102" on="0"/>
        <pt x="19" y="187" on="1"/>
        <pt x="19" y="218" on="0"/>
        <pt x="25" y="254" on="1"/>
        <pt x="46" y="389" on="0"/>
        <pt x="201" y="522" on="0"/>
        <pt x="306" y="522" on="1"/>
        <pt x="368" y="522" on="0"/>
        <pt x="444" y="499" on="1"/>
        <pt x="401" y="398" on="1"/>
        <pt x="342" y="412" on="0"/>
        <pt x="305" y="412" on="1"/>
        <pt x="246" y="412" on="0"/>
        <pt x="171" y="341" on="0"/>
        <pt x="158" y="253" on="1"/>
        <pt x="153" y="222" on="0"/>
        <pt x="153" y="149" on="0"/>
        <pt x="172" y="126" on="1"/>
        <pt x="201" y="91" on="0"/>
        <pt x="263" y="91" on="1"/>
        <pt x="296" y="91" on="0"/>
        <pt x="362" y="101" on="1"/>
        <pt x="365" y="10" on="1"/>
        <pt x="283" y="-13" on="0"/>
      </contour>
    </TTGlyph>
    <TTGlyph name="caron" xMin="170" yMin="571" xMax="466" yMax="742">
      <contour>
        <pt x="242" y="742" on="1"/>
        <pt x="313" y="657" on="1"/>
        <pt x="410" y="742" on="1"/>
        <pt x="466" y="690" on="1"/>
        <pt x="336" y="571" on="1"/>
        <pt x="262" y="571" on="1"/>
        <pt x="170" y="690" on="1"/>
      </contour>
    </TTGlyph>
    <TTGlyph name="ccedilla" xMin="19" yMin="-295" xMax="444" yMax="522">
      <contour>
        <pt x="278" y="-57" on="1"/>
        <pt x="286" y="-83" on="0"/>
        <pt x="286" y="-121" on="0"/>
        <pt x="284" y="-133" on="1"/>
        <pt x="269" y="-231" on="0"/>
        <pt x="131" y="-295" on="1"/>
        <pt x="90" y="-230" on="1"/>
        <pt x="156" y="-186" on="0"/>
        <pt x="162" y="-139" on="1"/>
        <pt x="163" y="-130" on="0"/>
        <pt x="163" y="-94" on="0"/>
        <pt x="154" y="-57" on="1"/>
      </contour>
      <contour>
        <pt x="221" y="-13" on="1"/>
        <pt x="118" y="-13" on="0"/>
        <pt x="61" y="54" on="1"/>
        <pt x="19" y="102" on="0"/>
        <pt x="19" y="187" on="1"/>
        <pt x="19" y="218" on="0"/>
        <pt x="25" y="254" on="1"/>
        <pt x="46" y="389" on="0"/>
        <pt x="201" y="522" on="0"/>
        <pt x="306" y="522" on="1"/>
        <pt x="368" y="522" on="0"/>
        <pt x="444" y="499" on="1"/>
        <pt x="401" y="398" on="1"/>
        <pt x="342" y="412" on="0"/>
        <pt x="305" y="412" on="1"/>
        <pt x="246" y="412" on="0"/>
        <pt x="171" y="341" on="0"/>
        <pt x="158" y="253" on="1"/>
        <pt x="153" y="222" on="0"/>
        <pt x="153" y="149" on="0"/>
        <pt x="172" y="126" on="1"/>
        <pt x="201" y="91" on="0"/>
        <pt x="263" y="91" on="1"/>
        <pt x="296" y="91" on="0"/>
        <pt x="362" y="101" on="1"/>
        <pt x="365" y="10" on="1"/>
        <pt x="283" y="-13" on="0"/>
      </contour>
    </TTGlyph>
    <TTGlyph name="cedilla" xMin="16" yMin="-295" xMax="212" yMax="-57">
      <contour>
        <pt x="204" y="-57" on="1"/>
        <pt x="212" y="-83" on="0"/>
        <pt x="212" y="-121" on="0"/>
        <pt x="210" y="-133" on="1"/>
        <pt x="195" y="-231" on="0"/>
        <pt x="57" y="-295" on="1"/>
        <pt x="16" y="-230" on="1"/>
        <pt x="82" y="-186" on="0"/>
        <pt x="88" y="-139" on="1"/>
        <pt x="89" y="-130" on="0"/>
        <pt x="89" y="-94" on="0"/>
        <pt x="80" y="-57" on="1"/>
      </contour>
    </TTGlyph>
    <TTGlyph name="cent" xMin="29" yMin="-36" xMax="454" yMax="719">
      <contour>
        <pt x="315" y="496" on="1"/>
        <pt x="256" y="496" on="0"/>
        <pt x="182" y="425" on="0"/>
        <pt x="168" y="337" on="1"/>
        <pt x="163" y="306" on="0"/>
        <pt x="163" y="233" on="0"/>
        <pt x="182" y="210" on="1"/>
        <pt x="211" y="175" on="0"/>
        <pt x="273" y="175" on="1"/>
        <pt x="305" y="175" on="0"/>
        <pt x="373" y="185" on="1"/>
        <pt x="375" y="94" on="1"/>
        <pt x="322" y="78" on="0"/>
        <pt x="272" y="72" on="1"/>
        <pt x="261" y="-36" on="1"/>
        <pt x="171" y="-36" on="1"/>
        <pt x="194" y="73" on="1"/>
        <pt x="107" y="85" on="0"/>
        <pt x="62" y="151" on="1"/>
        <pt x="29" y="198" on="0"/>
        <pt x="29" y="271" on="1"/>
        <pt x="29" y="302" on="0"/>
        <pt x="35" y="338" on="1"/>
        <pt x="54" y="460" on="0"/>
        <pt x="186" y="592" on="0"/>
        <pt x="278" y="603" on="1"/>
        <pt x="290" y="719" on="1"/>
        <pt x="380" y="719" on="1"/>
        <pt x="355" y="604" on="1"/>
        <pt x="391" y="601" on="0"/>
        <pt x="454" y="583" on="1"/>
        <pt x="411" y="482" on="1"/>
        <pt x="352" y="496" on="0"/>
      </contour>
    </TTGlyph>
    <TTGlyph name="circumflex" xMin="143" yMin="591" xMax="439" yMax="762">
      <contour>
        <pt x="297" y="676" on="1"/>
        <pt x="199" y="591" on="1"/>
        <pt x="143" y="643" on="1"/>
        <pt x="273" y="762" on="1"/>
        <pt x="347" y="762" on="1"/>
        <pt x="439" y="643" on="1"/>
        <pt x="367" y="591" on="1"/>
      </contour>
    </TTGlyph>
    <TTGlyph name="colon" xMin="13" yMin="-7" xMax="229" yMax="455">
      <contour>
        <pt x="76" y="158" on="0"/>
        <pt x="144" y="158" on="0"/>
        <pt x="180" y="115" on="0"/>
        <pt x="180" y="90" on="1"/>
        <pt x="180" y="49" on="0"/>
        <pt x="117" y="-7" on="0"/>
        <pt x="49" y="-7" on="0"/>
        <pt x="14" y="36" on="0"/>
        <pt x="14" y="61" on="1"/>
        <pt x="14" y="105" on="0"/>
      </contour>
      <contour>
        <pt x="125" y="455" on="0"/>
        <pt x="193" y="455" on="0"/>
        <pt x="229" y="412" on="0"/>
        <pt x="229" y="387" on="1"/>
        <pt x="229" y="346" on="0"/>
        <pt x="166" y="290" on="0"/>
        <pt x="98" y="290" on="0"/>
        <pt x="63" y="333" on="0"/>
        <pt x="63" y="358" on="1"/>
        <pt x="63" y="402" on="0"/>
      </contour>
    </TTGlyph>
    <TTGlyph name="comma" xMin="-86" yMin="-128" xMax="137" yMax="116">
      <contour>
        <pt x="-86" y="-128" on="1"/>
        <pt x="24" y="-20" on="0"/>
        <pt x="24" y="68" on="1"/>
        <pt x="24" y="90" on="0"/>
        <pt x="17" y="116" on="1"/>
        <pt x="132" y="116" on="1"/>
        <pt x="137" y="100" on="0"/>
        <pt x="137" y="71" on="0"/>
        <pt x="135" y="59" on="1"/>
        <pt x="117" y="-46" on="0"/>
        <pt x="16" y="-128" on="1"/>
      </contour>
    </TTGlyph>
    <TTGlyph name="copyright" xMin="34" yMin="-18" xMax="684" yMax="622">
      <contour>
        <pt x="471" y="414" on="1"/>
        <pt x="437" y="438" on="0"/>
        <pt x="348" y="438" on="0"/>
        <pt x="277" y="370" on="0"/>
        <pt x="266" y="298" on="1"/>
        <pt x="262" y="274" on="0"/>
        <pt x="262" y="215" on="0"/>
        <pt x="278" y="192" on="1"/>
        <pt x="303" y="157" on="0"/>
        <pt x="391" y="157" on="0"/>
        <pt x="442" y="184" on="1"/>
        <pt x="456" y="135" on="1"/>
        <pt x="397" y="98" on="0"/>
        <pt x="264" y="98" on="0"/>
        <pt x="222" y="148" on="1"/>
        <pt x="192" y="185" on="0"/>
        <pt x="192" y="247" on="1"/>
        <pt x="192" y="271" on="0"/>
        <pt x="196" y="298" on="1"/>
        <pt x="211" y="397" on="0"/>
        <pt x="327" y="498" on="0"/>
        <pt x="460" y="498" on="0"/>
        <pt x="503" y="466" on="1"/>
      </contour>
      <contour>
        <pt x="443" y="-18" on="0"/>
        <pt x="175" y="-18" on="0"/>
        <pt x="96" y="75" on="1"/>
        <pt x="35" y="148" on="0"/>
        <pt x="35" y="247" on="1"/>
        <pt x="35" y="274" on="0"/>
        <pt x="39" y="302" on="1"/>
        <pt x="61" y="436" on="0"/>
        <pt x="276" y="622" on="0"/>
        <pt x="544" y="622" on="0"/>
        <pt x="622" y="529" on="1"/>
        <pt x="684" y="456" on="0"/>
        <pt x="684" y="359" on="1"/>
        <pt x="684" y="331" on="0"/>
        <pt x="679" y="302" on="1"/>
        <pt x="658" y="168" on="0"/>
      </contour>
      <contour>
        <pt x="608" y="352" on="1"/>
        <pt x="608" y="429" on="0"/>
        <pt x="564" y="484" on="1"/>
        <pt x="505" y="555" on="0"/>
        <pt x="293" y="555" on="0"/>
        <pt x="130" y="410" on="0"/>
        <pt x="113" y="300" on="1"/>
        <pt x="109" y="275" on="0"/>
        <pt x="109" y="252" on="1"/>
        <pt x="109" y="174" on="0"/>
        <pt x="154" y="118" on="1"/>
        <pt x="213" y="45" on="0"/>
        <pt x="425" y="45" on="0"/>
        <pt x="587" y="192" on="0"/>
        <pt x="604" y="302" on="1"/>
        <pt x="608" y="328" on="0"/>
      </contour>
    </TTGlyph>
    <TTGlyph name="currency" xMin="-13" yMin="-32" xMax="524" yMax="532">
      <contour>
        <pt x="400" y="115" on="1"/>
        <pt x="459" y="21" on="1"/>
        <pt x="381" y="-32" on="1"/>
        <pt x="324" y="64" on="1"/>
        <pt x="288" y="47" on="0"/>
        <pt x="181" y="47" on="0"/>
        <pt x="141" y="68" on="1"/>
        <pt x="134" y="60" on="0"/>
        <pt x="104" y="29" on="0"/>
        <pt x="52" y="-27" on="0"/>
        <pt x="47" y="-32" on="1"/>
        <pt x="-13" y="21" on="1"/>
        <pt x="82" y="122" on="1"/>
        <pt x="56" y="166" on="0"/>
        <pt x="56" y="216" on="1"/>
        <pt x="56" y="311" on="0"/>
        <pt x="128" y="384" on="1"/>
        <pt x="67" y="479" on="1"/>
        <pt x="145" y="532" on="1"/>
        <pt x="205" y="436" on="1"/>
        <pt x="249" y="454" on="0"/>
        <pt x="344" y="454" on="0"/>
        <pt x="376" y="438" on="1"/>
        <pt x="419" y="486" on="0"/>
        <pt x="465" y="532" on="1"/>
        <pt x="524" y="479" on="1"/>
        <pt x="440" y="388" on="1"/>
        <pt x="475" y="341" on="0"/>
        <pt x="475" y="284" on="1"/>
        <pt x="475" y="187" on="0"/>
      </contour>
      <contour>
        <pt x="151" y="229" on="1"/>
        <pt x="151" y="194" on="0"/>
        <pt x="199" y="136" on="0"/>
        <pt x="296" y="136" on="0"/>
        <pt x="333" y="169" on="1"/>
        <pt x="380" y="211" on="0"/>
        <pt x="380" y="272" on="1"/>
        <pt x="380" y="307" on="0"/>
        <pt x="332" y="366" on="0"/>
        <pt x="235" y="366" on="0"/>
        <pt x="198" y="332" on="1"/>
        <pt x="151" y="290" on="0"/>
      </contour>
    </TTGlyph>
    <TTGlyph name="d" xMin="18" yMin="-9" xMax="546" yMax="710">
      <contour>
        <pt x="286" y="522" on="1"/>
        <pt x="341" y="522" on="0"/>
        <pt x="372" y="504" on="1"/>
        <pt x="405" y="710" on="1"/>
        <pt x="546" y="710" on="1"/>
        <pt x="432" y="-7" on="1"/>
        <pt x="316" y="-7" on="1"/>
        <pt x="314" y="31" on="1"/>
        <pt x="252" y="-9" on="0"/>
        <pt x="175" y="-9" on="1"/>
        <pt x="81" y="-9" on="0"/>
        <pt x="44" y="59" on="1"/>
        <pt x="19" y="104" on="0"/>
        <pt x="19" y="171" on="1"/>
        <pt x="19" y="205" on="0"/>
        <pt x="25" y="244" on="1"/>
        <pt x="69" y="522" on="0"/>
      </contour>
      <contour>
        <pt x="283" y="412" on="1"/>
        <pt x="185" y="412" on="0"/>
        <pt x="160" y="247" on="1"/>
        <pt x="155" y="215" on="0"/>
        <pt x="155" y="190" on="1"/>
        <pt x="155" y="96" on="0"/>
        <pt x="226" y="96" on="1"/>
        <pt x="272" y="96" on="0"/>
        <pt x="312" y="119" on="1"/>
        <pt x="357" y="398" on="1"/>
        <pt x="326" y="412" on="0"/>
      </contour>
    </TTGlyph>
    <TTGlyph name="dagger" xMin="40" yMin="0" xMax="424" yMax="669">
      <contour>
        <pt x="424" y="480" on="1"/>
        <pt x="410" y="392" on="1"/>
        <pt x="250" y="407" on="1"/>
        <pt x="211" y="0" on="1"/>
        <pt x="105" y="0" on="1"/>
        <pt x="194" y="407" on="1"/>
        <pt x="40" y="392" on="1"/>
        <pt x="54" y="480" on="1"/>
        <pt x="203" y="465" on="1"/>
        <pt x="208" y="669" on="1"/>
        <pt x="318" y="669" on="1"/>
        <pt x="259" y="465" on="1"/>
      </contour>
    </TTGlyph>
    <TTGlyph name="daggerdbl" xMin="19" yMin="0" xMax="412" yMax="674">
      <contour>
        <pt x="261" y="341" on="1"/>
        <pt x="220" y="215" on="1"/>
        <pt x="365" y="228" on="1"/>
        <pt x="352" y="150" on="1"/>
        <pt x="211" y="163" on="1"/>
        <pt x="210" y="0" on="1"/>
        <pt x="116" y="0" on="1"/>
        <pt x="164" y="163" on="1"/>
        <pt x="19" y="150" on="1"/>
        <pt x="32" y="228" on="1"/>
        <pt x="173" y="215" on="1"/>
        <pt x="173" y="341" on="1"/>
        <pt x="211" y="459" on="1"/>
        <pt x="66" y="446" on="1"/>
        <pt x="79" y="525" on="1"/>
        <pt x="219" y="511" on="1"/>
        <pt x="222" y="674" on="1"/>
        <pt x="316" y="674" on="1"/>
        <pt x="266" y="511" on="1"/>
        <pt x="412" y="525" on="1"/>
        <pt x="399" y="446" on="1"/>
        <pt x="258" y="459" on="1"/>
      </contour>
    </TTGlyph>
    <TTGlyph name="degree" xMin="73" yMin="443" xMax="318" yMax="683">
      <contour>
        <pt x="233" y="443" on="0"/>
        <pt x="117" y="443" on="0"/>
        <pt x="92" y="478" on="1"/>
        <pt x="73" y="505" on="0"/>
        <pt x="73" y="540" on="1"/>
        <pt x="73" y="605" on="0"/>
        <pt x="156" y="683" on="0"/>
        <pt x="273" y="683" on="0"/>
        <pt x="298" y="649" on="1"/>
        <pt x="318" y="623" on="0"/>
        <pt x="318" y="588" on="1"/>
        <pt x="318" y="525" on="0"/>
      </contour>
      <contour>
        <pt x="249" y="577" on="1"/>
        <pt x="249" y="618" on="0"/>
        <pt x="203" y="618" on="1"/>
        <pt x="177" y="618" on="0"/>
        <pt x="147" y="586" on="0"/>
        <pt x="144" y="562" on="1"/>
        <pt x="143" y="556" on="0"/>
        <pt x="143" y="535" on="0"/>
        <pt x="160" y="507" on="0"/>
        <pt x="186" y="507" on="1"/>
        <pt x="238" y="507" on="0"/>
        <pt x="248" y="564" on="1"/>
        <pt x="249" y="571" on="0"/>
      </contour>
    </TTGlyph>
    <TTGlyph name="dieresis" xMin="120" yMin="596" xMax="445" yMax="735">
      <contour>
        <pt x="172" y="735" on="0"/>
        <pt x="231" y="735" on="0"/>
        <pt x="261" y="700" on="0"/>
        <pt x="261" y="673" on="0"/>
        <pt x="260" y="667" on="1"/>
        <pt x="256" y="637" on="0"/>
        <pt x="209" y="596" on="0"/>
        <pt x="150" y="596" on="0"/>
        <pt x="121" y="632" on="0"/>
        <pt x="121" y="646" on="1"/>
        <pt x="121" y="690" on="0"/>
      </contour>
      <contour>
        <pt x="357" y="735" on="0"/>
        <pt x="415" y="735" on="0"/>
        <pt x="445" y="699" on="0"/>
        <pt x="445" y="678" on="1"/>
        <pt x="445" y="641" on="0"/>
        <pt x="393" y="596" on="0"/>
        <pt x="335" y="596" on="0"/>
        <pt x="305" y="632" on="0"/>
        <pt x="305" y="646" on="1"/>
        <pt x="305" y="690" on="0"/>
      </contour>
    </TTGlyph>
    <TTGlyph name="divide" xMin="28" yMin="51" xMax="502" yMax="501">
      <contour>
        <pt x="274" y="501" on="0"/>
        <pt x="328" y="501" on="0"/>
        <pt x="356" y="469" on="0"/>
        <pt x="356" y="457" on="1"/>
        <pt x="356" y="417" on="0"/>
        <pt x="307" y="372" on="0"/>
        <pt x="253" y="372" on="0"/>
        <pt x="224" y="407" on="0"/>
        <pt x="224" y="420" on="1"/>
        <pt x="224" y="461" on="0"/>
      </contour>
      <contour>
        <pt x="502" y="332" on="1"/>
        <pt x="485" y="223" on="1"/>
        <pt x="28" y="223" on="1"/>
        <pt x="45" y="332" on="1"/>
      </contour>
      <contour>
        <pt x="223" y="180" on="0"/>
        <pt x="277" y="180" on="0"/>
        <pt x="305" y="147" on="0"/>
        <pt x="305" y="135" on="1"/>
        <pt x="305" y="97" on="0"/>
        <pt x="257" y="51" on="0"/>
        <pt x="203" y="51" on="0"/>
        <pt x="173" y="86" on="0"/>
        <pt x="173" y="99" on="1"/>
        <pt x="173" y="139" on="0"/>
      </contour>
    </TTGlyph>
    <TTGlyph name="dollar" xMin="-15" yMin="-111" xMax="497" yMax="786">
      <contour>
        <pt x="41" y="152" on="1"/>
        <pt x="125" y="110" on="0"/>
        <pt x="301" y="110" on="0"/>
        <pt x="312" y="182" on="1"/>
        <pt x="313" y="188" on="0"/>
        <pt x="313" y="194" on="1"/>
        <pt x="313" y="222" on="0"/>
        <pt x="264" y="267" on="0"/>
        <pt x="166" y="316" on="0"/>
        <pt x="125" y="342" on="0"/>
        <pt x="78" y="390" on="0"/>
        <pt x="68" y="439" on="0"/>
        <pt x="68" y="458" on="1"/>
        <pt x="68" y="559" on="0"/>
        <pt x="136" y="619" on="1"/>
        <pt x="190" y="666" on="0"/>
        <pt x="269" y="677" on="1"/>
        <pt x="282" y="786" on="1"/>
        <pt x="373" y="786" on="1"/>
        <pt x="352" y="679" on="1"/>
        <pt x="415" y="674" on="0"/>
        <pt x="497" y="643" on="1"/>
        <pt x="440" y="534" on="1"/>
        <pt x="364" y="563" on="0"/>
        <pt x="305" y="563" on="1"/>
        <pt x="222" y="563" on="0"/>
        <pt x="210" y="497" on="1"/>
        <pt x="206" y="470" on="0"/>
        <pt x="238" y="442" on="0"/>
        <pt x="252" y="432" on="0"/>
        <pt x="297" y="407" on="0"/>
        <pt x="335" y="384" on="0"/>
        <pt x="367" y="363" on="0"/>
        <pt x="418" y="319" on="0"/>
        <pt x="430" y="300" on="1"/>
        <pt x="454" y="260" on="0"/>
        <pt x="454" y="213" on="1"/>
        <pt x="454" y="200" on="0"/>
        <pt x="452" y="187" on="1"/>
        <pt x="440" y="109" on="0"/>
        <pt x="329" y="4" on="0"/>
        <pt x="244" y="-9" on="1"/>
        <pt x="232" y="-111" on="1"/>
        <pt x="141" y="-111" on="1"/>
        <pt x="160" y="-11" on="1"/>
        <pt x="52" y="-2" on="0"/>
        <pt x="-15" y="33" on="1"/>
      </contour>
    </TTGlyph>
    <TTGlyph name="dotaccent" xMin="120" yMin="515" xMax="287" yMax="680">
      <contour>
        <pt x="183" y="680" on="0"/>
        <pt x="251" y="680" on="0"/>
        <pt x="287" y="637" on="0"/>
        <pt x="287" y="612" on="1"/>
        <pt x="287" y="571" on="0"/>
        <pt x="224" y="515" on="0"/>
        <pt x="156" y="515" on="0"/>
        <pt x="121" y="558" on="0"/>
        <pt x="121" y="583" on="1"/>
        <pt x="121" y="627" on="0"/>
      </contour>
    </TTGlyph>
    <TTGlyph name="dotlessi" xMin="6" yMin="0" xMax="228" yMax="524">
      <contour>
        <pt x="228" y="524" on="1"/>
        <pt x="146" y="0" on="1"/>
        <pt x="6" y="0" on="1"/>
        <pt x="87" y="512" on="1"/>
      </contour>
    </TTGlyph>
    <TTGlyph name="e" xMin="20" yMin="-13" xMax="459" yMax="522">
      <contour>
        <pt x="427" y="474" on="1"/>
        <pt x="458" y="438" on="0"/>
        <pt x="458" y="320" on="0"/>
        <pt x="426" y="242" on="1"/>
        <pt x="155" y="242" on="1"/>
        <pt x="151" y="219" on="0"/>
        <pt x="151" y="199" on="1"/>
        <pt x="151" y="153" on="0"/>
        <pt x="172" y="128" on="1"/>
        <pt x="201" y="92" on="0"/>
        <pt x="323" y="92" on="0"/>
        <pt x="388" y="115" on="1"/>
        <pt x="397" y="20" on="1"/>
        <pt x="314" y="-13" on="0"/>
        <pt x="220" y="-13" on="1"/>
        <pt x="21" y="-13" on="0"/>
        <pt x="21" y="184" on="1"/>
        <pt x="21" y="350" on="0"/>
        <pt x="116" y="448" on="1"/>
        <pt x="186" y="522" on="0"/>
        <pt x="297" y="522" on="1"/>
        <pt x="386" y="522" on="0"/>
      </contour>
      <contour>
        <pt x="339" y="318" on="1"/>
        <pt x="343" y="340" on="0"/>
        <pt x="343" y="356" on="1"/>
        <pt x="343" y="423" on="0"/>
        <pt x="285" y="423" on="1"/>
        <pt x="203" y="423" on="0"/>
        <pt x="168" y="318" on="1"/>
      </contour>
    </TTGlyph>
    <TTGlyph name="eacute" xMin="20" yMin="-13" xMax="459" yMax="774">
      <contour>
        <pt x="435" y="663" on="1"/>
        <pt x="218" y="587" on="1"/>
        <pt x="197" y="665" on="1"/>
        <pt x="403" y="774" on="1"/>
      </contour>
      <contour>
        <pt x="427" y="474" on="1"/>
        <pt x="458" y="438" on="0"/>
        <pt x="458" y="320" on="0"/>
        <pt x="426" y="242" on="1"/>
        <pt x="155" y="242" on="1"/>
        <pt x="151" y="219" on="0"/>
        <pt x="151" y="199" on="1"/>
        <pt x="151" y="153" on="0"/>
        <pt x="172" y="128" on="1"/>
        <pt x="201" y="92" on="0"/>
        <pt x="323" y="92" on="0"/>
        <pt x="388" y="115" on="1"/>
        <pt x="397" y="20" on="1"/>
        <pt x="314" y="-13" on="0"/>
        <pt x="220" y="-13" on="1"/>
        <pt x="21" y="-13" on="0"/>
        <pt x="21" y="184" on="1"/>
        <pt x="21" y="350" on="0"/>
        <pt x="116" y="448" on="1"/>
        <pt x="186" y="522" on="0"/>
        <pt x="297" y="522" on="1"/>
        <pt x="386" y="522" on="0"/>
      </contour>
      <contour>
        <pt x="339" y="318" on="1"/>
        <pt x="343" y="340" on="0"/>
        <pt x="343" y="356" on="1"/>
        <pt x="343" y="423" on="0"/>
        <pt x="285" y="423" on="1"/>
        <pt x="203" y="423" on="0"/>
        <pt x="168" y="318" on="1"/>
      </contour>
    </TTGlyph>
    <TTGlyph name="ecircumflex" xMin="20" yMin="-13" xMax="459" yMax="762">
      <contour>
        <pt x="458" y="320" on="0"/>
        <pt x="426" y="242" on="1"/>
        <pt x="426" y="242" on="0"/>
        <pt x="155" y="242" on="1"/>
        <pt x="151" y="219" on="0"/>
        <pt x="151" y="199" on="1"/>
        <pt x="151" y="92" on="0"/>
        <pt x="262" y="92" on="1"/>
        <pt x="323" y="92" on="0"/>
        <pt x="388" y="115" on="1"/>
        <pt x="397" y="20" on="1"/>
        <pt x="314" y="-13" on="0"/>
        <pt x="220" y="-13" on="1"/>
        <pt x="21" y="-13" on="0"/>
        <pt x="21" y="184" on="1"/>
        <pt x="21" y="350" on="0"/>
        <pt x="116" y="448" on="1"/>
        <pt x="186" y="522" on="0"/>
        <pt x="297" y="522" on="1"/>
        <pt x="386" y="522" on="0"/>
        <pt x="427" y="474" on="1"/>
        <pt x="458" y="438" on="0"/>
      </contour>
      <contour>
        <pt x="343" y="356" on="1"/>
        <pt x="343" y="423" on="0"/>
        <pt x="285" y="423" on="1"/>
        <pt x="203" y="423" on="0"/>
        <pt x="168" y="318" on="1"/>
        <pt x="339" y="318" on="1"/>
        <pt x="343" y="340" on="0"/>
      </contour>
      <contour>
        <pt x="316" y="676" on="1"/>
        <pt x="218" y="591" on="1"/>
        <pt x="162" y="643" on="1"/>
        <pt x="292" y="762" on="1"/>
        <pt x="366" y="762" on="1"/>
        <pt x="458" y="643" on="1"/>
        <pt x="386" y="591" on="1"/>
      </contour>
    </TTGlyph>
    <TTGlyph name="edieresis" xMin="20" yMin="-13" xMax="477" yMax="735">
      <contour>
        <pt x="204" y="735" on="0"/>
        <pt x="263" y="735" on="0"/>
        <pt x="293" y="700" on="0"/>
        <pt x="293" y="673" on="0"/>
        <pt x="292" y="667" on="1"/>
        <pt x="288" y="637" on="0"/>
        <pt x="241" y="596" on="0"/>
        <pt x="182" y="596" on="0"/>
        <pt x="153" y="632" on="0"/>
        <pt x="153" y="646" on="1"/>
        <pt x="153" y="690" on="0"/>
      </contour>
      <contour>
        <pt x="389" y="735" on="0"/>
        <pt x="447" y="735" on="0"/>
        <pt x="477" y="699" on="0"/>
        <pt x="477" y="678" on="1"/>
        <pt x="477" y="641" on="0"/>
        <pt x="425" y="596" on="0"/>
        <pt x="367" y="596" on="0"/>
        <pt x="337" y="632" on="0"/>
        <pt x="337" y="646" on="1"/>
        <pt x="337" y="690" on="0"/>
      </contour>
      <contour>
        <pt x="427" y="474" on="1"/>
        <pt x="458" y="438" on="0"/>
        <pt x="458" y="320" on="0"/>
        <pt x="426" y="242" on="1"/>
        <pt x="155" y="242" on="1"/>
        <pt x="151" y="219" on="0"/>
        <pt x="151" y="199" on="1"/>
        <pt x="151" y="153" on="0"/>
        <pt x="172" y="128" on="1"/>
        <pt x="201" y="92" on="0"/>
        <pt x="323" y="92" on="0"/>
        <pt x="388" y="115" on="1"/>
        <pt x="397" y="20" on="1"/>
        <pt x="314" y="-13" on="0"/>
        <pt x="220" y="-13" on="1"/>
        <pt x="21" y="-13" on="0"/>
        <pt x="21" y="184" on="1"/>
        <pt x="21" y="350" on="0"/>
        <pt x="116" y="448" on="1"/>
        <pt x="186" y="522" on="0"/>
        <pt x="297" y="522" on="1"/>
        <pt x="386" y="522" on="0"/>
      </contour>
      <contour>
        <pt x="339" y="318" on="1"/>
        <pt x="343" y="340" on="0"/>
        <pt x="343" y="356" on="1"/>
        <pt x="343" y="423" on="0"/>
        <pt x="285" y="423" on="1"/>
        <pt x="203" y="423" on="0"/>
        <pt x="168" y="318" on="1"/>
      </contour>
    </TTGlyph>
    <TTGlyph name="egrave" xMin="20" yMin="-13" xMax="459" yMax="774">
      <contour>
        <pt x="379" y="587" on="1"/>
        <pt x="188" y="663" on="1"/>
        <pt x="254" y="774" on="1"/>
        <pt x="426" y="665" on="1"/>
      </contour>
      <contour>
        <pt x="427" y="474" on="1"/>
        <pt x="458" y="438" on="0"/>
        <pt x="458" y="320" on="0"/>
        <pt x="426" y="242" on="1"/>
        <pt x="155" y="242" on="1"/>
        <pt x="151" y="219" on="0"/>
        <pt x="151" y="199" on="1"/>
        <pt x="151" y="153" on="0"/>
        <pt x="172" y="128" on="1"/>
        <pt x="201" y="92" on="0"/>
        <pt x="323" y="92" on="0"/>
        <pt x="388" y="115" on="1"/>
        <pt x="397" y="20" on="1"/>
        <pt x="314" y="-13" on="0"/>
        <pt x="220" y="-13" on="1"/>
        <pt x="21" y="-13" on="0"/>
        <pt x="21" y="184" on="1"/>
        <pt x="21" y="350" on="0"/>
        <pt x="116" y="448" on="1"/>
        <pt x="186" y="522" on="0"/>
        <pt x="297" y="522" on="1"/>
        <pt x="386" y="522" on="0"/>
      </contour>
      <contour>
        <pt x="339" y="318" on="1"/>
        <pt x="343" y="340" on="0"/>
        <pt x="343" y="356" on="1"/>
        <pt x="343" y="423" on="0"/>
        <pt x="285" y="423" on="1"/>
        <pt x="203" y="423" on="0"/>
        <pt x="168" y="318" on="1"/>
      </contour>
    </TTGlyph>
    <TTGlyph name="eight" xMin="15" yMin="-12" xMax="492" yMax="681">
      <contour>
        <pt x="449" y="105" on="0"/>
        <pt x="320" y="-12" on="0"/>
        <pt x="103" y="-12" on="0"/>
        <pt x="54" y="41" on="1"/>
        <pt x="16" y="82" on="0"/>
        <pt x="16" y="146" on="1"/>
        <pt x="16" y="222" on="0"/>
        <pt x="64" y="282" on="1"/>
        <pt x="101" y="328" on="0"/>
        <pt x="156" y="358" on="1"/>
        <pt x="96" y="399" on="0"/>
        <pt x="96" y="472" on="1"/>
        <pt x="96" y="487" on="0"/>
        <pt x="99" y="504" on="1"/>
        <pt x="113" y="589" on="0"/>
        <pt x="236" y="681" on="0"/>
        <pt x="411" y="681" on="0"/>
        <pt x="456" y="637" on="1"/>
        <pt x="492" y="603" on="0"/>
        <pt x="492" y="548" on="1"/>
        <pt x="492" y="532" on="0"/>
        <pt x="489" y="515" on="1"/>
        <pt x="472" y="413" on="0"/>
        <pt x="371" y="359" on="1"/>
        <pt x="465" y="310" on="0"/>
        <pt x="465" y="219" on="1"/>
        <pt x="465" y="205" on="0"/>
        <pt x="463" y="190" on="1"/>
      </contour>
      <contour>
        <pt x="364" y="540" on="0"/>
        <pt x="334" y="567" on="0"/>
        <pt x="275" y="567" on="0"/>
        <pt x="252" y="552" on="1"/>
        <pt x="222" y="534" on="0"/>
        <pt x="222" y="490" on="1"/>
        <pt x="222" y="467" on="0"/>
        <pt x="252" y="417" on="0"/>
        <pt x="282" y="402" on="1"/>
        <pt x="314" y="419" on="0"/>
        <pt x="337" y="450" on="1"/>
        <pt x="364" y="487" on="0"/>
      </contour>
      <contour>
        <pt x="148" y="172" on="1"/>
        <pt x="148" y="144" on="0"/>
        <pt x="188" y="104" on="0"/>
        <pt x="270" y="104" on="0"/>
        <pt x="298" y="130" on="1"/>
        <pt x="335" y="162" on="0"/>
        <pt x="335" y="212" on="1"/>
        <pt x="335" y="242" on="0"/>
        <pt x="291" y="285" on="0"/>
        <pt x="244" y="305" on="1"/>
        <pt x="243" y="305" on="0"/>
        <pt x="237" y="308" on="0"/>
        <pt x="236" y="308" on="1"/>
        <pt x="235" y="309" on="1"/>
        <pt x="162" y="267" on="0"/>
        <pt x="150" y="190" on="1"/>
        <pt x="148" y="180" on="0"/>
      </contour>
    </TTGlyph>
    <TTGlyph name="ellipsis" xMin="2" yMin="-7" xMax="630" yMax="158">
      <contour>
        <pt x="65" y="158" on="0"/>
        <pt x="133" y="158" on="0"/>
        <pt x="169" y="115" on="0"/>
        <pt x="169" y="90" on="1"/>
        <pt x="169" y="49" on="0"/>
        <pt x="106" y="-7" on="0"/>
        <pt x="38" y="-7" on="0"/>
        <pt x="3" y="36" on="0"/>
        <pt x="3" y="61" on="1"/>
        <pt x="3" y="105" on="0"/>
      </contour>
      <contour>
        <pt x="296" y="158" on="0"/>
        <pt x="364" y="158" on="0"/>
        <pt x="400" y="115" on="0"/>
        <pt x="400" y="90" on="1"/>
        <pt x="400" y="49" on="0"/>
        <pt x="337" y="-7" on="0"/>
        <pt x="269" y="-7" on="0"/>
        <pt x="234" y="36" on="0"/>
        <pt x="234" y="61" on="1"/>
        <pt x="234" y="105" on="0"/>
      </contour>
      <contour>
        <pt x="526" y="158" on="0"/>
        <pt x="594" y="158" on="0"/>
        <pt x="630" y="115" on="0"/>
        <pt x="630" y="90" on="1"/>
        <pt x="630" y="49" on="0"/>
        <pt x="567" y="-7" on="0"/>
        <pt x="499" y="-7" on="0"/>
        <pt x="464" y="36" on="0"/>
        <pt x="464" y="61" on="1"/>
        <pt x="464" y="105" on="0"/>
      </contour>
    </TTGlyph>
    <TTGlyph name="emdash" xMin="41" yMin="223" xMax="665" yMax="332">
      <contour>
        <pt x="665" y="332" on="1"/>
        <pt x="648" y="223" on="1"/>
        <pt x="41" y="223" on="1"/>
        <pt x="58" y="332" on="1"/>
      </contour>
    </TTGlyph>
    <TTGlyph name="endash" xMin="41" yMin="223" xMax="515" yMax="332">
      <contour>
        <pt x="515" y="332" on="1"/>
        <pt x="498" y="223" on="1"/>
        <pt x="41" y="223" on="1"/>
        <pt x="58" y="332" on="1"/>
      </contour>
    </TTGlyph>
    <TTGlyph name="equal" xMin="28" yMin="128" xMax="454" yMax="431">
      <contour>
        <pt x="454" y="431" on="1"/>
        <pt x="437" y="324" on="1"/>
        <pt x="59" y="324" on="1"/>
        <pt x="76" y="431" on="1"/>
      </contour>
      <contour>
        <pt x="423" y="236" on="1"/>
        <pt x="406" y="128" on="1"/>
        <pt x="28" y="128" on="1"/>
        <pt x="45" y="236" on="1"/>
      </contour>
    </TTGlyph>
    <TTGlyph name="eth" xMin="21" yMin="-13" xMax="473" yMax="764">
      <contour>
        <pt x="52" y="60" on="1"/>
        <pt x="21" y="111" on="0"/>
        <pt x="21" y="183" on="1"/>
        <pt x="21" y="212" on="0"/>
        <pt x="26" y="244" on="1"/>
        <pt x="43" y="352" on="0"/>
        <pt x="159" y="459" on="0"/>
        <pt x="242" y="459" on="1"/>
        <pt x="298" y="459" on="0"/>
        <pt x="333" y="437" on="1"/>
        <pt x="333" y="442" on="0"/>
        <pt x="333" y="448" on="1"/>
        <pt x="333" y="528" on="0"/>
        <pt x="291" y="571" on="1"/>
        <pt x="205" y="495" on="1"/>
        <pt x="154" y="553" on="1"/>
        <pt x="220" y="611" on="1"/>
        <pt x="181" y="623" on="0"/>
        <pt x="105" y="627" on="1"/>
        <pt x="137" y="719" on="1"/>
        <pt x="245" y="719" on="0"/>
        <pt x="316" y="694" on="1"/>
        <pt x="395" y="764" on="1"/>
        <pt x="443" y="704" on="1"/>
        <pt x="388" y="656" on="1"/>
        <pt x="472" y="589" on="0"/>
        <pt x="472" y="430" on="1"/>
        <pt x="472" y="374" on="0"/>
        <pt x="448" y="217" on="0"/>
        <pt x="396" y="89" on="0"/>
        <pt x="360" y="54" on="1"/>
        <pt x="294" y="-12" on="0"/>
        <pt x="95" y="-12" on="0"/>
      </contour>
      <contour>
        <pt x="155" y="190" on="1"/>
        <pt x="155" y="104" on="0"/>
        <pt x="215" y="104" on="1"/>
        <pt x="254" y="104" on="0"/>
        <pt x="307" y="202" on="0"/>
        <pt x="328" y="335" on="1"/>
        <pt x="297" y="351" on="0"/>
        <pt x="248" y="351" on="1"/>
        <pt x="177" y="349" on="0"/>
        <pt x="160" y="244" on="1"/>
        <pt x="155" y="214" on="0"/>
      </contour>
    </TTGlyph>
    <TTGlyph name="exclam" xMin="6" yMin="-7" xMax="261" yMax="702">
      <contour>
        <pt x="261" y="702" on="1"/>
        <pt x="162" y="216" on="1"/>
        <pt x="57" y="216" on="1"/>
        <pt x="115" y="702" on="1"/>
      </contour>
      <contour>
        <pt x="69" y="158" on="0"/>
        <pt x="137" y="158" on="0"/>
        <pt x="173" y="115" on="0"/>
        <pt x="173" y="90" on="1"/>
        <pt x="173" y="49" on="0"/>
        <pt x="110" y="-7" on="0"/>
        <pt x="42" y="-7" on="0"/>
        <pt x="7" y="36" on="0"/>
        <pt x="7" y="61" on="1"/>
        <pt x="7" y="105" on="0"/>
      </contour>
    </TTGlyph>
    <TTGlyph name="exclamdown" xMin="-28" yMin="-178" xMax="227" yMax="531">
      <contour>
        <pt x="-28" y="-178" on="1"/>
        <pt x="71" y="308" on="1"/>
        <pt x="176" y="308" on="1"/>
        <pt x="118" y="-178" on="1"/>
      </contour>
      <contour>
        <pt x="164" y="366" on="0"/>
        <pt x="96" y="366" on="0"/>
        <pt x="60" y="409" on="0"/>
        <pt x="60" y="434" on="1"/>
        <pt x="60" y="475" on="0"/>
        <pt x="123" y="531" on="0"/>
        <pt x="191" y="531" on="0"/>
        <pt x="226" y="488" on="0"/>
        <pt x="226" y="463" on="1"/>
        <pt x="226" y="419" on="0"/>
      </contour>
    </TTGlyph>
    <TTGlyph name="f" xMin="34" yMin="-186" xMax="539" yMax="737">
      <contour>
        <pt x="495" y="613" on="1"/>
        <pt x="454" y="623" on="0"/>
        <pt x="338" y="623" on="0"/>
        <pt x="293" y="578" on="0"/>
        <pt x="285" y="527" on="1"/>
        <pt x="283" y="512" on="1"/>
        <pt x="436" y="512" on="1"/>
        <pt x="411" y="416" on="1"/>
        <pt x="267" y="416" on="1"/>
        <pt x="172" y="-186" on="1"/>
        <pt x="34" y="-172" on="1"/>
        <pt x="127" y="416" on="1"/>
        <pt x="34" y="422" on="1"/>
        <pt x="47" y="504" on="1"/>
        <pt x="143" y="511" on="1"/>
        <pt x="148" y="540" on="1"/>
        <pt x="164" y="643" on="0"/>
        <pt x="291" y="737" on="0"/>
        <pt x="409" y="737" on="1"/>
        <pt x="470" y="737" on="0"/>
        <pt x="539" y="713" on="1"/>
      </contour>
    </TTGlyph>
    <TTGlyph name="fi" xMin="34" yMin="-186" xMax="599" yMax="737">
      <contour>
        <pt x="416" y="737" on="1"/>
        <pt x="492" y="737" on="0"/>
        <pt x="561" y="713" on="1"/>
        <pt x="517" y="613" on="1"/>
        <pt x="476" y="623" on="0"/>
        <pt x="340" y="623" on="0"/>
        <pt x="293" y="579" on="0"/>
        <pt x="285" y="527" on="1"/>
        <pt x="283" y="512" on="1"/>
        <pt x="458" y="512" on="1"/>
        <pt x="599" y="524" on="1"/>
        <pt x="517" y="0" on="1"/>
        <pt x="377" y="0" on="1"/>
        <pt x="442" y="416" on="1"/>
        <pt x="267" y="416" on="1"/>
        <pt x="172" y="-186" on="1"/>
        <pt x="34" y="-172" on="1"/>
        <pt x="127" y="416" on="1"/>
        <pt x="34" y="422" on="1"/>
        <pt x="47" y="504" on="1"/>
        <pt x="143" y="511" on="1"/>
        <pt x="148" y="540" on="1"/>
        <pt x="164" y="644" on="0"/>
        <pt x="293" y="737" on="0"/>
      </contour>
    </TTGlyph>
    <TTGlyph name="five" xMin="-10" yMin="-13" xMax="474" yMax="669">
      <contour>
        <pt x="191" y="105" on="1"/>
        <pt x="234" y="105" on="0"/>
        <pt x="297" y="162" on="0"/>
        <pt x="307" y="226" on="1"/>
        <pt x="310" y="241" on="0"/>
        <pt x="310" y="285" on="0"/>
        <pt x="274" y="330" on="0"/>
        <pt x="187" y="330" on="0"/>
        <pt x="138" y="289" on="1"/>
        <pt x="71" y="324" on="1"/>
        <pt x="125" y="669" on="1"/>
        <pt x="474" y="669" on="1"/>
        <pt x="456" y="554" on="1"/>
        <pt x="224" y="554" on="1"/>
        <pt x="204" y="427" on="1"/>
        <pt x="241" y="450" on="0"/>
        <pt x="290" y="450" on="1"/>
        <pt x="370" y="450" on="0"/>
        <pt x="414" y="392" on="1"/>
        <pt x="446" y="349" on="0"/>
        <pt x="446" y="282" on="1"/>
        <pt x="446" y="257" on="0"/>
        <pt x="442" y="230" on="1"/>
        <pt x="425" y="125" on="0"/>
        <pt x="287" y="-13" on="0"/>
        <pt x="80" y="-13" on="0"/>
        <pt x="-10" y="48" on="1"/>
        <pt x="49" y="147" on="1"/>
        <pt x="125" y="105" on="0"/>
      </contour>
    </TTGlyph>
    <TTGlyph name="fl" xMin="34" yMin="-186" xMax="685" yMax="745">
      <contour>
        <pt x="685" y="9" on="1"/>
        <pt x="631" y="-13" on="0"/>
        <pt x="534" y="-13" on="0"/>
        <pt x="476" y="9" on="0"/>
        <pt x="462" y="23" on="1"/>
        <pt x="443" y="43" on="0"/>
        <pt x="443" y="98" on="1"/>
        <pt x="443" y="115" on="0"/>
        <pt x="450" y="161" on="1"/>
        <pt x="522" y="614" on="1"/>
        <pt x="485" y="629" on="0"/>
        <pt x="344" y="629" on="0"/>
        <pt x="294" y="583" on="0"/>
        <pt x="285" y="527" on="1"/>
        <pt x="283" y="512" on="1"/>
        <pt x="426" y="512" on="1"/>
        <pt x="401" y="416" on="1"/>
        <pt x="267" y="416" on="1"/>
        <pt x="172" y="-186" on="1"/>
        <pt x="34" y="-172" on="1"/>
        <pt x="127" y="416" on="1"/>
        <pt x="34" y="422" on="1"/>
        <pt x="47" y="504" on="1"/>
        <pt x="143" y="511" on="1"/>
        <pt x="148" y="540" on="1"/>
        <pt x="180" y="745" on="0"/>
        <pt x="430" y="745" on="1"/>
        <pt x="547" y="745" on="0"/>
        <pt x="676" y="700" on="1"/>
        <pt x="590" y="153" on="1"/>
        <pt x="588" y="140" on="0"/>
        <pt x="588" y="119" on="0"/>
        <pt x="598" y="100" on="0"/>
        <pt x="650" y="100" on="0"/>
        <pt x="679" y="107" on="1"/>
      </contour>
    </TTGlyph>
    <TTGlyph name="florin" xMin="-59" yMin="-243" xMax="677" yMax="737">
      <contour>
        <pt x="547" y="737" on="1"/>
        <pt x="608" y="737" on="0"/>
        <pt x="677" y="713" on="1"/>
        <pt x="633" y="613" on="1"/>
        <pt x="592" y="623" on="0"/>
        <pt x="476" y="623" on="0"/>
        <pt x="431" y="578" on="0"/>
        <pt x="423" y="527" on="1"/>
        <pt x="421" y="512" on="1"/>
        <pt x="574" y="512" on="1"/>
        <pt x="549" y="416" on="1"/>
        <pt x="405" y="416" on="1"/>
        <pt x="332" y="-46" on="1"/>
        <pt x="316" y="-149" on="0"/>
        <pt x="188" y="-243" on="0"/>
        <pt x="70" y="-243" on="1"/>
        <pt x="10" y="-243" on="0"/>
        <pt x="-59" y="-219" on="1"/>
        <pt x="-14" y="-119" on="1"/>
        <pt x="26" y="-129" on="0"/>
        <pt x="141" y="-129" on="0"/>
        <pt x="186" y="-84" on="0"/>
        <pt x="194" y="-33" on="1"/>
        <pt x="265" y="416" on="1"/>
        <pt x="172" y="422" on="1"/>
        <pt x="185" y="504" on="1"/>
        <pt x="281" y="511" on="1"/>
        <pt x="286" y="540" on="1"/>
        <pt x="302" y="643" on="0"/>
        <pt x="429" y="737" on="0"/>
      </contour>
    </TTGlyph>
    <TTGlyph name="four" xMin="1" yMin="0" xMax="542" yMax="669">
      <contour>
        <pt x="527" y="176" on="1"/>
        <pt x="423" y="176" on="1"/>
        <pt x="396" y="0" on="1"/>
        <pt x="263" y="0" on="1"/>
        <pt x="290" y="176" on="1"/>
        <pt x="1" y="176" on="1"/>
        <pt x="13" y="250" on="1"/>
        <pt x="345" y="669" on="1"/>
        <pt x="501" y="669" on="1"/>
        <pt x="438" y="271" on="1"/>
        <pt x="542" y="271" on="1"/>
      </contour>
      <contour>
        <pt x="305" y="271" on="1"/>
        <pt x="341" y="505" on="1"/>
        <pt x="163" y="271" on="1"/>
      </contour>
    </TTGlyph>
    <TTGlyph name="fraction" xMin="-55" yMin="-84" xMax="465" yMax="796">
      <contour>
        <pt x="465" y="765" on="1"/>
        <pt x="47" y="-84" on="1"/>
        <pt x="-55" y="-55" on="1"/>
        <pt x="365" y="796" on="1"/>
      </contour>
    </TTGlyph>
    <TTGlyph name="g" xMin="-51" yMin="-244" xMax="517" yMax="535">
      <contour>
        <pt x="232" y="-23" on="1"/>
        <pt x="131" y="-23" on="1"/>
        <pt x="78" y="-40" on="0"/>
        <pt x="70" y="-84" on="1"/>
        <pt x="69" y="-88" on="0"/>
        <pt x="69" y="-92" on="1"/>
        <pt x="69" y="-140" on="0"/>
        <pt x="169" y="-140" on="1"/>
        <pt x="290" y="-140" on="0"/>
        <pt x="301" y="-67" on="1"/>
        <pt x="302" y="-63" on="0"/>
        <pt x="302" y="-43" on="0"/>
        <pt x="275" y="-23" on="0"/>
      </contour>
      <contour>
        <pt x="249" y="419" on="1"/>
        <pt x="179" y="419" on="0"/>
        <pt x="166" y="329" on="1"/>
        <pt x="164" y="314" on="0"/>
        <pt x="164" y="278" on="0"/>
        <pt x="185" y="245" on="0"/>
        <pt x="257" y="245" on="0"/>
        <pt x="295" y="285" on="0"/>
        <pt x="306" y="346" on="0"/>
        <pt x="306" y="365" on="1"/>
        <pt x="306" y="419" on="0"/>
      </contour>
      <contour>
        <pt x="263" y="525" on="1"/>
        <pt x="350" y="520" on="1"/>
        <pt x="427" y="520" on="0"/>
        <pt x="517" y="535" on="1"/>
        <pt x="517" y="458" on="1"/>
        <pt x="497" y="453" on="0"/>
        <pt x="410" y="441" on="1"/>
        <pt x="431" y="405" on="0"/>
        <pt x="431" y="362" on="1"/>
        <pt x="431" y="346" on="0"/>
        <pt x="428" y="330" on="1"/>
        <pt x="415" y="245" on="0"/>
        <pt x="298" y="136" on="0"/>
        <pt x="205" y="136" on="1"/>
        <pt x="172" y="136" on="0"/>
        <pt x="153" y="141" on="1"/>
        <pt x="144" y="122" on="0"/>
        <pt x="142" y="108" on="1"/>
        <pt x="136" y="77" on="0"/>
        <pt x="194" y="77" on="1"/>
        <pt x="280" y="77" on="1"/>
        <pt x="357" y="77" on="0"/>
        <pt x="424" y="15" on="0"/>
        <pt x="424" y="-28" on="1"/>
        <pt x="424" y="-40" on="0"/>
        <pt x="422" y="-53" on="1"/>
        <pt x="408" y="-142" on="0"/>
        <pt x="256" y="-244" on="0"/>
        <pt x="40" y="-244" on="0"/>
        <pt x="-51" y="-177" on="0"/>
        <pt x="-51" y="-126" on="1"/>
        <pt x="-51" y="-74" on="0"/>
        <pt x="20" y="5" on="0"/>
        <pt x="71" y="26" on="1"/>
        <pt x="47" y="43" on="0"/>
        <pt x="47" y="74" on="1"/>
        <pt x="47" y="118" on="0"/>
        <pt x="91" y="166" on="1"/>
        <pt x="37" y="209" on="0"/>
        <pt x="37" y="286" on="1"/>
        <pt x="37" y="307" on="0"/>
        <pt x="41" y="330" on="1"/>
        <pt x="54" y="417" on="0"/>
        <pt x="169" y="525" on="0"/>
      </contour>
    </TTGlyph>
    <TTGlyph name="germandbls" xMin="-15" yMin="-129" xMax="565" yMax="720">
      <contour>
        <pt x="397" y="564" on="1"/>
        <pt x="397" y="612" on="0"/>
        <pt x="286" y="612" on="0"/>
        <pt x="232" y="555" on="0"/>
        <pt x="222" y="493" on="1"/>
        <pt x="123" y="-129" on="1"/>
        <pt x="-15" y="-129" on="1"/>
        <pt x="84" y="495" on="1"/>
        <pt x="102" y="609" on="0"/>
        <pt x="245" y="720" on="0"/>
        <pt x="457" y="720" on="0"/>
        <pt x="500" y="675" on="1"/>
        <pt x="534" y="639" on="0"/>
        <pt x="534" y="585" on="1"/>
        <pt x="534" y="571" on="0"/>
        <pt x="527" y="523" on="0"/>
        <pt x="484" y="466" on="0"/>
        <pt x="462" y="450" on="1"/>
        <pt x="377" y="387" on="0"/>
        <pt x="400" y="344" on="1"/>
        <pt x="406" y="331" on="0"/>
        <pt x="423" y="321" on="0"/>
        <pt x="475" y="296" on="0"/>
        <pt x="506" y="278" on="0"/>
        <pt x="553" y="239" on="0"/>
        <pt x="565" y="197" on="0"/>
        <pt x="565" y="167" on="0"/>
        <pt x="563" y="153" on="1"/>
        <pt x="550" y="76" on="0"/>
        <pt x="437" y="-13" on="0"/>
        <pt x="352" y="-13" on="1"/>
        <pt x="311" y="-13" on="0"/>
        <pt x="208" y="18" on="0"/>
        <pt x="184" y="37" on="1"/>
        <pt x="235" y="135" on="1"/>
        <pt x="322" y="96" on="0"/>
        <pt x="428" y="96" on="0"/>
        <pt x="435" y="145" on="1"/>
        <pt x="435" y="148" on="0"/>
        <pt x="435" y="150" on="1"/>
        <pt x="435" y="180" on="0"/>
        <pt x="372" y="210" on="1"/>
        <pt x="344" y="223" on="0"/>
        <pt x="289" y="257" on="0"/>
        <pt x="261" y="311" on="0"/>
        <pt x="261" y="352" on="0"/>
        <pt x="268" y="399" on="0"/>
        <pt x="310" y="457" on="0"/>
        <pt x="332" y="473" on="1"/>
        <pt x="391" y="516" on="0"/>
        <pt x="396" y="548" on="1"/>
        <pt x="397" y="557" on="0"/>
      </contour>
    </TTGlyph>
    <TTGlyph name="grave" xMin="163" yMin="587" xMax="401" yMax="774">
      <contour>
        <pt x="354" y="587" on="1"/>
        <pt x="163" y="663" on="1"/>
        <pt x="229" y="774" on="1"/>
        <pt x="401" y="665" on="1"/>
      </contour>
    </TTGlyph>
    <TTGlyph name="greater" xMin="15" yMin="60" xMax="413" yMax="502">
      <contour>
        <pt x="413" y="324" on="1"/>
        <pt x="399" y="236" on="1"/>
        <pt x="15" y="60" on="1"/>
        <pt x="34" y="180" on="1"/>
        <pt x="258" y="281" on="1"/>
        <pt x="66" y="380" on="1"/>
        <pt x="85" y="502" on="1"/>
      </contour>
    </TTGlyph>
    <TTGlyph name="guillemotleft" xMin="27" yMin="61" xMax="543" yMax="491">
      <contour>
        <pt x="543" y="421" on="1"/>
        <pt x="381" y="276" on="1"/>
        <pt x="498" y="134" on="1"/>
        <pt x="404" y="61" on="1"/>
        <pt x="258" y="247" on="1"/>
        <pt x="267" y="306" on="1"/>
        <pt x="472" y="491" on="1"/>
      </contour>
      <contour>
        <pt x="312" y="421" on="1"/>
        <pt x="149" y="276" on="1"/>
        <pt x="267" y="134" on="1"/>
        <pt x="173" y="61" on="1"/>
        <pt x="27" y="247" on="1"/>
        <pt x="36" y="306" on="1"/>
        <pt x="241" y="491" on="1"/>
      </contour>
    </TTGlyph>
    <TTGlyph name="guillemotright" xMin="11" yMin="63" xMax="527" yMax="493">
      <contour>
        <pt x="173" y="278" on="1"/>
        <pt x="56" y="423" on="1"/>
        <pt x="150" y="493" on="1"/>
        <pt x="296" y="308" on="1"/>
        <pt x="287" y="249" on="1"/>
        <pt x="81" y="63" on="1"/>
        <pt x="11" y="136" on="1"/>
      </contour>
      <contour>
        <pt x="405" y="278" on="1"/>
        <pt x="287" y="423" on="1"/>
        <pt x="381" y="493" on="1"/>
        <pt x="527" y="308" on="1"/>
        <pt x="518" y="249" on="1"/>
        <pt x="312" y="63" on="1"/>
        <pt x="242" y="136" on="1"/>
      </contour>
    </TTGlyph>
    <TTGlyph name="guilsinglleft" xMin="27" yMin="63" xMax="312" yMax="493">
      <contour>
        <pt x="312" y="423" on="1"/>
        <pt x="150" y="278" on="1"/>
        <pt x="267" y="136" on="1"/>
        <pt x="173" y="63" on="1"/>
        <pt x="27" y="249" on="1"/>
        <pt x="36" y="308" on="1"/>
        <pt x="242" y="493" on="1"/>
      </contour>
    </TTGlyph>
    <TTGlyph name="guilsinglright" xMin="11" yMin="63" xMax="296" yMax="493">
      <contour>
        <pt x="174" y="278" on="1"/>
        <pt x="56" y="423" on="1"/>
        <pt x="150" y="493" on="1"/>
        <pt x="296" y="308" on="1"/>
        <pt x="287" y="249" on="1"/>
        <pt x="81" y="63" on="1"/>
        <pt x="11" y="136" on="1"/>
      </contour>
    </TTGlyph>
    <TTGlyph name="h" xMin="6" yMin="0" xMax="508" yMax="706">
      <contour>
        <pt x="378" y="522" on="1"/>
        <pt x="438" y="522" on="0"/>
        <pt x="502" y="476" on="0"/>
        <pt x="506" y="438" on="1"/>
        <pt x="508" y="423" on="0"/>
        <pt x="508" y="380" on="0"/>
        <pt x="504" y="351" on="1"/>
        <pt x="449" y="0" on="1"/>
        <pt x="303" y="0" on="1"/>
        <pt x="354" y="326" on="1"/>
        <pt x="358" y="356" on="0"/>
        <pt x="358" y="386" on="0"/>
        <pt x="333" y="408" on="0"/>
        <pt x="305" y="408" on="1"/>
        <pt x="249" y="408" on="0"/>
        <pt x="204" y="371" on="1"/>
        <pt x="146" y="0" on="1"/>
        <pt x="6" y="0" on="1"/>
        <pt x="116" y="697" on="1"/>
        <pt x="257" y="706" on="1"/>
        <pt x="219" y="467" on="1"/>
        <pt x="299" y="522" on="0"/>
      </contour>
    </TTGlyph>
    <TTGlyph name="hungarumlaut" xMin="134" yMin="494" xMax="588" yMax="726">
      <contour>
        <pt x="367" y="644" on="1"/>
        <pt x="187" y="494" on="1"/>
        <pt x="134" y="552" on="1"/>
        <pt x="291" y="726" on="1"/>
      </contour>
      <contour>
        <pt x="588" y="644" on="1"/>
        <pt x="408" y="494" on="1"/>
        <pt x="355" y="552" on="1"/>
        <pt x="512" y="726" on="1"/>
      </contour>
    </TTGlyph>
    <TTGlyph name="hyphen" xMin="41" yMin="223" xMax="465" yMax="332">
      <contour>
        <pt x="465" y="332" on="1"/>
        <pt x="448" y="223" on="1"/>
        <pt x="41" y="223" on="1"/>
        <pt x="58" y="332" on="1"/>
      </contour>
    </TTGlyph>
    <TTGlyph name="i" xMin="6" yMin="0" xMax="265" yMax="759">
      <contour>
        <pt x="228" y="524" on="1"/>
        <pt x="146" y="0" on="1"/>
        <pt x="6" y="0" on="1"/>
        <pt x="87" y="512" on="1"/>
      </contour>
      <contour>
        <pt x="161" y="759" on="0"/>
        <pt x="229" y="759" on="0"/>
        <pt x="265" y="716" on="0"/>
        <pt x="265" y="691" on="1"/>
        <pt x="265" y="649" on="0"/>
        <pt x="203" y="594" on="0"/>
        <pt x="135" y="594" on="0"/>
        <pt x="99" y="638" on="0"/>
        <pt x="99" y="664" on="1"/>
        <pt x="99" y="706" on="0"/>
      </contour>
    </TTGlyph>
    <TTGlyph name="iacute" xMin="6" yMin="0" xMax="334" yMax="774">
      <contour>
        <pt x="334" y="663" on="1"/>
        <pt x="117" y="587" on="1"/>
        <pt x="96" y="665" on="1"/>
        <pt x="302" y="774" on="1"/>
      </contour>
      <contour>
        <pt x="228" y="524" on="1"/>
        <pt x="146" y="0" on="1"/>
        <pt x="6" y="0" on="1"/>
        <pt x="87" y="512" on="1"/>
      </contour>
    </TTGlyph>
    <TTGlyph name="icircumflex" xMin="6" yMin="0" xMax="329" yMax="762">
      <contour>
        <pt x="187" y="676" on="1"/>
        <pt x="89" y="591" on="1"/>
        <pt x="33" y="643" on="1"/>
        <pt x="163" y="762" on="1"/>
        <pt x="237" y="762" on="1"/>
        <pt x="329" y="643" on="1"/>
        <pt x="257" y="591" on="1"/>
      </contour>
      <contour>
        <pt x="146" y="0" on="1"/>
        <pt x="6" y="0" on="1"/>
        <pt x="87" y="512" on="1"/>
        <pt x="228" y="524" on="1"/>
      </contour>
    </TTGlyph>
    <TTGlyph name="idieresis" xMin="6" yMin="0" xMax="349" yMax="735">
      <contour>
        <pt x="76" y="735" on="0"/>
        <pt x="135" y="735" on="0"/>
        <pt x="165" y="700" on="0"/>
        <pt x="165" y="673" on="0"/>
        <pt x="164" y="667" on="1"/>
        <pt x="160" y="637" on="0"/>
        <pt x="113" y="596" on="0"/>
        <pt x="54" y="596" on="0"/>
        <pt x="25" y="632" on="0"/>
        <pt x="25" y="646" on="1"/>
        <pt x="25" y="690" on="0"/>
      </contour>
      <contour>
        <pt x="261" y="735" on="0"/>
        <pt x="319" y="735" on="0"/>
        <pt x="349" y="699" on="0"/>
        <pt x="349" y="678" on="1"/>
        <pt x="349" y="641" on="0"/>
        <pt x="297" y="596" on="0"/>
        <pt x="239" y="596" on="0"/>
        <pt x="209" y="632" on="0"/>
        <pt x="209" y="646" on="1"/>
        <pt x="209" y="690" on="0"/>
      </contour>
      <contour>
        <pt x="228" y="524" on="1"/>
        <pt x="146" y="0" on="1"/>
        <pt x="6" y="0" on="1"/>
        <pt x="87" y="512" on="1"/>
      </contour>
    </TTGlyph>
    <TTGlyph name="igrave" xMin="6" yMin="0" xMax="277" yMax="774">
      <contour>
        <pt x="230" y="587" on="1"/>
        <pt x="39" y="663" on="1"/>
        <pt x="105" y="774" on="1"/>
        <pt x="277" y="665" on="1"/>
      </contour>
      <contour>
        <pt x="228" y="524" on="1"/>
        <pt x="146" y="0" on="1"/>
        <pt x="6" y="0" on="1"/>
        <pt x="87" y="512" on="1"/>
      </contour>
    </TTGlyph>
    <TTGlyph name="j" xMin="-145" yMin="-207" xMax="267" yMax="762">
      <contour>
        <pt x="227" y="522" on="1"/>
        <pt x="153" y="51" on="1"/>
        <pt x="113" y="-194" on="0"/>
        <pt x="-145" y="-207" on="1"/>
        <pt x="-139" y="-99" on="1"/>
        <pt x="-66" y="-87" on="0"/>
        <pt x="3" y="-17" on="0"/>
        <pt x="15" y="60" on="1"/>
        <pt x="86" y="508" on="1"/>
      </contour>
      <contour>
        <pt x="160" y="762" on="0"/>
        <pt x="230" y="762" on="0"/>
        <pt x="267" y="718" on="0"/>
        <pt x="267" y="692" on="1"/>
        <pt x="267" y="649" on="0"/>
        <pt x="203" y="593" on="0"/>
        <pt x="133" y="593" on="0"/>
        <pt x="97" y="638" on="0"/>
        <pt x="97" y="665" on="1"/>
        <pt x="97" y="708" on="0"/>
      </contour>
    </TTGlyph>
    <TTGlyph name="k" xMin="6" yMin="0" xMax="549" yMax="709">
      <contour>
        <pt x="397" y="512" on="1"/>
        <pt x="549" y="512" on="1"/>
        <pt x="327" y="281" on="1"/>
        <pt x="507" y="0" on="1"/>
        <pt x="347" y="0" on="1"/>
        <pt x="187" y="261" on="1"/>
        <pt x="146" y="0" on="1"/>
        <pt x="6" y="0" on="1"/>
        <pt x="116" y="699" on="1"/>
        <pt x="258" y="709" on="1"/>
        <pt x="192" y="293" on="1"/>
      </contour>
    </TTGlyph>
    <TTGlyph name="l" xMin="26" yMin="-13" xMax="268" yMax="700">
      <contour>
        <pt x="268" y="9" on="1"/>
        <pt x="214" y="-13" on="0"/>
        <pt x="117" y="-13" on="0"/>
        <pt x="59" y="9" on="0"/>
        <pt x="46" y="23" on="1"/>
        <pt x="26" y="43" on="0"/>
        <pt x="26" y="98" on="1"/>
        <pt x="26" y="115" on="0"/>
        <pt x="33" y="161" on="1"/>
        <pt x="118" y="700" on="1"/>
        <pt x="259" y="700" on="1"/>
        <pt x="173" y="153" on="1"/>
        <pt x="171" y="140" on="0"/>
        <pt x="171" y="119" on="0"/>
        <pt x="181" y="100" on="0"/>
        <pt x="233" y="100" on="0"/>
        <pt x="262" y="107" on="1"/>
      </contour>
    </TTGlyph>
    <TTGlyph name="less" xMin="21" yMin="60" xMax="419" yMax="502">
      <contour>
        <pt x="21" y="236" on="1"/>
        <pt x="35" y="324" on="1"/>
        <pt x="419" y="502" on="1"/>
        <pt x="400" y="380" on="1"/>
        <pt x="176" y="281" on="1"/>
        <pt x="368" y="180" on="1"/>
        <pt x="349" y="60" on="1"/>
      </contour>
    </TTGlyph>
    <TTGlyph name="logicalnot" xMin="54" yMin="225" xMax="529" yMax="442">
      <contour>
        <pt x="494" y="225" on="1"/>
        <pt x="384" y="225" on="1"/>
        <pt x="401" y="333" on="1"/>
        <pt x="54" y="333" on="1"/>
        <pt x="72" y="442" on="1"/>
        <pt x="529" y="442" on="1"/>
      </contour>
    </TTGlyph>
    <TTGlyph name="lslash" xMin="19" yMin="-13" xMax="438" yMax="700">
      <contour>
        <pt x="317" y="9" on="1"/>
        <pt x="263" y="-13" on="0"/>
        <pt x="166" y="-13" on="0"/>
        <pt x="108" y="9" on="0"/>
        <pt x="94" y="23" on="1"/>
        <pt x="75" y="43" on="0"/>
        <pt x="75" y="98" on="1"/>
        <pt x="75" y="115" on="0"/>
        <pt x="82" y="161" on="1"/>
        <pt x="100" y="274" on="1"/>
        <pt x="19" y="274" on="1"/>
        <pt x="36" y="383" on="1"/>
        <pt x="117" y="383" on="1"/>
        <pt x="167" y="700" on="1"/>
        <pt x="308" y="700" on="1"/>
        <pt x="258" y="383" on="1"/>
        <pt x="438" y="383" on="1"/>
        <pt x="421" y="274" on="1"/>
        <pt x="241" y="274" on="1"/>
        <pt x="222" y="153" on="1"/>
        <pt x="220" y="140" on="0"/>
        <pt x="220" y="119" on="0"/>
        <pt x="230" y="100" on="0"/>
        <pt x="282" y="100" on="0"/>
        <pt x="311" y="107" on="1"/>
      </contour>
    </TTGlyph>
    <TTGlyph name="m" xMin="6" yMin="0" xMax="798" yMax="522">
      <contour>
        <pt x="235" y="482" on="0"/>
        <pt x="332" y="522" on="0"/>
        <pt x="434" y="522" on="0"/>
        <pt x="485" y="488" on="0"/>
        <pt x="496" y="453" on="1"/>
        <pt x="528" y="481" on="0"/>
        <pt x="627" y="522" on="0"/>
        <pt x="733" y="522" on="0"/>
        <pt x="794" y="476" on="0"/>
        <pt x="797" y="438" on="1"/>
        <pt x="798" y="425" on="0"/>
        <pt x="798" y="384" on="0"/>
        <pt x="794" y="351" on="1"/>
        <pt x="739" y="0" on="1"/>
        <pt x="599" y="0" on="1"/>
        <pt x="650" y="326" on="1"/>
        <pt x="654" y="356" on="0"/>
        <pt x="654" y="386" on="0"/>
        <pt x="629" y="408" on="0"/>
        <pt x="601" y="408" on="1"/>
        <pt x="545" y="408" on="0"/>
        <pt x="500" y="371" on="1"/>
        <pt x="500" y="364" on="0"/>
        <pt x="498" y="350" on="1"/>
        <pt x="443" y="0" on="1"/>
        <pt x="303" y="0" on="1"/>
        <pt x="354" y="326" on="1"/>
        <pt x="358" y="356" on="0"/>
        <pt x="358" y="386" on="0"/>
        <pt x="333" y="408" on="0"/>
        <pt x="305" y="408" on="1"/>
        <pt x="249" y="408" on="0"/>
        <pt x="204" y="371" on="1"/>
        <pt x="146" y="0" on="1"/>
        <pt x="6" y="0" on="1"/>
        <pt x="87" y="513" on="1"/>
        <pt x="202" y="513" on="1"/>
        <pt x="205" y="456" on="1"/>
      </contour>
    </TTGlyph>
    <TTGlyph name="macron" xMin="130" yMin="541" xMax="589" yMax="650">
      <contour>
        <pt x="589" y="650" on="1"/>
        <pt x="572" y="541" on="1"/>
        <pt x="130" y="541" on="1"/>
        <pt x="147" y="650" on="1"/>
      </contour>
    </TTGlyph>
    <TTGlyph name="minus" xMin="44" yMin="223" xMax="473" yMax="332">
      <contour>
        <pt x="473" y="332" on="1"/>
        <pt x="456" y="223" on="1"/>
        <pt x="44" y="223" on="1"/>
        <pt x="61" y="332" on="1"/>
      </contour>
    </TTGlyph>
    <TTGlyph name="mu" xMin="-16" yMin="-201" xMax="539" yMax="513">
      <contour>
        <pt x="203" y="-3" on="1"/>
        <pt x="175" y="-3" on="0"/>
        <pt x="156" y="6" on="1"/>
        <pt x="124" y="-201" on="1"/>
        <pt x="-16" y="-201" on="1"/>
        <pt x="97" y="513" on="1"/>
        <pt x="237" y="513" on="1"/>
        <pt x="184" y="183" on="1"/>
        <pt x="181" y="155" on="0"/>
        <pt x="181" y="124" on="0"/>
        <pt x="208" y="101" on="0"/>
        <pt x="236" y="101" on="1"/>
        <pt x="291" y="101" on="0"/>
        <pt x="336" y="132" on="1"/>
        <pt x="397" y="513" on="1"/>
        <pt x="537" y="513" on="1"/>
        <pt x="475" y="122" on="1"/>
        <pt x="474" y="117" on="0"/>
        <pt x="474" y="113" on="1"/>
        <pt x="474" y="94" on="0"/>
        <pt x="495" y="94" on="1"/>
        <pt x="509" y="94" on="0"/>
        <pt x="533" y="100" on="1"/>
        <pt x="539" y="17" on="1"/>
        <pt x="483" y="-11" on="0"/>
        <pt x="426" y="-11" on="1"/>
        <pt x="350" y="-11" on="0"/>
        <pt x="337" y="53" on="1"/>
        <pt x="273" y="-3" on="0"/>
      </contour>
    </TTGlyph>
    <TTGlyph name="multiply" xMin="15" yMin="73" xMax="495" yMax="506">
      <contour>
        <pt x="454" y="152" on="1"/>
        <pt x="363" y="75" on="1"/>
        <pt x="245" y="213" on="1"/>
        <pt x="83" y="73" on="1"/>
        <pt x="15" y="150" on="1"/>
        <pt x="177" y="290" on="1"/>
        <pt x="61" y="427" on="1"/>
        <pt x="153" y="506" on="1"/>
        <pt x="268" y="369" on="1"/>
        <pt x="428" y="506" on="1"/>
        <pt x="495" y="428" on="1"/>
        <pt x="337" y="292" on="1"/>
      </contour>
    </TTGlyph>
    <TTGlyph name="n" xMin="6" yMin="0" xMax="509" yMax="522">
      <contour>
        <pt x="381" y="522" on="1"/>
        <pt x="468" y="522" on="0"/>
        <pt x="492" y="478" on="1"/>
        <pt x="509" y="448" on="0"/>
        <pt x="509" y="379" on="0"/>
        <pt x="504" y="351" on="1"/>
        <pt x="449" y="0" on="1"/>
        <pt x="309" y="0" on="1"/>
        <pt x="360" y="326" on="1"/>
        <pt x="363" y="348" on="0"/>
        <pt x="363" y="385" on="0"/>
        <pt x="336" y="408" on="0"/>
        <pt x="308" y="408" on="1"/>
        <pt x="252" y="408" on="0"/>
        <pt x="207" y="371" on="1"/>
        <pt x="149" y="0" on="1"/>
        <pt x="6" y="0" on="1"/>
        <pt x="87" y="513" on="1"/>
        <pt x="205" y="513" on="1"/>
        <pt x="208" y="456" on="1"/>
        <pt x="242" y="483" on="0"/>
        <pt x="336" y="522" on="0"/>
      </contour>
    </TTGlyph>
    <TTGlyph name="nine" xMin="17" yMin="-12" xMax="482" yMax="679">
      <contour>
        <pt x="308" y="679" on="1"/>
        <pt x="482" y="679" on="0"/>
        <pt x="482" y="481" on="1"/>
        <pt x="482" y="438" on="0"/>
        <pt x="473" y="384" on="1"/>
        <pt x="443" y="193" on="0"/>
        <pt x="261" y="-12" on="0"/>
        <pt x="138" y="-12" on="1"/>
        <pt x="76" y="-12" on="0"/>
        <pt x="17" y="16" on="1"/>
        <pt x="65" y="123" on="1"/>
        <pt x="98" y="110" on="0"/>
        <pt x="197" y="110" on="0"/>
        <pt x="278" y="180" on="0"/>
        <pt x="303" y="254" on="1"/>
        <pt x="281" y="236" on="0"/>
        <pt x="222" y="218" on="0"/>
        <pt x="203" y="218" on="1"/>
        <pt x="119" y="218" on="0"/>
        <pt x="78" y="272" on="1"/>
        <pt x="50" y="310" on="0"/>
        <pt x="50" y="375" on="1"/>
        <pt x="50" y="403" on="0"/>
        <pt x="55" y="435" on="1"/>
        <pt x="72" y="539" on="0"/>
        <pt x="204" y="679" on="0"/>
      </contour>
      <contour>
        <pt x="340" y="476" on="1"/>
        <pt x="340" y="563" on="0"/>
        <pt x="287" y="563" on="1"/>
        <pt x="250" y="563" on="0"/>
        <pt x="199" y="496" on="0"/>
        <pt x="189" y="435" on="1"/>
        <pt x="186" y="418" on="0"/>
        <pt x="186" y="375" on="0"/>
        <pt x="212" y="334" on="0"/>
        <pt x="288" y="333" on="0"/>
        <pt x="330" y="356" on="1"/>
        <pt x="340" y="431" on="0"/>
      </contour>
    </TTGlyph>
    <TTGlyph name="ntilde" xMin="6" yMin="0" xMax="509" yMax="728">
      <contour>
        <pt x="294" y="728" on="0"/>
        <pt x="376" y="685" on="0"/>
        <pt x="422" y="685" on="0"/>
        <pt x="457" y="720" on="1"/>
        <pt x="497" y="666" on="1"/>
        <pt x="474" y="636" on="0"/>
        <pt x="406" y="591" on="0"/>
        <pt x="351" y="591" on="0"/>
        <pt x="270" y="634" on="0"/>
        <pt x="225" y="634" on="0"/>
        <pt x="190" y="599" on="1"/>
        <pt x="150" y="653" on="1"/>
        <pt x="173" y="683" on="0"/>
        <pt x="239" y="728" on="0"/>
      </contour>
      <contour>
        <pt x="381" y="522" on="1"/>
        <pt x="468" y="522" on="0"/>
        <pt x="492" y="478" on="1"/>
        <pt x="509" y="448" on="0"/>
        <pt x="509" y="379" on="0"/>
        <pt x="504" y="351" on="1"/>
        <pt x="449" y="0" on="1"/>
        <pt x="309" y="0" on="1"/>
        <pt x="360" y="326" on="1"/>
        <pt x="363" y="348" on="0"/>
        <pt x="363" y="385" on="0"/>
        <pt x="336" y="408" on="0"/>
        <pt x="308" y="408" on="1"/>
        <pt x="252" y="408" on="0"/>
        <pt x="207" y="371" on="1"/>
        <pt x="149" y="0" on="1"/>
        <pt x="6" y="0" on="1"/>
        <pt x="87" y="513" on="1"/>
        <pt x="205" y="513" on="1"/>
        <pt x="208" y="456" on="1"/>
        <pt x="242" y="483" on="0"/>
        <pt x="336" y="522" on="0"/>
      </contour>
    </TTGlyph>
    <TTGlyph name="numbersign" xMin="19" yMin="-13" xMax="630" yMax="668">
      <contour>
        <pt x="352" y="277" on="1"/>
        <pt x="384" y="372" on="1"/>
        <pt x="279" y="372" on="1"/>
        <pt x="247" y="277" on="1"/>
      </contour>
      <contour>
        <pt x="582" y="172" on="1"/>
        <pt x="428" y="172" on="1"/>
        <pt x="366" y="-13" on="1"/>
        <pt x="255" y="-13" on="1"/>
        <pt x="317" y="172" on="1"/>
        <pt x="212" y="172" on="1"/>
        <pt x="150" y="-13" on="1"/>
        <pt x="39" y="-13" on="1"/>
        <pt x="101" y="172" on="1"/>
        <pt x="19" y="172" on="1"/>
        <pt x="35" y="277" on="1"/>
        <pt x="136" y="277" on="1"/>
        <pt x="168" y="372" on="1"/>
        <pt x="56" y="372" on="1"/>
        <pt x="73" y="476" on="1"/>
        <pt x="203" y="476" on="1"/>
        <pt x="268" y="668" on="1"/>
        <pt x="378" y="668" on="1"/>
        <pt x="314" y="476" on="1"/>
        <pt x="419" y="476" on="1"/>
        <pt x="484" y="668" on="1"/>
        <pt x="594" y="668" on="1"/>
        <pt x="530" y="476" on="1"/>
        <pt x="630" y="476" on="1"/>
        <pt x="613" y="372" on="1"/>
        <pt x="495" y="372" on="1"/>
        <pt x="463" y="277" on="1"/>
        <pt x="598" y="277" on="1"/>
      </contour>
    </TTGlyph>
    <TTGlyph name="o" xMin="19" yMin="-13" xMax="478" yMax="522">
      <contour>
        <pt x="449" y="116" on="0"/>
        <pt x="304" y="-13" on="0"/>
        <pt x="102" y="-13" on="0"/>
        <pt x="53" y="50" on="1"/>
        <pt x="19" y="94" on="0"/>
        <pt x="19" y="175" on="1"/>
        <pt x="19" y="211" on="0"/>
        <pt x="26" y="254" on="1"/>
        <pt x="48" y="393" on="0"/>
        <pt x="191" y="522" on="0"/>
        <pt x="291" y="522" on="1"/>
        <pt x="478" y="522" on="0"/>
        <pt x="478" y="333" on="1"/>
        <pt x="478" y="297" on="0"/>
        <pt x="471" y="255" on="1"/>
      </contour>
      <contour>
        <pt x="342" y="329" on="1"/>
        <pt x="342" y="414" on="0"/>
        <pt x="274" y="414" on="1"/>
        <pt x="231" y="414" on="0"/>
        <pt x="176" y="348" on="0"/>
        <pt x="161" y="254" on="1"/>
        <pt x="155" y="214" on="0"/>
        <pt x="155" y="185" on="1"/>
        <pt x="155" y="94" on="0"/>
        <pt x="222" y="94" on="1"/>
        <pt x="264" y="94" on="0"/>
        <pt x="321" y="165" on="0"/>
        <pt x="335" y="254" on="1"/>
        <pt x="342" y="298" on="0"/>
      </contour>
    </TTGlyph>
    <TTGlyph name="oacute" xMin="19" yMin="-13" xMax="478" yMax="774">
      <contour>
        <pt x="449" y="116" on="0"/>
        <pt x="304" y="-13" on="0"/>
        <pt x="102" y="-13" on="0"/>
        <pt x="53" y="50" on="1"/>
        <pt x="19" y="94" on="0"/>
        <pt x="19" y="175" on="1"/>
        <pt x="19" y="211" on="0"/>
        <pt x="26" y="254" on="1"/>
        <pt x="48" y="393" on="0"/>
        <pt x="191" y="522" on="0"/>
        <pt x="291" y="522" on="1"/>
        <pt x="478" y="522" on="0"/>
        <pt x="478" y="333" on="1"/>
        <pt x="478" y="297" on="0"/>
        <pt x="471" y="255" on="1"/>
      </contour>
      <contour>
        <pt x="342" y="329" on="1"/>
        <pt x="342" y="414" on="0"/>
        <pt x="274" y="414" on="1"/>
        <pt x="231" y="414" on="0"/>
        <pt x="176" y="348" on="0"/>
        <pt x="161" y="254" on="1"/>
        <pt x="155" y="214" on="0"/>
        <pt x="155" y="185" on="1"/>
        <pt x="155" y="94" on="0"/>
        <pt x="222" y="94" on="1"/>
        <pt x="264" y="94" on="0"/>
        <pt x="321" y="165" on="0"/>
        <pt x="335" y="254" on="1"/>
        <pt x="342" y="298" on="0"/>
      </contour>
      <contour>
        <pt x="466" y="663" on="1"/>
        <pt x="249" y="587" on="1"/>
        <pt x="228" y="665" on="1"/>
        <pt x="434" y="774" on="1"/>
      </contour>
    </TTGlyph>
    <TTGlyph name="ocircumflex" xMin="19" yMin="-13" xMax="478" yMax="762">
      <contour>
        <pt x="53" y="50" on="1"/>
        <pt x="19" y="94" on="0"/>
        <pt x="19" y="175" on="1"/>
        <pt x="19" y="211" on="0"/>
        <pt x="26" y="254" on="1"/>
        <pt x="48" y="393" on="0"/>
        <pt x="191" y="522" on="0"/>
        <pt x="291" y="522" on="1"/>
        <pt x="478" y="522" on="0"/>
        <pt x="478" y="333" on="1"/>
        <pt x="478" y="297" on="0"/>
        <pt x="471" y="255" on="1"/>
        <pt x="449" y="116" on="0"/>
        <pt x="304" y="-13" on="0"/>
        <pt x="102" y="-13" on="0"/>
      </contour>
      <contour>
        <pt x="222" y="94" on="1"/>
        <pt x="264" y="94" on="0"/>
        <pt x="321" y="165" on="0"/>
        <pt x="335" y="254" on="1"/>
        <pt x="342" y="298" on="0"/>
        <pt x="342" y="329" on="1"/>
        <pt x="342" y="414" on="0"/>
        <pt x="274" y="414" on="1"/>
        <pt x="231" y="414" on="0"/>
        <pt x="176" y="348" on="0"/>
        <pt x="161" y="254" on="1"/>
        <pt x="155" y="214" on="0"/>
        <pt x="155" y="185" on="1"/>
        <pt x="155" y="94" on="0"/>
      </contour>
      <contour>
        <pt x="313" y="676" on="1"/>
        <pt x="215" y="591" on="1"/>
        <pt x="159" y="643" on="1"/>
        <pt x="289" y="762" on="1"/>
        <pt x="363" y="762" on="1"/>
        <pt x="455" y="643" on="1"/>
        <pt x="383" y="591" on="1"/>
      </contour>
    </TTGlyph>
    <TTGlyph name="odieresis" xMin="19" yMin="-13" xMax="478" yMax="735">
      <contour>
        <pt x="449" y="116" on="0"/>
        <pt x="304" y="-13" on="0"/>
        <pt x="102" y="-13" on="0"/>
        <pt x="53" y="50" on="1"/>
        <pt x="19" y="94" on="0"/>
        <pt x="19" y="175" on="1"/>
        <pt x="19" y="211" on="0"/>
        <pt x="26" y="254" on="1"/>
        <pt x="48" y="393" on="0"/>
        <pt x="191" y="522" on="0"/>
        <pt x="291" y="522" on="1"/>
        <pt x="478" y="522" on="0"/>
        <pt x="478" y="333" on="1"/>
        <pt x="478" y="297" on="0"/>
        <pt x="471" y="255" on="1"/>
      </contour>
      <contour>
        <pt x="342" y="329" on="1"/>
        <pt x="342" y="414" on="0"/>
        <pt x="274" y="414" on="1"/>
        <pt x="231" y="414" on="0"/>
        <pt x="176" y="348" on="0"/>
        <pt x="161" y="254" on="1"/>
        <pt x="155" y="214" on="0"/>
        <pt x="155" y="185" on="1"/>
        <pt x="155" y="94" on="0"/>
        <pt x="222" y="94" on="1"/>
        <pt x="264" y="94" on="0"/>
        <pt x="321" y="165" on="0"/>
        <pt x="335" y="254" on="1"/>
        <pt x="342" y="298" on="0"/>
      </contour>
      <contour>
        <pt x="200" y="735" on="0"/>
        <pt x="259" y="735" on="0"/>
        <pt x="289" y="700" on="0"/>
        <pt x="289" y="673" on="0"/>
        <pt x="288" y="667" on="1"/>
        <pt x="284" y="637" on="0"/>
        <pt x="237" y="596" on="0"/>
        <pt x="178" y="596" on="0"/>
        <pt x="149" y="632" on="0"/>
        <pt x="149" y="646" on="1"/>
        <pt x="149" y="690" on="0"/>
      </contour>
      <contour>
        <pt x="385" y="735" on="0"/>
        <pt x="443" y="735" on="0"/>
        <pt x="473" y="699" on="0"/>
        <pt x="473" y="678" on="1"/>
        <pt x="473" y="641" on="0"/>
        <pt x="421" y="596" on="0"/>
        <pt x="363" y="596" on="0"/>
        <pt x="333" y="632" on="0"/>
        <pt x="333" y="646" on="1"/>
        <pt x="333" y="690" on="0"/>
      </contour>
    </TTGlyph>
    <TTGlyph name="oe" xMin="19" yMin="-13" xMax="782" yMax="522">
      <contour>
        <pt x="750" y="474" on="1"/>
        <pt x="781" y="438" on="0"/>
        <pt x="781" y="320" on="0"/>
        <pt x="749" y="242" on="1"/>
        <pt x="473" y="242" on="1"/>
        <pt x="470" y="220" on="0"/>
        <pt x="470" y="201" on="1"/>
        <pt x="470" y="92" on="0"/>
        <pt x="582" y="92" on="1"/>
        <pt x="646" y="92" on="0"/>
        <pt x="711" y="115" on="1"/>
        <pt x="720" y="20" on="1"/>
        <pt x="638" y="-13" on="0"/>
        <pt x="543" y="-13" on="1"/>
        <pt x="423" y="-13" on="0"/>
        <pt x="379" y="67" on="1"/>
        <pt x="312" y="-13" on="0"/>
        <pt x="102" y="-13" on="0"/>
        <pt x="53" y="50" on="1"/>
        <pt x="19" y="94" on="0"/>
        <pt x="19" y="175" on="1"/>
        <pt x="19" y="211" on="0"/>
        <pt x="26" y="254" on="1"/>
        <pt x="48" y="393" on="0"/>
        <pt x="191" y="522" on="0"/>
        <pt x="402" y="522" on="0"/>
        <pt x="441" y="441" on="1"/>
        <pt x="510" y="522" on="0"/>
        <pt x="620" y="522" on="1"/>
        <pt x="709" y="522" on="0"/>
      </contour>
      <contour>
        <pt x="155" y="185" on="1"/>
        <pt x="155" y="94" on="0"/>
        <pt x="222" y="94" on="1"/>
        <pt x="266" y="94" on="0"/>
        <pt x="325" y="165" on="0"/>
        <pt x="339" y="254" on="1"/>
        <pt x="346" y="297" on="0"/>
        <pt x="346" y="330" on="1"/>
        <pt x="346" y="414" on="0"/>
        <pt x="274" y="414" on="1"/>
        <pt x="231" y="414" on="0"/>
        <pt x="176" y="348" on="0"/>
        <pt x="161" y="254" on="1"/>
        <pt x="155" y="214" on="0"/>
      </contour>
      <contour>
        <pt x="662" y="318" on="1"/>
        <pt x="666" y="340" on="0"/>
        <pt x="666" y="356" on="1"/>
        <pt x="666" y="423" on="0"/>
        <pt x="608" y="423" on="1"/>
        <pt x="521" y="423" on="0"/>
        <pt x="486" y="318" on="1"/>
      </contour>
    </TTGlyph>
    <TTGlyph name="ogonek" xMin="20" yMin="-243" xMax="227" yMax="-13">
      <contour>
        <pt x="141" y="-118" on="0"/>
        <pt x="157" y="-134" on="0"/>
        <pt x="194" y="-134" on="0"/>
        <pt x="224" y="-125" on="1"/>
        <pt x="227" y="-218" on="1"/>
        <pt x="163" y="-243" on="0"/>
        <pt x="62" y="-243" on="0"/>
        <pt x="20" y="-193" on="0"/>
        <pt x="20" y="-161" on="1"/>
        <pt x="20" y="-152" on="0"/>
        <pt x="22" y="-142" on="1"/>
        <pt x="34" y="-65" on="0"/>
        <pt x="103" y="-13" on="1"/>
        <pt x="213" y="-13" on="1"/>
        <pt x="150" y="-63" on="0"/>
        <pt x="143" y="-105" on="1"/>
      </contour>
    </TTGlyph>
    <TTGlyph name="ograve" xMin="19" yMin="-13" xMax="478" yMax="774">
      <contour>
        <pt x="449" y="116" on="0"/>
        <pt x="304" y="-13" on="0"/>
        <pt x="102" y="-13" on="0"/>
        <pt x="53" y="50" on="1"/>
        <pt x="19" y="94" on="0"/>
        <pt x="19" y="175" on="1"/>
        <pt x="19" y="211" on="0"/>
        <pt x="26" y="254" on="1"/>
        <pt x="48" y="393" on="0"/>
        <pt x="191" y="522" on="0"/>
        <pt x="291" y="522" on="1"/>
        <pt x="478" y="522" on="0"/>
        <pt x="478" y="333" on="1"/>
        <pt x="478" y="297" on="0"/>
        <pt x="471" y="255" on="1"/>
      </contour>
      <contour>
        <pt x="342" y="329" on="1"/>
        <pt x="342" y="414" on="0"/>
        <pt x="274" y="414" on="1"/>
        <pt x="231" y="414" on="0"/>
        <pt x="176" y="348" on="0"/>
        <pt x="161" y="254" on="1"/>
        <pt x="155" y="214" on="0"/>
        <pt x="155" y="185" on="1"/>
        <pt x="155" y="94" on="0"/>
        <pt x="222" y="94" on="1"/>
        <pt x="264" y="94" on="0"/>
        <pt x="321" y="165" on="0"/>
        <pt x="335" y="254" on="1"/>
        <pt x="342" y="298" on="0"/>
      </contour>
      <contour>
        <pt x="380" y="587" on="1"/>
        <pt x="189" y="663" on="1"/>
        <pt x="255" y="774" on="1"/>
        <pt x="427" y="665" on="1"/>
      </contour>
    </TTGlyph>
    <TTGlyph name="one" xMin="49" yMin="1" xMax="368" yMax="668">
      <contour>
        <pt x="263" y="1" on="1"/>
        <pt x="124" y="1" on="1"/>
        <pt x="208" y="536" on="1"/>
        <pt x="77" y="483" on="1"/>
        <pt x="49" y="582" on="1"/>
        <pt x="260" y="668" on="1"/>
        <pt x="368" y="668" on="1"/>
      </contour>
    </TTGlyph>
    <TTGlyph name="onehalf" xMin="71" yMin="-84" xMax="800" yMax="796">
      <contour>
        <pt x="236" y="272" on="1"/>
        <pt x="133" y="272" on="1"/>
        <pt x="181" y="580" on="1"/>
        <pt x="90" y="544" on="1"/>
        <pt x="71" y="625" on="1"/>
        <pt x="224" y="687" on="1"/>
        <pt x="301" y="687" on="1"/>
      </contour>
      <contour>
        <pt x="703" y="334" on="0"/>
        <pt x="636" y="334" on="0"/>
        <pt x="575" y="313" on="1"/>
        <pt x="561" y="390" on="1"/>
        <pt x="635" y="422" on="0"/>
        <pt x="747" y="422" on="0"/>
        <pt x="800" y="361" on="0"/>
        <pt x="800" y="321" on="1"/>
        <pt x="800" y="310" on="0"/>
        <pt x="798" y="298" on="1"/>
        <pt x="790" y="249" on="0"/>
        <pt x="723" y="173" on="1"/>
        <pt x="703" y="150" on="0"/>
        <pt x="657" y="110" on="0"/>
        <pt x="638" y="91" on="0"/>
        <pt x="632" y="86" on="1"/>
        <pt x="777" y="86" on="1"/>
        <pt x="763" y="-2" on="1"/>
        <pt x="486" y="-2" on="1"/>
        <pt x="498" y="73" on="1"/>
        <pt x="511" y="84" on="0"/>
        <pt x="596" y="160" on="0"/>
        <pt x="645" y="209" on="1"/>
        <pt x="703" y="270" on="0"/>
      </contour>
      <contour>
        <pt x="679" y="765" on="1"/>
        <pt x="262" y="-84" on="1"/>
        <pt x="159" y="-55" on="1"/>
        <pt x="579" y="796" on="1"/>
      </contour>
    </TTGlyph>
    <TTGlyph name="onequarter" xMin="71" yMin="-84" xMax="829" yMax="796">
      <contour>
        <pt x="818" y="109" on="1"/>
        <pt x="755" y="109" on="1"/>
        <pt x="738" y="0" on="1"/>
        <pt x="643" y="0" on="1"/>
        <pt x="660" y="109" on="1"/>
        <pt x="496" y="109" on="1"/>
        <pt x="504" y="164" on="1"/>
        <pt x="683" y="408" on="1"/>
        <pt x="802" y="408" on="1"/>
        <pt x="766" y="181" on="1"/>
        <pt x="829" y="181" on="1"/>
      </contour>
      <contour>
        <pt x="671" y="181" on="1"/>
        <pt x="691" y="305" on="1"/>
        <pt x="605" y="181" on="1"/>
      </contour>
      <contour>
        <pt x="236" y="272" on="1"/>
        <pt x="133" y="272" on="1"/>
        <pt x="181" y="580" on="1"/>
        <pt x="90" y="544" on="1"/>
        <pt x="71" y="625" on="1"/>
        <pt x="224" y="687" on="1"/>
        <pt x="301" y="687" on="1"/>
      </contour>
      <contour>
        <pt x="695" y="765" on="1"/>
        <pt x="278" y="-84" on="1"/>
        <pt x="175" y="-55" on="1"/>
        <pt x="595" y="796" on="1"/>
      </contour>
    </TTGlyph>
    <TTGlyph name="onesuperior" xMin="58" yMin="251" xMax="288" yMax="666">
      <contour>
        <pt x="222" y="251" on="1"/>
        <pt x="119" y="251" on="1"/>
        <pt x="168" y="559" on="1"/>
        <pt x="76" y="523" on="1"/>
        <pt x="58" y="604" on="1"/>
        <pt x="211" y="666" on="1"/>
        <pt x="288" y="666" on="1"/>
      </contour>
    </TTGlyph>
    <TTGlyph name="ordfeminine" xMin="61" yMin="403" xMax="329" yMax="703">
      <contour>
        <pt x="329" y="421" on="1"/>
        <pt x="296" y="404" on="0"/>
        <pt x="230" y="404" on="0"/>
        <pt x="217" y="428" on="1"/>
        <pt x="180" y="403" on="0"/>
        <pt x="95" y="403" on="0"/>
        <pt x="62" y="443" on="0"/>
        <pt x="62" y="469" on="1"/>
        <pt x="62" y="477" on="0"/>
        <pt x="63" y="486" on="1"/>
        <pt x="72" y="534" on="0"/>
        <pt x="141" y="571" on="0"/>
        <pt x="211" y="571" on="0"/>
        <pt x="230" y="569" on="1"/>
        <pt x="234" y="595" on="1"/>
        <pt x="235" y="602" on="0"/>
        <pt x="235" y="613" on="1"/>
        <pt x="235" y="637" on="0"/>
        <pt x="193" y="637" on="1"/>
        <pt x="169" y="637" on="0"/>
        <pt x="126" y="624" on="1"/>
        <pt x="117" y="677" on="1"/>
        <pt x="164" y="703" on="0"/>
        <pt x="281" y="703" on="0"/>
        <pt x="301" y="678" on="1"/>
        <pt x="315" y="662" on="0"/>
        <pt x="315" y="614" on="0"/>
        <pt x="312" y="596" on="1"/>
        <pt x="293" y="479" on="1"/>
        <pt x="292" y="467" on="0"/>
        <pt x="315" y="467" on="0"/>
        <pt x="326" y="471" on="1"/>
      </contour>
      <contour>
        <pt x="198" y="528" on="1"/>
        <pt x="140" y="528" on="0"/>
        <pt x="140" y="485" on="1"/>
        <pt x="140" y="459" on="0"/>
        <pt x="168" y="459" on="1"/>
        <pt x="191" y="459" on="0"/>
        <pt x="214" y="472" on="1"/>
        <pt x="223" y="527" on="1"/>
        <pt x="213" y="527" on="1"/>
      </contour>
    </TTGlyph>
    <TTGlyph name="ordmasculine" xMin="72" yMin="402" xMax="331" yMax="703">
      <contour>
        <pt x="175" y="402" on="1"/>
        <pt x="72" y="402" on="0"/>
        <pt x="72" y="507" on="1"/>
        <pt x="72" y="528" on="0"/>
        <pt x="76" y="552" on="1"/>
        <pt x="89" y="630" on="0"/>
        <pt x="170" y="703" on="0"/>
        <pt x="226" y="703" on="1"/>
        <pt x="331" y="703" on="0"/>
        <pt x="331" y="597" on="1"/>
        <pt x="331" y="577" on="0"/>
        <pt x="327" y="553" on="1"/>
        <pt x="315" y="475" on="0"/>
        <pt x="233" y="402" on="0"/>
      </contour>
      <contour>
        <pt x="252" y="594" on="1"/>
        <pt x="252" y="639" on="0"/>
        <pt x="216" y="639" on="1"/>
        <pt x="193" y="639" on="0"/>
        <pt x="163" y="603" on="0"/>
        <pt x="152" y="532" on="0"/>
        <pt x="152" y="516" on="1"/>
        <pt x="152" y="465" on="0"/>
        <pt x="187" y="465" on="1"/>
        <pt x="234" y="465" on="0"/>
        <pt x="248" y="552" on="1"/>
        <pt x="252" y="577" on="0"/>
      </contour>
    </TTGlyph>
    <TTGlyph name="oslash" xMin="0" yMin="-78" xMax="483" yMax="597">
      <contour>
        <pt x="19" y="176" on="1"/>
        <pt x="19" y="212" on="0"/>
        <pt x="26" y="254" on="1"/>
        <pt x="48" y="393" on="0"/>
        <pt x="191" y="522" on="0"/>
        <pt x="291" y="522" on="1"/>
        <pt x="327" y="522" on="0"/>
        <pt x="361" y="514" on="1"/>
        <pt x="414" y="597" on="1"/>
        <pt x="483" y="561" on="1"/>
        <pt x="429" y="476" on="1"/>
        <pt x="477" y="428" on="0"/>
        <pt x="477" y="331" on="1"/>
        <pt x="477" y="296" on="0"/>
        <pt x="471" y="255" on="1"/>
        <pt x="449" y="116" on="0"/>
        <pt x="304" y="-13" on="0"/>
        <pt x="200" y="-13" on="1"/>
        <pt x="159" y="-13" on="0"/>
        <pt x="122" y="0" on="1"/>
        <pt x="71" y="-78" on="1"/>
        <pt x="0" y="-43" on="1"/>
        <pt x="57" y="45" on="1"/>
        <pt x="19" y="93" on="0"/>
      </contour>
      <contour>
        <pt x="222" y="94" on="1"/>
        <pt x="264" y="94" on="0"/>
        <pt x="321" y="165" on="0"/>
        <pt x="341" y="302" on="0"/>
        <pt x="341" y="335" on="0"/>
        <pt x="341" y="340" on="1"/>
        <pt x="188" y="102" on="1"/>
        <pt x="201" y="94" on="0"/>
      </contour>
      <contour>
        <pt x="274" y="414" on="1"/>
        <pt x="231" y="414" on="0"/>
        <pt x="176" y="348" on="0"/>
        <pt x="161" y="254" on="1"/>
        <pt x="156" y="227" on="0"/>
        <pt x="156" y="197" on="1"/>
        <pt x="295" y="412" on="1"/>
        <pt x="281" y="414" on="0"/>
      </contour>
    </TTGlyph>
    <TTGlyph name="otilde" xMin="19" yMin="-13" xMax="484" yMax="728">
      <contour>
        <pt x="449" y="116" on="0"/>
        <pt x="304" y="-13" on="0"/>
        <pt x="102" y="-13" on="0"/>
        <pt x="53" y="50" on="1"/>
        <pt x="19" y="94" on="0"/>
        <pt x="19" y="175" on="1"/>
        <pt x="19" y="211" on="0"/>
        <pt x="26" y="254" on="1"/>
        <pt x="48" y="393" on="0"/>
        <pt x="191" y="522" on="0"/>
        <pt x="291" y="522" on="1"/>
        <pt x="478" y="522" on="0"/>
        <pt x="478" y="333" on="1"/>
        <pt x="478" y="297" on="0"/>
        <pt x="471" y="255" on="1"/>
      </contour>
      <contour>
        <pt x="342" y="329" on="1"/>
        <pt x="342" y="414" on="0"/>
        <pt x="274" y="414" on="1"/>
        <pt x="231" y="414" on="0"/>
        <pt x="176" y="348" on="0"/>
        <pt x="161" y="254" on="1"/>
        <pt x="155" y="214" on="0"/>
        <pt x="155" y="185" on="1"/>
        <pt x="155" y="94" on="0"/>
        <pt x="222" y="94" on="1"/>
        <pt x="264" y="94" on="0"/>
        <pt x="321" y="165" on="0"/>
        <pt x="335" y="254" on="1"/>
        <pt x="342" y="298" on="0"/>
      </contour>
      <contour>
        <pt x="280" y="728" on="0"/>
        <pt x="364" y="685" on="0"/>
        <pt x="409" y="685" on="0"/>
        <pt x="444" y="720" on="1"/>
        <pt x="484" y="666" on="1"/>
        <pt x="461" y="636" on="0"/>
        <pt x="393" y="591" on="0"/>
        <pt x="338" y="591" on="0"/>
        <pt x="257" y="634" on="0"/>
        <pt x="212" y="634" on="0"/>
        <pt x="177" y="599" on="1"/>
        <pt x="137" y="653" on="1"/>
        <pt x="160" y="683" on="0"/>
        <pt x="226" y="728" on="0"/>
      </contour>
    </TTGlyph>
    <TTGlyph name="p" xMin="-28" yMin="-213" xMax="507" yMax="522">
      <contour>
        <pt x="351" y="522" on="1"/>
        <pt x="444" y="522" on="0"/>
        <pt x="482" y="453" on="1"/>
        <pt x="506" y="407" on="0"/>
        <pt x="506" y="340" on="1"/>
        <pt x="506" y="306" on="0"/>
        <pt x="500" y="266" on="1"/>
        <pt x="455" y="-13" on="0"/>
        <pt x="226" y="-13" on="1"/>
        <pt x="189" y="-13" on="0"/>
        <pt x="146" y="5" on="1"/>
        <pt x="114" y="-197" on="1"/>
        <pt x="-28" y="-213" on="1"/>
        <pt x="87" y="513" on="1"/>
        <pt x="207" y="513" on="1"/>
        <pt x="212" y="472" on="1"/>
        <pt x="283" y="522" on="0"/>
      </contour>
      <contour>
        <pt x="221" y="100" on="1"/>
        <pt x="336" y="100" on="0"/>
        <pt x="361" y="262" on="1"/>
        <pt x="365" y="290" on="0"/>
        <pt x="365" y="313" on="1"/>
        <pt x="365" y="408" on="0"/>
        <pt x="289" y="408" on="1"/>
        <pt x="251" y="408" on="0"/>
        <pt x="206" y="383" on="1"/>
        <pt x="162" y="107" on="1"/>
        <pt x="190" y="100" on="0"/>
      </contour>
    </TTGlyph>
    <TTGlyph name="paragraph" xMin="54" yMin="-162" xMax="539" yMax="668">
      <contour>
        <pt x="55" y="484" on="1"/>
        <pt x="55" y="566" on="0"/>
        <pt x="121" y="622" on="1"/>
        <pt x="175" y="668" on="0"/>
        <pt x="241" y="668" on="1"/>
        <pt x="539" y="668" on="1"/>
        <pt x="529" y="604" on="1"/>
        <pt x="457" y="604" on="1"/>
        <pt x="336" y="-162" on="1"/>
        <pt x="262" y="-162" on="1"/>
        <pt x="383" y="604" on="1"/>
        <pt x="309" y="604" on="1"/>
        <pt x="188" y="-162" on="1"/>
        <pt x="110" y="-162" on="1"/>
        <pt x="191" y="351" on="1"/>
        <pt x="125" y="351" on="0"/>
        <pt x="86" y="398" on="1"/>
        <pt x="55" y="435" on="0"/>
      </contour>
    </TTGlyph>
    <TTGlyph name="parenleft" xMin="25" yMin="-133" xMax="346" yMax="752">
      <contour>
        <pt x="346" y="692" on="1"/>
        <pt x="159" y="441" on="0"/>
        <pt x="159" y="220" on="1"/>
        <pt x="159" y="80" on="0"/>
        <pt x="225" y="-73" on="1"/>
        <pt x="128" y="-133" on="1"/>
        <pt x="26" y="46" on="0"/>
        <pt x="26" y="218" on="1"/>
        <pt x="26" y="480" on="0"/>
        <pt x="269" y="752" on="1"/>
      </contour>
    </TTGlyph>
    <TTGlyph name="parenright" xMin="-42" yMin="-133" xMax="280" yMax="752">
      <contour>
        <pt x="-42" y="-73" on="1"/>
        <pt x="145" y="176" on="0"/>
        <pt x="145" y="395" on="1"/>
        <pt x="145" y="535" on="0"/>
        <pt x="79" y="692" on="1"/>
        <pt x="176" y="752" on="1"/>
        <pt x="279" y="572" on="0"/>
        <pt x="279" y="400" on="1"/>
        <pt x="279" y="140" on="0"/>
        <pt x="35" y="-133" on="1"/>
      </contour>
    </TTGlyph>
    <TTGlyph name="percent" xMin="118" yMin="-10" xMax="839" yMax="700">
      <contour>
        <pt x="310" y="0" on="1"/>
        <pt x="180" y="0" on="1"/>
        <pt x="642" y="691" on="1"/>
        <pt x="771" y="691" on="1"/>
      </contour>
      <contour>
        <pt x="140" y="362" on="1"/>
        <pt x="118" y="389" on="0"/>
        <pt x="118" y="444" on="1"/>
        <pt x="118" y="473" on="0"/>
        <pt x="133" y="566" on="0"/>
        <pt x="173" y="645" on="0"/>
        <pt x="200" y="664" on="1"/>
        <pt x="249" y="700" on="0"/>
        <pt x="353" y="700" on="0"/>
        <pt x="410" y="672" on="0"/>
        <pt x="424" y="628" on="1"/>
        <pt x="432" y="605" on="0"/>
        <pt x="432" y="545" on="0"/>
        <pt x="417" y="455" on="0"/>
        <pt x="378" y="377" on="0"/>
        <pt x="351" y="358" on="1"/>
        <pt x="301" y="323" on="0"/>
        <pt x="173" y="323" on="0"/>
      </contour>
      <contour>
        <pt x="338" y="571" on="1"/>
        <pt x="338" y="633" on="0"/>
        <pt x="295" y="633" on="1"/>
        <pt x="267" y="633" on="0"/>
        <pt x="229" y="580" on="0"/>
        <pt x="212" y="474" on="0"/>
        <pt x="212" y="449" on="1"/>
        <pt x="212" y="389" on="0"/>
        <pt x="256" y="389" on="1"/>
        <pt x="284" y="389" on="0"/>
        <pt x="321" y="440" on="0"/>
        <pt x="338" y="547" on="0"/>
      </contour>
      <contour>
        <pt x="730" y="6" on="0"/>
        <pt x="679" y="-10" on="0"/>
        <pt x="624" y="-10" on="0"/>
        <pt x="583" y="-1" on="0"/>
        <pt x="546" y="23" on="0"/>
        <pt x="538" y="44" on="1"/>
        <pt x="525" y="79" on="0"/>
        <pt x="525" y="145" on="0"/>
        <pt x="540" y="233" on="0"/>
        <pt x="580" y="312" on="0"/>
        <pt x="607" y="332" on="1"/>
        <pt x="656" y="367" on="0"/>
        <pt x="785" y="367" on="0"/>
        <pt x="818" y="326" on="1"/>
        <pt x="839" y="300" on="0"/>
        <pt x="839" y="244" on="1"/>
        <pt x="839" y="215" on="0"/>
        <pt x="824" y="122" on="0"/>
        <pt x="784" y="44" on="0"/>
      </contour>
      <contour>
        <pt x="744" y="236" on="1"/>
        <pt x="744" y="300" on="0"/>
        <pt x="701" y="300" on="1"/>
        <pt x="673" y="300" on="0"/>
        <pt x="636" y="247" on="0"/>
        <pt x="625" y="177" on="1"/>
        <pt x="620" y="139" on="0"/>
        <pt x="620" y="90" on="0"/>
        <pt x="625" y="78" on="1"/>
        <pt x="634" y="56" on="0"/>
        <pt x="690" y="56" on="0"/>
        <pt x="728" y="107" on="0"/>
        <pt x="744" y="212" on="0"/>
      </contour>
    </TTGlyph>
    <TTGlyph name="period" xMin="2" yMin="-7" xMax="169" yMax="158">
      <contour>
        <pt x="65" y="158" on="0"/>
        <pt x="133" y="158" on="0"/>
        <pt x="169" y="115" on="0"/>
        <pt x="169" y="90" on="1"/>
        <pt x="169" y="49" on="0"/>
        <pt x="106" y="-7" on="0"/>
        <pt x="38" y="-7" on="0"/>
        <pt x="3" y="36" on="0"/>
        <pt x="3" y="61" on="1"/>
        <pt x="3" y="105" on="0"/>
      </contour>
    </TTGlyph>
    <TTGlyph name="periodcentered" xMin="34" yMin="180" xMax="201" yMax="345">
      <contour>
        <pt x="97" y="345" on="0"/>
        <pt x="165" y="345" on="0"/>
        <pt x="201" y="302" on="0"/>
        <pt x="201" y="277" on="1"/>
        <pt x="201" y="236" on="0"/>
        <pt x="138" y="180" on="0"/>
        <pt x="70" y="180" on="0"/>
        <pt x="35" y="223" on="0"/>
        <pt x="35" y="248" on="1"/>
        <pt x="35" y="292" on="0"/>
      </contour>
    </TTGlyph>
    <TTGlyph name="perthousand" xMin="51" yMin="-96" xMax="1125" yMax="784">
      <contour>
        <pt x="342" y="399" on="0"/>
        <pt x="240" y="315" on="0"/>
        <pt x="104" y="315" on="0"/>
        <pt x="72" y="355" on="1"/>
        <pt x="52" y="381" on="0"/>
        <pt x="52" y="467" on="0"/>
        <pt x="58" y="507" on="1"/>
        <pt x="75" y="616" on="0"/>
        <pt x="179" y="702" on="0"/>
        <pt x="242" y="702" on="1"/>
        <pt x="276" y="702" on="0"/>
        <pt x="323" y="687" on="0"/>
        <pt x="342" y="666" on="1"/>
        <pt x="365" y="640" on="0"/>
        <pt x="365" y="581" on="1"/>
        <pt x="365" y="550" on="0"/>
        <pt x="360" y="508" on="1"/>
      </contour>
      <contour>
        <pt x="272" y="571" on="1"/>
        <pt x="272" y="635" on="0"/>
        <pt x="229" y="635" on="1"/>
        <pt x="201" y="635" on="0"/>
        <pt x="163" y="581" on="0"/>
        <pt x="147" y="465" on="0"/>
        <pt x="147" y="416" on="0"/>
        <pt x="151" y="404" on="1"/>
        <pt x="160" y="381" on="0"/>
        <pt x="217" y="381" on="0"/>
        <pt x="254" y="433" on="0"/>
        <pt x="272" y="545" on="0"/>
      </contour>
      <contour>
        <pt x="594" y="-12" on="1"/>
        <pt x="501" y="-12" on="0"/>
        <pt x="481" y="42" on="1"/>
        <pt x="468" y="78" on="0"/>
        <pt x="468" y="147" on="0"/>
        <pt x="474" y="180" on="1"/>
        <pt x="492" y="289" on="0"/>
        <pt x="595" y="375" on="0"/>
        <pt x="730" y="375" on="0"/>
        <pt x="762" y="334" on="1"/>
        <pt x="782" y="308" on="0"/>
        <pt x="782" y="221" on="0"/>
        <pt x="776" y="181" on="1"/>
        <pt x="759" y="72" on="0"/>
        <pt x="657" y="-12" on="0"/>
      </contour>
      <contour>
        <pt x="673" y="308" on="0"/>
        <pt x="617" y="308" on="0"/>
        <pt x="580" y="254" on="0"/>
        <pt x="568" y="180" on="1"/>
        <pt x="563" y="138" on="0"/>
        <pt x="563" y="88" on="0"/>
        <pt x="567" y="77" on="1"/>
        <pt x="576" y="54" on="0"/>
        <pt x="633" y="54" on="0"/>
        <pt x="670" y="106" on="0"/>
        <pt x="682" y="180" on="1"/>
        <pt x="687" y="221" on="0"/>
        <pt x="687" y="272" on="0"/>
        <pt x="682" y="284" on="1"/>
      </contour>
      <contour>
        <pt x="936" y="-12" on="1"/>
        <pt x="843" y="-12" on="0"/>
        <pt x="823" y="42" on="1"/>
        <pt x="810" y="78" on="0"/>
        <pt x="810" y="147" on="0"/>
        <pt x="816" y="180" on="1"/>
        <pt x="834" y="289" on="0"/>
        <pt x="937" y="375" on="0"/>
        <pt x="1072" y="375" on="0"/>
        <pt x="1104" y="334" on="1"/>
        <pt x="1124" y="308" on="0"/>
        <pt x="1124" y="221" on="0"/>
        <pt x="1118" y="181" on="1"/>
        <pt x="1101" y="72" on="0"/>
        <pt x="999" y="-12" on="0"/>
      </contour>
      <contour>
        <pt x="1015" y="308" on="0"/>
        <pt x="959" y="308" on="0"/>
        <pt x="922" y="254" on="0"/>
        <pt x="910" y="180" on="1"/>
        <pt x="905" y="138" on="0"/>
        <pt x="905" y="88" on="0"/>
        <pt x="909" y="77" on="1"/>
        <pt x="918" y="54" on="0"/>
        <pt x="975" y="54" on="0"/>
        <pt x="1012" y="106" on="0"/>
        <pt x="1024" y="180" on="1"/>
        <pt x="1029" y="221" on="0"/>
        <pt x="1029" y="272" on="0"/>
        <pt x="1024" y="284" on="1"/>
      </contour>
      <contour>
        <pt x="665" y="753" on="1"/>
        <pt x="248" y="-96" on="1"/>
        <pt x="145" y="-67" on="1"/>
        <pt x="565" y="784" on="1"/>
      </contour>
    </TTGlyph>
    <TTGlyph name="plus" xMin="25" yMin="77" xMax="451" yMax="478">
      <contour>
        <pt x="262" y="77" on="1"/>
        <pt x="151" y="77" on="1"/>
        <pt x="174" y="223" on="1"/>
        <pt x="25" y="223" on="1"/>
        <pt x="42" y="333" on="1"/>
        <pt x="191" y="333" on="1"/>
        <pt x="214" y="478" on="1"/>
        <pt x="325" y="478" on="1"/>
        <pt x="302" y="333" on="1"/>
        <pt x="451" y="333" on="1"/>
        <pt x="434" y="223" on="1"/>
        <pt x="285" y="223" on="1"/>
      </contour>
    </TTGlyph>
    <TTGlyph name="plus.001" xMin="70" yMin="77" xMax="496" yMax="478">
      <contour>
        <pt x="307" y="77" on="1"/>
        <pt x="196" y="77" on="1"/>
        <pt x="219" y="223" on="1"/>
        <pt x="70" y="223" on="1"/>
        <pt x="87" y="333" on="1"/>
        <pt x="236" y="333" on="1"/>
        <pt x="259" y="478" on="1"/>
        <pt x="370" y="478" on="1"/>
        <pt x="347" y="333" on="1"/>
        <pt x="496" y="333" on="1"/>
        <pt x="479" y="223" on="1"/>
        <pt x="330" y="223" on="1"/>
      </contour>
    </TTGlyph>
    <TTGlyph name="plusminus" xMin="5" yMin="1" xMax="483" yMax="588">
      <contour>
        <pt x="293" y="187" on="1"/>
        <pt x="182" y="187" on="1"/>
        <pt x="205" y="333" on="1"/>
        <pt x="56" y="333" on="1"/>
        <pt x="74" y="443" on="1"/>
        <pt x="223" y="443" on="1"/>
        <pt x="246" y="588" on="1"/>
        <pt x="357" y="588" on="1"/>
        <pt x="334" y="443" on="1"/>
        <pt x="483" y="443" on="1"/>
        <pt x="465" y="333" on="1"/>
        <pt x="316" y="333" on="1"/>
      </contour>
      <contour>
        <pt x="429" y="110" on="1"/>
        <pt x="412" y="1" on="1"/>
        <pt x="5" y="1" on="1"/>
        <pt x="22" y="110" on="1"/>
      </contour>
    </TTGlyph>
    <TTGlyph name="q" xMin="16" yMin="-222" xMax="518" yMax="522">
      <contour>
        <pt x="305" y="19" on="1"/>
        <pt x="247" y="-13" on="0"/>
        <pt x="89" y="-13" on="0"/>
        <pt x="46" y="50" on="1"/>
        <pt x="16" y="93" on="0"/>
        <pt x="16" y="162" on="1"/>
        <pt x="16" y="192" on="0"/>
        <pt x="22" y="228" on="1"/>
        <pt x="68" y="522" on="0"/>
        <pt x="323" y="522" on="1"/>
        <pt x="377" y="522" on="0"/>
        <pt x="489" y="500" on="0"/>
        <pt x="518" y="484" on="1"/>
        <pt x="406" y="-222" on="1"/>
        <pt x="268" y="-213" on="1"/>
      </contour>
      <contour>
        <pt x="160" y="183" on="1"/>
        <pt x="160" y="100" on="0"/>
        <pt x="230" y="100" on="1"/>
        <pt x="271" y="100" on="0"/>
        <pt x="321" y="120" on="1"/>
        <pt x="365" y="401" on="1"/>
        <pt x="341" y="409" on="0"/>
        <pt x="309" y="409" on="1"/>
        <pt x="243" y="409" on="0"/>
        <pt x="178" y="326" on="0"/>
        <pt x="166" y="249" on="1"/>
        <pt x="160" y="210" on="0"/>
      </contour>
    </TTGlyph>
    <TTGlyph name="question" xMin="3" yMin="-29" xMax="382" yMax="700">
      <contour>
        <pt x="162" y="64" on="1"/>
        <pt x="162" y="23" on="0"/>
        <pt x="130" y="-6" on="1"/>
        <pt x="103" y="-29" on="0"/>
        <pt x="38" y="-29" on="0"/>
        <pt x="4" y="13" on="0"/>
        <pt x="4" y="38" on="1"/>
        <pt x="4" y="78" on="0"/>
        <pt x="36" y="106" on="1"/>
        <pt x="62" y="128" on="0"/>
        <pt x="127" y="128" on="0"/>
        <pt x="162" y="88" on="0"/>
      </contour>
      <contour>
        <pt x="250" y="523" on="1"/>
        <pt x="250" y="595" on="0"/>
        <pt x="101" y="608" on="1"/>
        <pt x="140" y="700" on="1"/>
        <pt x="264" y="694" on="0"/>
        <pt x="331" y="640" on="1"/>
        <pt x="381" y="598" on="0"/>
        <pt x="381" y="540" on="1"/>
        <pt x="381" y="487" on="0"/>
        <pt x="350" y="444" on="1"/>
        <pt x="331" y="417" on="0"/>
        <pt x="301" y="392" on="0"/>
        <pt x="245" y="348" on="0"/>
        <pt x="212" y="319" on="0"/>
        <pt x="176" y="267" on="0"/>
        <pt x="168" y="238" on="1"/>
        <pt x="167" y="230" on="0"/>
        <pt x="159" y="191" on="0"/>
        <pt x="158" y="184" on="1"/>
        <pt x="44" y="184" on="1"/>
        <pt x="46" y="210" on="0"/>
        <pt x="51" y="251" on="1"/>
        <pt x="60" y="284" on="0"/>
        <pt x="103" y="348" on="0"/>
        <pt x="140" y="383" on="0"/>
        <pt x="169" y="408" on="1"/>
        <pt x="192" y="426" on="0"/>
        <pt x="204" y="436" on="1"/>
        <pt x="250" y="476" on="0"/>
      </contour>
    </TTGlyph>
</ttFont>
